<?xml version="1.0" standalone="no"?>
<!DOCTYPE svg PUBLIC "-//W3C//DTD SVG 1.1//EN" "http://www.w3.org/Graphics/SVG/1.1/DTD/svg11.dtd" >
<svg xmlns="http://www.w3.org/2000/svg">
<metadata></metadata>
<defs>
<font id="thaisans_neuelight_italic" horiz-adv-x="0" >
<font-face units-per-em="2048" ascent="1534" descent="-514" />
<missing-glyph horiz-adv-x="659" />
<glyph unicode="&#x3b;&#x3b;arm&#x3b;&#x3b;" horiz-adv-x="2119" d="M76 1270v82h327v164q-23 0 -45 13t-39.5 35.5t-27.5 52.5t-10 62q0 37 14 67t36.5 51.5t52.5 33.5t60 12q78 0 121 -43t43 -121q0 -27 -8 -55.5t-23.5 -52t-38 -38.5t-53.5 -17v-164h328v-82h-328v-246l220 -492h-82l-179 410l-178 -410h-82l219 492v246h-327zM158 0 q0 23 8 48.5t25.5 47t44 34.5t65.5 13q61 0 102 -41t41 -102q0 -14 -7 -51t-48 -66l45 -209l113 226h41l112 -226l72 428h102l-32 -172l22 41l133 31q0 106 12.5 181t37 120t63.5 65.5t92 20.5q61 0 92 -41t31 -102h-41q0 31 -15.5 56.5t-45.5 25.5q-78 0 -111 -76t-33 -229 l150 36l18 -75l-168 -43v-82q0 -123 -6 -224.5t-29.5 -175t-68.5 -113.5t-121 -40q-61 0 -102 30.5t-41 92.5h41q0 -31 25.5 -46.5t56.5 -15.5q61 0 94 37t48 101.5t18 154.5t3 199v61l-163 -41l-70 -368h-53l-144 307l-143 -307h-53l-66 327l37 25q-4 -2 -12 -2 q-8 -2 -29 -2q-18 0 -44 7t-47.5 23.5t-36.5 43t-15 67.5zM240 0q0 -23 15 -41t46 -18q61 0 61 59q0 61 -61 61q-31 0 -46 -18t-15 -43zM362 1679q0 -31 17.5 -56.5t64.5 -25.5t64.5 26t17.5 56q0 47 -25.5 64.5t-56.5 17.5t-56.5 -17.5t-25.5 -64.5zM834 532l466 1270h353 l409 -1270h-327l-125 390h-551l-144 -390h-81zM1100 1024h475l-223 696zM1364 41l41 205h61l-61 -205h-41zM1421 1741l27 -80l47 80h-74zM1462 1624l17 -57l106 174h-51zM1466 41l41 205h62l-62 -205h-41zM1493 1528l23 -74l114 193l-22 69zM1536 1393l12 -41l115 190 l-12 41zM1565 1303l12 -41l115 190l-13 41zM1591 -203q0 76 18.5 146.5t51.5 124t78 86t98 32.5q109 0 167 -74.5t58 -211.5q0 -201 -71.5 -295t-194.5 -94q-39 0 -76 16t-65.5 50t-46 88t-17.5 132zM1595 1208l13 -41l114 189l-14 43zM1622 1126l14 -49l115 191l-14 49z M1651 1032l14 -41l113 191l-11 41zM1673 -162l287 123q-4 39 -16 70q-12 27 -36 49t-71 22q-53 0 -86 -42t-49 -91q-20 -57 -29 -131zM1673 -264q0 -23 7.5 -48.5t22.5 -47t38.5 -35t54.5 -13.5q61 0 94 41t49 93q18 57 21 133zM1679 940l13 -33l114 187l-10 39zM1706 860 l12 -33l115 189l-12 35zM1733 778l12 -39l117 187l-13 43zM1759 696l15 -47l114 193l-14 45zM1786 614l6 -20h27l96 162l-14 49zM1851 594h41l50 84l-15 41zM1925 594h41l-14 45z" />
<glyph unicode="&#xd;" horiz-adv-x="659" />
<glyph unicode=" "  horiz-adv-x="659" />
<glyph unicode="&#x09;" horiz-adv-x="659" />
<glyph unicode="&#xa0;" horiz-adv-x="659" />
<glyph unicode="!" horiz-adv-x="256" d="M76 0l20 104h105l-21 -104h-104zM125 233l172 816h104l-174 -816h-102z" />
<glyph unicode="&#x22;" horiz-adv-x="481" d="M231 737l66 314h106l-65 -314h-107zM440 737l68 314h104l-65 -314h-107z" />
<glyph unicode="#" horiz-adv-x="1099" d="M139 301l39 84h156l110 233h-155l39 82h157l140 289h98l-139 -289h307l139 289h98l-139 -289h176l-39 -82h-176l-112 -233h176l-41 -84h-174l-144 -301h-98l143 301h-307l-143 -301h-98l143 301h-156zM432 385h307l111 233h-305z" />
<glyph unicode="$" horiz-adv-x="788" d="M88 57l18 86q35 -23 78 -41q37 -16 86 -27.5t109 -11.5q113 0 188.5 55.5t98.5 160.5q16 74 -14.5 114.5t-84 67t-119 46t-117.5 50.5t-82 79t-11 134q12 53 44.5 95t78 72t98.5 47t106 22l35 155h98l-34 -155q55 -4 94 -12.5t65 -18.5q29 -10 49 -25l-18 -86 q-27 16 -63 29q-33 10 -82.5 20.5t-120.5 10.5q-37 0 -78 -11.5t-76 -31t-59.5 -48t-32.5 -63.5q-12 -61 19.5 -95t86 -58.5t118 -46t115.5 -56.5t79.5 -90t9.5 -145q-12 -53 -33.5 -102.5t-59.5 -88.5t-93.5 -66.5t-134.5 -35.5l-33 -156h-99l31 152q-72 2 -121 14t-80 27 q-37 16 -59 34z" />
<glyph unicode="%" horiz-adv-x="1155" d="M221 0l936 1217h107l-934 -1217h-109zM254 846q31 145 100.5 217t153.5 72q78 0 114.5 -68t6.5 -209q-14 -70 -41 -122t-60.5 -87t-72.5 -52t-76 -17q-78 0 -116 65.5t-9 200.5zM342 754q-2 -37 6 -57.5t22.5 -27.5t32.5 -7q16 0 34 7t35 28.5t32.5 58.5t27.5 96 q12 61 13.5 101t-7 61.5t-22.5 30t-31 8.5q-16 0 -33.5 -8.5t-35 -31t-32.5 -61.5t-28 -102q-12 -59 -14 -96zM756 240q31 145 101.5 216.5t150.5 71.5q78 0 115.5 -67.5t6.5 -208.5q-29 -141 -100 -210t-149 -69q-76 0 -115 65.5t-10 201.5zM843 142.5q-1 -38.5 7 -57.5 t22.5 -25.5t30.5 -6.5q18 0 35.5 7.5t34 28t33 58.5t28.5 99q14 63 15.5 103t-7 61.5t-22.5 28.5t-33 7q-16 0 -33.5 -8t-35 -29.5t-33 -61.5t-27.5 -103q-14 -63 -15 -101.5z" />
<glyph unicode="&#x26;" horiz-adv-x="1116" d="M127 252q45 219 299 321q-37 29 -67.5 82.5t-14.5 130.5q12 55 42 97.5t72 70t94 42t107 14.5q47 0 88 -14.5t70 -40t42 -63.5t3 -85q-20 -94 -86.5 -149.5t-177.5 -94.5q49 -29 87 -64.5t65.5 -73.5t47 -78t33.5 -75q43 47 82 101.5t70 108t50.5 102.5t25.5 90l4 26h104 q-33 -121 -111.5 -254t-185.5 -247q29 -51 69 -83t118 -32l-17 -84q-104 0 -157.5 37t-89.5 90q-84 -72 -183.5 -108.5t-212.5 -36.5q-160 0 -229.5 64.5t-40.5 205.5zM231 252q-23 -102 28 -145.5t155 -43.5q90 0 178 33t160 97q-23 43 -43.5 89t-49 89t-68.5 79.5 t-99 59.5q-59 -23 -102.5 -44.5t-74 -50t-51 -67.5t-33.5 -96zM449 786q-10 -53 7 -102t72 -84q201 70 232 211q6 29 -5.5 49.5t-30.5 33.5t-42 19.5t-41 6.5q-80 0 -130 -39t-62 -95z" />
<glyph unicode="'" horiz-adv-x="256" d="M231 737l66 314h104l-65 -314h-105z" />
<glyph unicode="(" horiz-adv-x="399" d="M107.5 10q-25.5 168 15.5 365q86 399 387 684h88q-154 -147 -246 -317.5t-133 -366.5q-41 -190 -19.5 -354t113.5 -308h-90q-90 129 -115.5 297z" />
<glyph unicode=")" horiz-adv-x="399" d="M-43 -287q289 283 369 662q41 193 20.5 364.5t-108.5 319.5h88q180 -287 96 -684q-84 -387 -379 -662h-86z" />
<glyph unicode="*" horiz-adv-x="573" d="M240 780l184 86l-148 86l89 92l92 -110l12 162h115l-60 -164l146 112l47 -92l-187 -86l150 -86l-86 -92l-98 113l-11 -164h-114l57 162l-139 -111z" />
<glyph unicode="+" horiz-adv-x="747" d="M154 371l16 84h256l59 270h82l-57 -270h256l-16 -84h-256l-54 -248h-84l54 248h-256z" />
<glyph unicode="," horiz-adv-x="256" d="M-80 -223q37 39 70 76q29 33 52.5 70.5t31.5 70.5l24 115h103l-23 -115q-8 -41 -36.5 -80t-61.5 -70q-37 -37 -84 -67h-76z" />
<glyph unicode="-" horiz-adv-x="532" d="M158 389l18 88h381l-18 -88h-381z" />
<glyph unicode="." horiz-adv-x="256" d="M76 0l22 109h103l-21 -109h-104z" />
<glyph unicode="/" horiz-adv-x="454" d="M14 0l582 1219h96l-581 -1219h-97z" />
<glyph unicode="0" horiz-adv-x="829" d="M124 256q-7 92 19 217q29 133 78 233.5t112.5 167t139.5 100.5t156 34q76 0 136 -31t97 -93.5t45.5 -159.5t-18.5 -228q-29 -129 -81 -225.5t-119.5 -161t-145.5 -96t-154 -31.5t-133 29.5t-91 91t-41 153.5zM250 479q-45 -211 6 -313.5t162 -102.5q117 0 218 105.5 t146 316.5q23 109 20 191t-28.5 137t-70 83t-101.5 28q-113 0 -209 -112t-143 -333z" />
<glyph unicode="1" horiz-adv-x="450" d="M203 741l18 86q47 18 94 45t82 54q41 31 80 63h107l-209 -989h-105l181 850q-18 -10 -47 -26.5t-63 -32t-69.5 -29.5t-68.5 -21z" />
<glyph unicode="2" horiz-adv-x="675" d="M45 0l16 84q12 59 58.5 113.5t110 106.5t136 103.5t136 104.5t111 108.5t59.5 116.5q23 100 -19.5 143.5t-124.5 43.5q-66 0 -138.5 -18.5t-125.5 -65.5l19 86q53 45 119.5 63.5t144.5 18.5q123 0 190.5 -64.5t40.5 -193.5q-16 -74 -64 -137.5t-111.5 -121t-135.5 -109.5 t-134.5 -102.5t-109.5 -98.5t-59 -97h514l-16 -84h-617z" />
<glyph unicode="3" horiz-adv-x="696" d="M84 37l18 92q41 -41 93.5 -53.5t119.5 -12.5q106 0 185.5 49.5t99.5 143.5q23 104 -48 158.5t-276 54.5l17 76q92 4 170 26q33 8 65.5 23.5t60 36t47 48.5t28.5 64q20 98 -18 139.5t-114 41.5q-47 0 -112.5 -12.5t-120.5 -47.5l18 86q55 31 108.5 44.5t125.5 13.5 q57 0 103 -18.5t76 -50.5t42 -74t2 -89q-23 -98 -82 -162.5t-166 -99.5q92 -16 146.5 -83t34.5 -165q-14 -70 -53.5 -123t-93.5 -89t-121.5 -54t-141.5 -18q-72 0 -124 15t-89 40z" />
<glyph unicode="4" horiz-adv-x="718" d="M66 244l20 94l594 651h108l-139 -659h125l-18 -86h-125l-51 -244h-105l51 244h-460zM190 330h355l108 514z" />
<glyph unicode="5" horiz-adv-x="655" d="M80 16l16 86q20 -12 47 -20q23 -8 56.5 -13.5t79.5 -5.5q121 0 192.5 58.5t93.5 161.5q23 111 -32.5 171t-161.5 60q-47 0 -84 -3t-60 -7q-29 -4 -47 -8l105 493h465l-19 -86h-360l-68 -315h78q88 0 149.5 -22.5t97.5 -62.5t47 -94.5t-3 -117.5q-33 -154 -145.5 -231.5 t-266.5 -77.5q-72 0 -111.5 10t-68.5 24z" />
<glyph unicode="6" horiz-adv-x="724" d="M137 436q59 281 197.5 426.5t331.5 145.5h88t75 -17l-18 -84q-20 4 -43 8t-51.5 6.5t-69.5 2.5q-143 2 -248.5 -110t-146.5 -314q25 35 57.5 57.5t68.5 34.5t68.5 17t57.5 5q63 0 114.5 -22.5t84 -63.5t44 -98t-3.5 -127q-16 -70 -52 -128t-86 -101t-114.5 -67.5 t-134.5 -24.5q-147 0 -205.5 120.5t-13.5 333.5zM225 328q-25 -117 10 -191t140 -74q45 0 88 19.5t80 52.5t62.5 77t35.5 91q23 109 -19 169t-147 60q-53 0 -97 -22.5t-76 -54t-51.5 -66t-25.5 -61.5z" />
<glyph unicode="7" horiz-adv-x="665" d="M193 0l528 903h-516l18 86h637l-14 -61l-551 -928h-102z" />
<glyph unicode="8" horiz-adv-x="706" d="M98 258q18 88 81 162t161 115q-57 31 -83.5 91t-10.5 132q12 55 40.5 100t71.5 79t96.5 52.5t112.5 18.5q55 0 99.5 -19.5t73 -53.5t40 -80t0.5 -97q-16 -72 -65 -132.5t-123 -90.5q86 -41 113.5 -117t9.5 -160q-14 -70 -49 -121t-84.5 -86t-109.5 -52t-126 -17 q-141 0 -208.5 68.5t-39.5 207.5zM207 279q-20 -92 16.5 -154t141.5 -62q100 0 164.5 61.5t84.5 154.5q8 39 3 76.5t-24.5 67.5t-53 48t-82.5 18q-92 0 -162 -59t-88 -151zM348 745q-14 -66 14.5 -116.5t112.5 -50.5q37 0 70 14t59.5 36.5t46 53.5t25.5 63q16 84 -23 131.5 t-104 47.5q-80 0 -132.5 -47.5t-68.5 -131.5z" />
<glyph unicode="9" horiz-adv-x="724" d="M102 -2l19 84q20 -6 45 -10q23 -4 53.5 -6.5t71.5 -2.5q76 0 140.5 31t114.5 87.5t84 135t50 172.5q-25 -37 -57.5 -59t-67.5 -34.5t-67.5 -16.5t-57.5 -4q-63 0 -114.5 21.5t-84 62.5t-45 97t1.5 128q14 70 50 129t87.5 102t115 68t134.5 25q141 0 205 -119t17 -336 q-59 -285 -194.5 -428t-330.5 -143h-91t-79 16zM291 684q-25 -117 22 -172t144 -55q51 0 95 21.5t75.5 53t52.5 67.5t27 65q29 129 -13.5 194.5t-136.5 65.5q-41 0 -83 -17.5t-79 -50.5t-64.5 -77t-39.5 -95z" />
<glyph unicode=":" horiz-adv-x="256" d="M76 0l20 104h105l-21 -104h-104zM201 596l22 104h105l-23 -104h-104z" />
<glyph unicode=";" horiz-adv-x="256" d="M-80 -223q37 37 70 73q29 33 52.5 71t31.5 73l22 112h105l-23 -112q-10 -45 -38.5 -84t-61.5 -68q-37 -35 -82 -65h-76zM201 596l22 106h105l-23 -106h-104z" />
<glyph unicode="&#x3c;" horiz-adv-x="720" d="M111 309l8 43l739 371l-18 -94l-590 -299l469 -258l-19 -92z" />
<glyph unicode="=" horiz-adv-x="747" d="M129 252l18 86h594l-18 -86h-594zM174 467l19 84h593l-18 -84h-594z" />
<glyph unicode="&#x3e;" horiz-adv-x="720" d="M8 -20l21 92l581 258l-463 299l21 94l580 -371l-9 -43z" />
<glyph unicode="?" horiz-adv-x="624" d="M199 0l20 104h105l-21 -104h-104zM248 233l41 201q12 59 58 98t100.5 73t101.5 73t59 100q16 78 -20.5 113t-93.5 35q-55 0 -99.5 -12.5t-75.5 -28.5q-37 -18 -63 -39l16 88q23 20 58 37q29 14 74 25.5t104 11.5q47 0 90 -13.5t72.5 -40t43 -67.5t1.5 -96 q-12 -53 -38 -92.5t-59.5 -69t-70.5 -52t-69 -43t-55.5 -44t-29.5 -52.5l-43 -205h-102z" />
<glyph unicode="@" horiz-adv-x="1320" d="M179.5 163q-23.5 97 0.5 212q25 117 92.5 218t165 178t215 123t240.5 48q111 2 203 -34t153.5 -100.5t86 -153.5t1.5 -193q-16 -74 -51 -138.5t-83 -112.5t-105.5 -77t-114.5 -29q-74 -2 -104.5 36t-18.5 124q-68 -94 -122 -128t-128 -34q-41 0 -78.5 15.5t-64.5 48.5 t-36 83t5 120q14 63 53 120.5t91.5 100.5t113 67.5t119.5 24.5q72 0 104.5 -27.5t43.5 -54.5l32 80h97l-127 -318q-12 -49 -15 -86q-2 -33 7.5 -59.5t43.5 -26.5q45 0 85 27t71 67t51.5 87t30.5 88q14 63 1 135t-57 131t-120 97t-187 36q-115 -2 -216 -47t-181 -114.5 t-132 -154.5t-71 -167q-16 -82 -2.5 -163t59.5 -145.5t125 -104.5t195 -40q78 0 156 16.5t145 41.5l-16 -82q-66 -20 -140.5 -37t-156.5 -17q-123 0 -218 40t-156.5 111t-85 168zM535 371q-20 -96 14.5 -140.5t83.5 -44.5q80 0 148.5 68t121.5 242q6 37 -18 69.5t-90 32.5 q-37 0 -78 -15.5t-78 -44t-64.5 -70.5t-39.5 -97z" />
<glyph unicode="A" horiz-adv-x="870" d="M14 0l572 989h110l152 -989h-103l-43 266h-436l-155 -266h-97zM313 352h379l-74 533z" />
<glyph unicode="B" horiz-adv-x="768" d="M76 0l209 989h278q131 -1 191 -65q43 -47 43 -113q0 -24 -6 -51q-8 -37 -25.5 -73t-45.5 -68.5t-65 -57t-80 -39.5q99 -16 147 -82q34 -47 34 -108q0 -25 -6 -53q-12 -59 -47 -110.5t-86.5 -88.5t-118 -58.5t-140.5 -21.5h-282zM197 84h165q106 0 185.5 55.5t97.5 139.5 q5 25 5 47q0 65 -44 104q-59 53 -182 53h-143zM299 567h133q96 0 165 43t85 129q5 22 5 41q1 45 -25 77q-36 46 -148 46h-143z" />
<glyph unicode="C" horiz-adv-x="819" d="M138 274q-5 35 -6 73q0 64 15 136q27 123 83.5 220.5t135 165t178 103.5t212.5 36q66 0 136.5 -6.5t115.5 -28.5l-54 -86q-53 29 -102 33t-115 4q-84 0 -161.5 -29t-142 -84t-112 -137t-69.5 -191q-14 -66 -14 -123q0 -112 55 -186q82 -110 262 -111q39 0 68.5 3.5 t56.5 10.5t53.5 17t59.5 27l16 -86q-66 -35 -137.5 -44t-149.5 -9q-109 0 -190.5 34.5t-130.5 99t-63 158.5z" />
<glyph unicode="D" horiz-adv-x="921" d="M76 0l209 989h274q263 0 369 -122q71 -82 72 -219q0 -66 -17 -144q-25 -113 -82 -205t-142 -158.5t-192.5 -103.5t-230.5 -37h-260zM197 84h155q98 0 184.5 27.5t155 82t116.5 132t71 178.5q14 65 14 119q1 117 -63 183q-92 97 -298 97h-161z" />
<glyph unicode="E" horiz-adv-x="665" d="M76 0l209 989h514l-19 -86h-409l-78 -366h369l-19 -84h-369l-77 -369h409l-16 -84h-514z" />
<glyph unicode="F" horiz-adv-x="604" d="M76 0l209 989h514l-19 -86h-409l-78 -366h369l-19 -84h-369l-94 -453h-104z" />
<glyph unicode="G" horiz-adv-x="942" d="M136 267q-7 37 -7 78q0 60 14 128q25 119 86.5 218.5t147.5 169t191.5 108.5t217.5 39q72 0 122 -9.5t81 -19.5q37 -12 58 -27l-17 -80q2 -4 -8 3.5t-41 18.5t-85 20.5t-138 9.5q-88 0 -170 -32t-150.5 -90.5t-118 -141t-71.5 -187.5q-14 -66 -14 -120q0 -33 4 -61 q14 -77 57 -128t111.5 -76t156.5 -25q66 0 118 11.5t103 38.5l64 299h-225l18 84h330l-97 -447q-86 -43 -166.5 -55t-179.5 -12q-109 0 -191.5 33.5t-133.5 97t-67 154.5z" />
<glyph unicode="H" horiz-adv-x="890" d="M76 0l209 989h104l-92 -432h530l93 432h104l-209 -989h-104l98 473h-530l-99 -473h-104z" />
<glyph unicode="I" horiz-adv-x="256" d="M76 0l209 989h104l-209 -989h-104z" />
<glyph unicode="J" horiz-adv-x="501" d="M12 0l51 78q10 -4 25 -8q25 -6 70 -7q174 0 233 281l137 645h105l-137 -645q-35 -170 -128.5 -266t-224.5 -96q-39 0 -63.5 2t-40.5 6q-18 4 -27 10z" />
<glyph unicode="K" horiz-adv-x="778" d="M76 0l209 989h104l-113 -528l535 528h119l-336 -332l164 -657h-107l-143 571l-264 -264l-64 -307h-104z" />
<glyph unicode="L" horiz-adv-x="604" d="M76 0l209 989h104l-192 -905h409l-16 -84h-514z" />
<glyph unicode="M" horiz-adv-x="1177" d="M76 0l209 989h149l178 -829l551 829h148l-209 -989h-105l183 858l-578 -858h-49l-193 856l-180 -856h-104z" />
<glyph unicode="N" horiz-adv-x="952" d="M76 0l209 989h139l375 -862l182 862h104l-208 -989h-140l-377 852l-180 -852h-104z" />
<glyph unicode="O" horiz-adv-x="1034" d="M145 479q27 125 81.5 223.5t131 166t173 103.5t208.5 36q102 0 180 -36t125 -102q48 -64 61 -158q5 -33 4 -69q0 -66 -15 -141q-27 -125 -82.5 -222.5t-132 -163t-172.5 -100t-207 -34.5q-212 0 -308 131q-64 87 -64 220q0 67 17 146zM238 310q8 -77 41.5 -132t94 -85 t144.5 -30q180 0 304 117t167 322q14 66 14 124q0 23 -2 46q-8 78 -42.5 134t-95 87t-142.5 31q-90 0 -167 -32t-137.5 -90.5t-103.5 -140t-63 -182.5q-14 -66 -15 -124q1 -23 3 -45z" />
<glyph unicode="P" horiz-adv-x="716" d="M76 0l209 989h272q159 0 225 -79q44 -54 45 -137q0 -39 -10 -85q-14 -68 -50 -126t-90 -101t-125 -66.5t-157 -23.5h-137l-78 -371h-104zM274 455h140q121 0 198.5 63.5t100.5 167.5q9 42 9 75q0 54 -23 88q-37 54 -160 54h-168z" />
<glyph unicode="Q" horiz-adv-x="1034" d="M145 479q53 250 211 389.5t387 139.5q100 0 178 -36t124.5 -101.5t59.5 -158.5q5 -33 5 -69q0 -66 -16 -141q-35 -168 -120 -285t-210 -178q23 -10 45 -24.5t38.5 -36t24.5 -50.5q3 -14 3 -29q0 -19 -5 -40h-96q6 29 -7 51t-34.5 39.5t-46 30t-43.5 18.5 q-35 -8 -68.5 -12t-70.5 -4q-215 0 -312 131q-64 87 -64 220q0 67 17 146zM238 310q8 -77 41.5 -132t93 -85t143.5 -30q180 0 305 117t168 322q14 63 14 120q0 26 -3 50q-9 78 -42.5 134t-93 87t-139.5 31q-92 0 -170 -32t-138.5 -90.5t-103.5 -140t-63 -182.5 q-14 -66 -14 -124q0 -23 2 -45z" />
<glyph unicode="R" horiz-adv-x="798" d="M76 0l209 989h301q61 0 110 -17.5t82 -51.5q32 -34 46 -84q6 -24 7 -51q0 -30 -8 -64q-23 -109 -103.5 -168t-184.5 -82q43 -16 66.5 -64.5t43.5 -97.5l131 -309h-117l-120 285q-12 31 -25.5 58.5t-32 47t-43 30.5t-61.5 11h-107l-90 -432h-104zM289 516h164 q92 0 167.5 51t98.5 154q5 23 5 43q0 55 -35 92q-46 49 -139 49h-7l-172 -2z" />
<glyph unicode="S" horiz-adv-x="788" d="M86 57l20 86q37 -23 82 -41q39 -16 89.5 -27.5t109.5 -11.5q117 0 187.5 59.5t91.5 156.5q5 23 5 43q-1 42 -21 70q-30 42 -84 68.5t-118.5 46t-116.5 50.5t-82 80q-18 30 -18 73q0 27 7 60q12 59 51 104.5t91 75t111.5 45t116.5 15.5q70 0 119 -10.5t82 -20.5 q37 -12 63 -29l-18 -84q-25 16 -61 29q-33 10 -82 19.5t-121 9.5q-35 0 -76 -11.5t-76 -31t-61.5 -48t-34.5 -63.5q-3 -17 -3 -32q1 -39 23 -63q32 -34 86 -58.5t118.5 -46t115.5 -56.5q50 -35 78 -90q17 -33 18 -79q0 -30 -8 -66q-12 -57 -37.5 -110.5t-73 -95.5 t-121 -66.5t-180.5 -24.5q-72 0 -122 11t-84 25q-39 16 -66 39z" />
<glyph unicode="T" horiz-adv-x="696" d="M205 903l18 86h668l-19 -86h-276l-190 -903h-105l191 903h-287z" />
<glyph unicode="U" horiz-adv-x="890" d="M154 373l131 616h104l-129 -608q-15 -71 -15 -126q0 -66 21 -110q39 -82 180 -82t225.5 77t116.5 229l132 620h104l-127 -602q-43 -207 -158.5 -306t-308.5 -99q-184 0 -252 95q-41 58 -41 156q0 62 17 140z" />
<glyph unicode="V" horiz-adv-x="870" d="M223 989h105l127 -874l499 874h103l-572 -989h-108z" />
<glyph unicode="W" horiz-adv-x="1300" d="M223 989h105l53 -880l453 880h67l33 -883l452 883h103l-510 -989h-129l-23 815l-403 -815h-129z" />
<glyph unicode="X" horiz-adv-x="808" d="M14 0l426 494l-196 495h121l153 -409l348 409h121l-426 -495l217 -494h-121l-174 408l-348 -408h-121z" />
<glyph unicode="Y" horiz-adv-x="768" d="M223 989h103l139 -528l385 528h102l-456 -629l-76 -360h-105l76 352z" />
<glyph unicode="Z" horiz-adv-x="768" d="M14 0l4 18l768 885h-540l18 86h699l-7 -20l-768 -885h560q-4 -23 -7.5 -42t-7.5 -42h-719z" />
<glyph unicode="[" horiz-adv-x="382" d="M14 -287l285 1346h293l-17 -82h-200l-252 -1182h201l-17 -82h-293z" />
<glyph unicode="\" horiz-adv-x="454" d="M272 1219h95l67 -1219h-94z" />
<glyph unicode="]" horiz-adv-x="382" d="M-43 -287l16 82h197l252 1182h-201l17 82h292l-284 -1346h-289z" />
<glyph unicode="^" horiz-adv-x="907" d="M160 395l471 666h41l231 -666h-94l-186 529l-369 -529h-94z" />
<glyph unicode="_" horiz-adv-x="747" d="M53 -100l19 88h596l-19 -88h-596z" />
<glyph unicode="`" horiz-adv-x="415" d="M311 1112h99l100 -211h-78z" />
<glyph unicode="a" horiz-adv-x="706" d="M108 95q-4 15 -4 32q0 27 9 59q18 68 55 110t81 64.5t91 30.5t86 8q53 0 91 5.5t63 11.5q29 8 47 16q9 43 9 78q0 59 -26 92q-42 53 -135 53q-63 0 -110.5 -20.5t-79.5 -42.5q-37 -29 -64 -64l-18 80q27 35 67 62q35 23 89.5 42t129.5 19q49 0 99.5 -13t86.5 -44t52 -83 q8 -26 8 -58t-8 -70l-98 -463h-94l16 82q-35 -33 -97.5 -67.5t-140.5 -34.5q-53 0 -97 12t-71 38.5t-37 64.5zM207 124q8 -26 27.5 -41t47 -22.5t60.5 -7.5t66.5 10.5t64.5 26.5t55.5 35.5t40.5 36.5l41 190q-31 -8 -63 -16q-29 -6 -60.5 -11.5t-62.5 -5.5q-35 0 -70 -8 t-65.5 -24.5t-53 -41t-28.5 -59.5q-4 -18 -4 -33.5t4 -28.5z" />
<glyph unicode="b" horiz-adv-x="808" d="M76 0l221 1049h94l-90 -422q33 29 76 51q37 20 88 36.5t113 16.5q53 0 108 -21.5t96 -65.5q42 -44 60 -112q9 -34 8 -74q0 -39 -8 -85q-23 -102 -68 -174t-103.5 -118t-124 -67.5t-126.5 -21.5t-105.5 15.5t-72.5 35.5q-33 23 -54 51l-18 -94h-94zM205 172q25 -33 61 -55 q29 -20 73 -37t101 -17q37 0 83 16.5t90 53.5t80 96.5t55 143.5q7 36 7 68q1 28 -5 53q-12 53 -40 88.5t-66 55t-77 19.5q-59 0 -109 -17t-89 -38q-45 -23 -84 -53z" />
<glyph unicode="c" horiz-adv-x="604" d="M117 340q18 88 61 160.5t102.5 124t132 79t154.5 27.5q37 0 68 -7t53 -15q25 -10 45 -23l-49 -74q-14 12 -35 23q-16 8 -40.5 15t-57.5 7q-53 0 -106.5 -20.5t-99.5 -60t-82 -99t-52 -137.5q-9 -42 -9 -77q0 -26 5 -49q12 -52 43 -86t76 -49.5t98 -15.5q33 0 60.5 6.5 t47.5 16.5q23 10 43 25l19 -76q-25 -14 -55 -23q-27 -8 -64 -14t-80 -6q-161 0 -237 91q-52 62 -52 160q0 45 11 97z" />
<glyph unicode="d" horiz-adv-x="808" d="M116 196q-6 29 -7 63q0 51 14 114q20 94 68.5 162.5t108.5 111.5t126 63.5t119 20.5q61 0 103 -16.5t71 -36.5q31 -23 51 -51l90 422h94l-221 -1049h-94l18 94q-35 -29 -75 -51q-35 -20 -85.5 -35.5t-111.5 -15.5t-118.5 20.5t-96 66t-54.5 117.5zM210 226q11 -60 40 -96 t68.5 -51.5t78.5 -15.5q53 0 103.5 16.5t89.5 37.5q45 23 86 55l80 377q-27 31 -62 53q-31 20 -73.5 37.5t-96.5 17.5q-39 0 -86 -18t-91 -54t-80 -89.5t-50 -122.5q-11 -55 -11 -98q0 -26 4 -49z" />
<glyph unicode="e" horiz-adv-x="704" d="M106 184q-4 22 -3 49q0 51 14 115q18 84 57 154.5t93.5 121t119 79t131.5 28.5q136 0 200 -89q39 -54 39 -139q0 -54 -16 -120l-10 -43h-522q-10 -47 -10 -86q0 -22 3 -40q9 -52 34.5 -86t67.5 -49.5t91 -15.5q55 0 94 10.5t64 24.5q29 16 47 37l18 -80q-29 -18 -65 -32 q-31 -12 -74 -21.5t-96 -9.5q-76 0 -134.5 19.5t-95.5 62t-47 110.5zM223 414h426q8 43 8 78q0 62 -25 102q-40 63 -130 63q-86 0 -162 -66.5t-117 -176.5z" />
<glyph unicode="f" horiz-adv-x="460" d="M145 627l17 73h133l24 119q25 121 86.5 185.5t155.5 64.5q35 0 57.5 -1t32.5 -3q12 -2 19 -2l-15 -72q-4 0 -12 2q-8 0 -21.5 1t-35.5 1q-76 0 -115 -44t-57 -132l-25 -119h205l-16 -73h-205l-131 -627h-95l132 627h-134z" />
<glyph unicode="g" horiz-adv-x="808" d="M55 -291l51 76q16 -20 41 -35q23 -12 59 -22.5t89 -10.5q147 0 230 68t112 211l20 98q-35 -29 -75 -51q-37 -20 -87.5 -35.5t-111.5 -15.5q-51 0 -106.5 19.5t-97.5 62.5t-63 110q-10 34 -10 74q0 41 11 90q23 104 68.5 177t104 119t124 66.5t127.5 20.5q61 0 104 -16.5 t72 -36.5q33 -23 53 -51l21 94h94l-150 -707q-41 -197 -150.5 -283.5t-305.5 -86.5q-61 0 -103.5 10t-69.5 22q-31 14 -51 33zM210 225q13 -53 42 -89t68.5 -54.5t78.5 -18.5q53 0 103.5 16.5t89.5 37.5q45 23 84 55l80 379q-27 31 -62 53q-29 20 -71.5 37.5t-96.5 17.5 q-39 0 -86 -15t-91 -52t-82 -96.5t-56 -147.5q-7 -36 -7 -68q0 -29 6 -55z" />
<glyph unicode="h" horiz-adv-x="747" d="M76 0l221 1049h94l-94 -443q29 35 65 62q33 23 80 43t111 20q74 0 122 -19.5t73 -55.5q24 -36 29 -84q1 -14 1 -29q0 -36 -8 -74l-98 -469h-94l100 475q4 20 4 38q0 53 -35 88q-47 46 -125 46q-57 0 -102 -19.5t-76 -41.5q-37 -27 -63 -62l-111 -524h-94z" />
<glyph unicode="i" horiz-adv-x="245" d="M76 0l151 721h95l-152 -721h-94zM252 838l20 92h93l-19 -92h-94z" />
<glyph unicode="j" horiz-adv-x="245" d="M-279 -334l52 78q10 -8 20 -14q10 -4 22.5 -8.5t26.5 -4.5q88 0 144.5 69t83.5 196l157 739h95l-152 -717q-37 -176 -127 -268t-215 -92q-57 0 -84 10q-14 6 -23 12zM254 838l18 92h93l-19 -92h-92z" />
<glyph unicode="k" horiz-adv-x="655" d="M76 0l221 1049h94l-160 -754l408 403h104l-229 -225l121 -473h-88l-103 403l-241 -241l-33 -162h-94z" />
<glyph unicode="l" horiz-adv-x="245" d="M76 0l221 1049h94l-221 -1049h-94z" />
<glyph unicode="m" horiz-adv-x="1249" d="M76 0l151 721h95l-25 -115q2 2 19.5 21.5t50 43t79 42t105.5 18.5q104 0 155.5 -34.5t65.5 -98.5q10 12 36 33.5t62.5 44t83.5 39t101 16.5q74 0 122 -19.5t73 -53.5q26 -36 30 -84q1 -12 1 -24q0 -38 -9 -81l-98 -469h-95l101 475q4 21 4 39q0 56 -36 89q-48 44 -126 44 q-57 0 -101 -19.5t-75 -41.5q-37 -27 -64 -62l-110 -524h-94l100 475q4 20 4 38q0 53 -35 88q-47 46 -125 46q-59 0 -103 -19.5t-75 -41.5q-37 -27 -63 -62l-111 -524h-94z" />
<glyph unicode="n" horiz-adv-x="747" d="M76 0l151 721h95l-25 -115q29 35 65 62q33 23 79 43t108 20q76 0 125 -19.5t74 -53.5q26 -36 30 -84q1 -12 1 -24q0 -38 -9 -81l-98 -469h-94l100 475q4 21 4 40q0 55 -35 88q-47 44 -129 44q-57 0 -100 -19.5t-74 -41.5q-37 -27 -63 -62l-111 -524h-94z" />
<glyph unicode="o" horiz-adv-x="786" d="M119 350q39 186 154.5 283.5t281.5 97.5q155 0 227 -95q48 -63 47 -160q0 -50 -12 -109q-39 -186 -153.5 -280.5t-280.5 -94.5q-153 0 -227 92q-49 61 -49 159q0 49 12 107zM213 350q-11 -51 -11 -94q0 -74 34 -120q54 -73 163 -73q117 0 204 76t120 228q10 50 10 92 q-1 75 -33 123q-52 76 -159 75q-117 0 -206 -76.5t-122 -230.5z" />
<glyph unicode="p" horiz-adv-x="808" d="M4 -326l223 1047h95l-21 -94q31 29 74 51q35 20 87 36.5t118 16.5q57 0 113.5 -20.5t95 -66.5t53.5 -118q7 -30 7 -66q0 -50 -13 -112q-20 -96 -68.5 -163.5t-108 -110.5t-125 -62.5t-118.5 -19.5q-61 0 -104.5 15.5t-71.5 35.5q-33 23 -52 51l-90 -420h-94zM205 172 q25 -31 59 -53q29 -20 73 -36.5t99 -16.5q43 0 91 19t91.5 56t76 89.5t46.5 117.5q10 52 10 95q0 24 -3 45q-9 59 -35.5 97t-65.5 55t-80 17q-59 0 -109 -16t-89 -37q-45 -23 -84 -53z" />
<glyph unicode="q" horiz-adv-x="808" d="M116 184q-10 34 -10 74q0 41 11 90q23 104 69.5 177t106 119t126 66.5t128.5 20.5q61 0 103 -16.5t69 -36.5q31 -23 51 -51l21 94h94l-223 -1047h-95l90 420q-35 -29 -75 -51q-37 -20 -87.5 -35.5t-111.5 -15.5q-51 0 -106.5 19.5t-97.5 62.5t-63 110zM209 230 q12 -52 39.5 -89t66.5 -56t82 -19q55 0 105.5 16t89.5 37q45 23 84 53l80 379q-25 31 -60 53q-29 20 -72.5 36.5t-101.5 16.5q-43 0 -91 -17t-91 -55t-78 -96.5t-51 -140.5q-8 -36 -8 -67q0 -27 6 -51z" />
<glyph unicode="r" horiz-adv-x="444" d="M76 0l151 721h95l-39 -189q33 55 69 99q33 37 76 68.5t94 31.5q20 0 41 -4q8 -2 19 -2l-19 -88q-10 2 -18 4q-20 4 -43 4q-37 0 -80 -32.5t-78 -71.5q-41 -47 -82 -105l-92 -436h-94z" />
<glyph unicode="s" horiz-adv-x="624" d="M80 27l16 73q18 -14 47 -24q23 -10 59 -16.5t83 -6.5q84 0 139 35t72 109q4 20 4 36q0 29 -14 49q-22 30 -59.5 48t-84.5 30.5t-85 33.5q-37 20 -59 54q-13 20 -14 51q0 20 6 46q8 39 37 75.5t68 63.5t85 43t89 16q51 0 86 -7t57 -17q25 -10 41 -23l-16 -75 q-16 12 -41 22q-23 10 -57.5 17.5t-85.5 7.5q-27 0 -54.5 -9.5t-51 -26t-40 -39t-22.5 -48.5q-3 -13 -3 -25q0 -28 16 -44q24 -24 62.5 -37t86 -25.5t83.5 -35.5q36 -24 56 -66q11 -23 11 -55q0 -27 -7 -60q-8 -39 -30.5 -78t-62.5 -70t-97.5 -49t-135.5 -18q-47 0 -82 6 t-57 16q-27 8 -45 23z" />
<glyph unicode="t" horiz-adv-x="460" d="M145 627l17 73h133l74 349h94l-74 -349h205l-16 -73h-205l-82 -387q-9 -42 -9 -74q0 -34 11 -58q20 -44 96 -45q45 0 55 3q8 0 15 2l-15 -70q-6 -2 -20 -4q-12 -2 -35.5 -2h-58.5q-98 0 -129 64q-17 34 -17 86q0 44 13 100l82 385h-134z" />
<glyph unicode="u" horiz-adv-x="747" d="M119 146q-1 12 -1 25q0 38 9 81l100 469h95l-103 -479q-4 -19 -4 -37q0 -50 33 -85q45 -48 131 -48q59 0 103 19.5t75 41.5q37 27 61 62l111 526h94l-153 -721h-92l22 115q-29 -37 -68 -64q-35 -23 -83 -42t-107 -19q-74 0 -122 19.5t-72.5 54t-28.5 82.5z" />
<glyph unicode="v" horiz-adv-x="686" d="M170 721h111l88 -617l348 617h96l-403 -721h-123z" />
<glyph unicode="w" horiz-adv-x="1044" d="M166 721h110l29 -617l338 617h68l53 -617l309 617h103l-371 -721h-109l-47 588l-315 -588h-119z" />
<glyph unicode="x" horiz-adv-x="624" d="M14 0l316 360l-164 361h100l129 -285l250 285h100l-317 -371l166 -350h-100l-134 274l-245 -274h-101z" />
<glyph unicode="y" horiz-adv-x="735" d="M-55 -332l51 78q8 -8 18 -14q20 -14 49 -15q45 0 83 17.5t73 75.5l117 184l-160 727h103l135 -600l348 600h102l-524 -871q-35 -55 -63.5 -95t-61.5 -64.5t-74 -35.5t-98 -11q-27 0 -45 4t-31 8q-14 6 -22 12z" />
<glyph unicode="z" horiz-adv-x="661" d="M76 0l4 20l559 627h-389l16 74h533q-2 -6 -3 -13.5t-3 -13.5l-555 -620h417l-14 -74h-565z" />
<glyph unicode="{" horiz-adv-x="409" d="M111 315l14 72q129 12 166 180l51 240q29 131 99.5 189.5t176.5 62.5l-16 -82q-68 -4 -107.5 -50t-56.5 -124l-53 -246q-16 -82 -55 -136t-115 -75q66 -16 81 -70.5t-1 -140.5l-49 -235q-18 -88 -5 -131t95 -43l-19 -82q-111 0 -155.5 57t-16.5 184l54 244 q37 170 -88 186z" />
<glyph unicode="|" horiz-adv-x="247" d="M20 -256l302 1417h96l-301 -1417h-97z" />
<glyph unicode="}" horiz-adv-x="409" d="M-59 -356l18 82q78 0 109.5 43t50.5 131l49 235q16 86 57 140.5t113 70.5q-66 20 -81 74.5t1 136.5l53 246q16 78 -4 124t-86 50l17 82q104 -4 151 -62.5t19 -189.5l-52 -240q-37 -168 88 -180l-14 -72q-127 -16 -166 -186l-53 -244q-29 -127 -95.5 -184t-174.5 -57z" />
<glyph unicode="~" horiz-adv-x="745" d="M147 338q16 84 71.5 131t131.5 47q37 0 64.5 -17.5t55.5 -38t58.5 -37.5t71.5 -17q33 0 63.5 28.5t47.5 81.5h67q-25 -98 -79 -138t-126 -40q-37 0 -66.5 17.5t-57 37t-56 36.5t-61.5 17q-47 0 -78 -26.5t-41 -81.5h-66z" />
<glyph unicode="&#xa9;" horiz-adv-x="1327" d="M76 496q0 125 47 233.5t128 189t189.5 127t233.5 46.5t233.5 -46.5t189.5 -127t127 -189t46 -233.5t-46 -233.5t-127 -188.5t-189.5 -126t-233.5 -46t-233.5 46t-189.5 126t-128 188.5t-47 233.5zM129 496q0 -113 43 -211.5t116.5 -171t173 -114.5t212.5 -42t211 42 t171.5 114.5t115.5 171t42 211.5t-42 212t-115.5 172.5t-172 115.5t-210.5 42q-113 0 -212.5 -42t-173 -115.5t-116.5 -172.5t-43 -212zM350 485q0 176 100.5 276.5t266.5 100.5q47 0 96 -6t86 -20l-22 -50q-37 16 -78 21.5t-82 5.5q-135 0 -217 -89t-82 -239 q0 -154 82 -236.5t217 -82.5q53 0 86 9t74 32l22 -55q-41 -23 -89 -30t-103 -7q-162 0 -259.5 98t-97.5 272z" />
<glyph unicode="&#xad;" horiz-adv-x="532" d="M158 389l18 88h381l-18 -88h-381z" />
<glyph unicode="&#xae;" horiz-adv-x="1345" d="M76 496q0 125 47 233.5t128 189t189.5 127t233.5 46.5t233.5 -46.5t189.5 -127t127 -189t46 -233.5t-46 -233.5t-127 -188.5t-189.5 -126t-233.5 -46t-233.5 46t-189.5 126t-128 188.5t-47 233.5zM129 496q0 -113 43 -211.5t116.5 -171t173 -114.5t212.5 -42t211 42 t171.5 114.5t115.5 171t42 211.5t-42 212t-115.5 172.5t-172 115.5t-210.5 42q-113 0 -212.5 -42t-173 -115.5t-116.5 -172.5t-43 -212zM469 145v727h219q90 0 151.5 -49t61.5 -143q0 -49 -14.5 -84t-39 -58.5t-57 -37t-67.5 -19.5q37 -20 66.5 -54t46.5 -60l143 -222h-80 l-121 201q-35 55 -81 88t-74 33h-88v-322h-66zM535 518h112q37 0 71 10.5t59.5 31t42 50t16.5 70.5q0 61 -44 100t-122 39h-135v-301z" />
<glyph unicode="&#xbc;" horiz-adv-x="1396" d="M315 1063l11 49q27 10 51 24.5t45 28.5q23 16 43 35h59l-114 -545h-58l99 469q-20 -12 -59.5 -32.5t-76.5 -28.5zM324 0l991 1219h96l-993 -1219h-94zM1016 176l10 51l326 359h59l-76 -363h70l-10 -47h-70l-29 -135h-57l29 135h-252zM1083 223h195l59 283z" />
<glyph unicode="&#xbd;" horiz-adv-x="1423" d="M315 1063l11 49q27 10 51 24.5t45 28.5q23 16 43 35h59l-114 -545h-58l99 469q-20 -12 -59.5 -32.5t-76.5 -28.5zM324 0l991 1219h96l-993 -1219h-94zM1032 41l10 47q10 49 60.5 93t109 87t109.5 88.5t61 98.5q12 55 -10 79.5t-69 24.5q-35 0 -76 -10t-72 -37l10 47 q29 25 67 36t81 11q70 0 107.5 -37t21.5 -108q-12 -61 -63.5 -111.5t-110 -94.5t-108.5 -85t-60 -82h286l-10 -47h-344z" />
<glyph unicode="&#xbe;" horiz-adv-x="1394" d="M221 686l10 51q23 -23 51.5 -30t65.5 -7q59 0 103.5 27t54.5 80q12 57 -27 87t-151 30l8 41q51 2 94 14q37 10 68.5 31.5t42.5 62.5q10 53 -10.5 77t-61.5 24q-27 0 -62.5 -7.5t-66.5 -25.5l10 47q31 16 59.5 23.5t67.5 7.5q66 0 99.5 -37t23.5 -90q-20 -106 -135 -144 q51 -10 79.5 -47t18.5 -90q-16 -78 -79.5 -117t-145.5 -39q-39 0 -66.5 8.5t-50.5 22.5zM324 0l991 1219h96l-993 -1219h-94zM1014 176l10 51l326 359h59l-76 -363h70l-10 -47h-70l-29 -135h-57l29 135h-252zM1081 223h195l59 283z" />
<glyph unicode="&#xe01;" horiz-adv-x="860" d="M125 0l86 401q8 39 21.5 69t25.5 52q14 25 31 43l-51 51q-20 18 -37 34t-15 18q43 59 103 108q51 41 123.5 75t167.5 34q66 0 131 -14.5t115.5 -48.5t76 -87t8.5 -129l-104 -491q-6 -29 -22.5 -48.5t-32.5 -35.5q-20 -18 -43 -31h-31l121 565q14 74 -2.5 119t-53 71.5 t-86 36t-98.5 9.5q-59 0 -109.5 -21.5t-87.5 -46.5q-43 -29 -77 -65l100 -103q-12 -12 -25 -35q-10 -18 -21 -47.5t-22 -76.5l-86 -406h-106z" />
<glyph unicode="&#xe02;" horiz-adv-x="716" d="M153 163q-1 54 11 116l16 81q12 57 30.5 96.5t40 66t45 46t42.5 37.5q16 16 34.5 41t22.5 41q8 35 -4 63.5t-61 28.5h-121l18 84h121q80 0 126 -42t26 -134q-10 -51 -46 -91t-73 -71q-18 -16 -48 -56t-46 -110l-19 -81q-8 -39 -10 -77t8 -69t39 -50.5t82 -19.5 q49 0 85 20.5t60.5 53.5t40 70t21.5 72l125 585h104l-125 -585q-12 -61 -36.5 -115.5t-63.5 -94.5t-94 -63.5t-129 -23.5q-80 0 -128 23.5t-70.5 63.5t-23.5 94z" />
<glyph unicode="&#xe03;" horiz-adv-x="716" d="M151 163q-1 54 13 116l22 102q14 61 54.5 120.5t97.5 104.5q10 8 22.5 15.5t23.5 18.5t20.5 27.5t15.5 43.5q8 33 -8.5 49t-38.5 20q-12 2 -28.5 -8t-33.5 -20q-18 -14 -37 -31q-10 16 -20 31q-10 10 -22.5 20t-22.5 10l18 82q14 0 28.5 -8t25.5 -18q12 -12 24 -27 q16 14 37 27q16 10 36.5 18t41.5 8q66 0 93.5 -42t10.5 -113q-14 -61 -48 -97.5t-70 -66.5q-20 -16 -60.5 -59.5t-54.5 -104.5l-23 -102q-8 -39 -10 -77t8 -69t38 -50.5t81 -19.5q49 0 86 21.5t62.5 55.5t41 72t21.5 73l123 579h104l-121 -571q-14 -68 -38.5 -124t-64.5 -98 t-97.5 -65.5t-134.5 -23.5q-78 0 -124 23.5t-68.5 63.5t-23.5 94z" />
<glyph unicode="&#xe04;" horiz-adv-x="870" d="M76 0l127 606q14 70 56 122t100.5 87t127 52.5t136.5 17.5t128 -17.5t103 -53.5t62.5 -88t5.5 -120l-127 -606h-105l127 606q10 51 -4 88t-45 60.5t-75 35t-89 11.5q-47 0 -95 -11.5t-89 -36t-72 -61.5t-41 -86l-55 -258q37 35 78 64q35 23 81 43t95 20l-23 -104 q-47 0 -91 -17.5t-79 -38.5q-41 -23 -77 -53l-56 -262h-104z" />
<glyph unicode="&#xe05;" horiz-adv-x="870" d="M76 0l127 606q12 53 39.5 104.5t68.5 90.5t91.5 62.5t105.5 23.5q23 0 39 -15.5t28 -33.5q14 -23 27 -47q23 25 45 47q20 18 44 33.5t46 15.5q53 0 93 -23.5t65 -62.5t32 -90.5t-5 -104.5l-127 -606h-105l127 606q6 31 5 65t-11 63.5t-30.5 48t-55.5 18.5 q-16 0 -41 -18.5t-47 -41.5q-27 -27 -57 -59q-18 33 -35 59q-16 23 -31.5 41.5t-32.5 18.5q-35 0 -63.5 -18.5t-51 -48t-38 -63.5t-21.5 -65l-53 -258q37 35 78 64q35 23 80 43t94 20l-23 -104q-47 0 -91 -17.5t-79 -38.5q-41 -23 -77 -53l-56 -262h-104z" />
<glyph unicode="&#xe06;" horiz-adv-x="880" d="M106 0l82 393q14 74 48 111t71 63.5t69 56t44 87.5q8 35 -11.5 51t-41.5 16q-12 0 -27.5 -9t-30.5 -19q-16 -12 -35 -29q-10 16 -18 31q-10 10 -20.5 20t-26.5 10l18 82q12 0 26.5 -8t25.5 -18l26 -27q16 14 37 27q16 10 36.5 18t41.5 8q59 2 90 -38t14 -117 q-14 -70 -48 -109t-71.5 -69.5t-69.5 -62.5t-44 -85l-39 -184q25 -33 59 -58q29 -23 72 -40t96 -17q137 0 201.5 66.5t91.5 189.5l111 524h104l-125 -590q-10 -49 -39.5 -100t-75 -94t-103.5 -70.5t-128 -27.5q-78 0 -131 20.5t-88 44.5q-39 29 -64 68l-22 -115h-105z" />
<glyph unicode="&#xe07;" horiz-adv-x="727" d="M166 578h104l19 -494q61 0 121.5 25.5t111.5 71.5t89 109.5t55 141.5q16 76 4.5 140.5t-44 110.5t-82.5 71.5t-112 25.5l19 86q92 0 160.5 -32.5t110.5 -90t55.5 -137.5t-7.5 -174q-23 -100 -75 -180t-120.5 -136.5t-147.5 -86t-155 -29.5h-88z" />
<glyph unicode="&#xe08;" horiz-adv-x="829" d="M197 711q31 49 79 86q41 33 108 60.5t163 27.5q100 0 170.5 -35t112.5 -93.5t54.5 -137t-5.5 -166.5q-20 -96 -64.5 -179.5t-105 -143.5t-136 -95t-161.5 -35h-103l-12 328q-4 16 -12.5 19t-24.5 3h-41l17 84h81q47 0 56.5 -13t15.5 -28l23 -309q76 0 137 33t106 86 t75 118.5t44 131.5q18 88 5 153.5t-49 108.5t-89 64.5t-113 21.5q-76 0 -134 -26.5t-99 -59.5q-49 -37 -86 -86z" />
<glyph unicode="&#xe09;" horiz-adv-x="860" d="M127 391l18 84h70q59 0 77.5 -40t6.5 -99l-12 -57q-10 -47 -13.5 -84t10 -63t46 -40t94.5 -14q53 0 106.5 19.5t96.5 41.5q51 27 96 64l68 321q29 135 -21.5 206t-175.5 71q-61 0 -117.5 -17.5t-97.5 -40.5q-51 -25 -92 -57l-17 84q43 33 97 57q47 23 108.5 40.5 t136.5 17.5q94 0 156.5 -25.5t96.5 -71t41 -108t-7 -135.5l-115 -545h-104l22 115q-47 -39 -100 -68q-47 -25 -108.5 -45t-131.5 -20q-123 0 -165.5 82.5t-10.5 224.5l9 35q2 8 4 19t2 22.5t-4 18.5t-13 7h-57z" />
<glyph unicode="&#xe0a;" horiz-adv-x="768" d="M148.5 153.5q-1.5 51.5 11.5 110.5l20 96q12 57 31.5 96.5t41 66t44 46t41.5 37.5q16 16 34.5 41t22.5 41q8 35 -2 63.5t-57 28.5h-127l18 84h127q76 0 121 -42t25 -134q-10 -51 -46 -92t-75 -72q-18 -16 -51 -57t-45 -107l-21 -104q-6 -35 -8 -68.5t11.5 -61.5t48 -45.5 t100.5 -17.5q51 0 95 26t76.5 63.5t54.5 79.5t28 75q12 53 10 103.5t-19.5 89.5t-52.5 62.5t-86 23.5l19 84q49 0 97 30.5t89 83t71.5 121t47.5 146.5h104q-29 -131 -76 -213t-95 -128t-86 -63.5t-46 -19.5q4 -2 32 -16.5t55.5 -50.5t43 -97.5t-5.5 -155.5 q-12 -55 -38.5 -112.5t-73 -105.5t-111 -77.5t-150.5 -29.5q-92 0 -145 21.5t-77.5 60t-26 90z" />
<glyph unicode="&#xe0b;" horiz-adv-x="768" d="M148.5 153.5q-1.5 51.5 11.5 110.5l26 125q12 59 53.5 116.5t100.5 102.5q18 16 44 37t36 66q8 35 -9.5 49t-41.5 18q-10 0 -25.5 -9t-32.5 -19q-18 -12 -37 -31q-8 16 -18 31q-10 12 -21.5 22t-25.5 10l18 82q14 0 28.5 -8t25.5 -18q12 -12 24 -27q16 14 37 27 q16 10 36.5 18t41.5 8q59 0 90 -39t14 -116q-14 -59 -47 -94t-67 -66q-10 -8 -27.5 -23.5t-36 -37t-35 -49t-22.5 -58.5l-27 -125q-8 -35 -9 -68.5t13.5 -61.5t48 -45.5t99.5 -17.5q49 0 93 26t76.5 63.5t55.5 79.5t29 75q12 53 10 103.5t-19.5 89.5t-52.5 62.5t-86 23.5 l19 84q49 0 97 30.5t89 83t71.5 121t47.5 146.5h104q-29 -131 -77 -213t-96 -128t-86 -63.5t-46 -19.5q4 -2 31.5 -16.5t55.5 -50.5t44.5 -97.5t-4.5 -155.5q-12 -57 -40 -114.5t-74 -104.5t-111.5 -76.5t-151.5 -29.5q-90 0 -142 21.5t-76.5 60t-26 90z" />
<glyph unicode="&#xe0c;" horiz-adv-x="1392" d="M154 135l57 266q8 39 21.5 69t25.5 52q14 25 31 43l-51 51q-20 18 -37 34t-15 18q43 59 103 108q51 41 122.5 75t166.5 34q68 0 134 -14.5t115.5 -48.5t75 -87t8.5 -129l-86 -405q18 -35 49 -60q25 -23 65 -40t93 -17q68 0 111 17.5t69.5 49t42 80t27.5 109.5l113 524 h104l-125 -585q-12 -53 -34.5 -106.5t-59.5 -95.5t-89 -68.5t-122 -26.5q-78 0 -129 20.5t-80 44.5q-37 29 -53 68l-25 -115h-104l121 565q16 74 -2.5 120t-55 71.5t-87 35t-95.5 9.5q-59 0 -107.5 -21.5t-84.5 -46.5q-43 -29 -78 -65l100 -103q-14 -12 -27 -35 q-10 -18 -23 -49.5t-24 -79.5l-59 -276q-4 -16 -5 -27.5t15 -13.5h62l-17 -84h-80q-61 0 -76.5 35t-0.5 100z" />
<glyph unicode="&#xe0d;" horiz-adv-x="1392" d="M154 135l57 266q8 39 21.5 69t25.5 52q14 25 31 43l-51 51q-20 18 -37 34t-15 18q43 59 103 108q51 41 122.5 75t166.5 34q68 0 134 -14.5t115.5 -48.5t75 -87t8.5 -129l-67 -321q-18 -90 7.5 -145.5t131.5 -55.5q59 0 109.5 18.5t85.5 40.5q41 27 75 62l142 659h104 l-166 -770q-16 -70 -56 -134t-97.5 -114.5t-127 -80t-141.5 -29.5q-57 0 -98 14t-70 33q-33 23 -57 49l51 82q18 -27 45 -47q23 -18 60 -32.5t90 -14.5q111 0 189.5 80t111.5 206l2 9q-39 -39 -86 -68q-41 -25 -95.5 -45t-119.5 -20q-78 0 -123 22.5t-65.5 63.5t-19.5 98 t15 127l58 272q14 72 -2.5 118t-53 71.5t-86 36t-98.5 10.5q-59 0 -107.5 -21.5t-84.5 -46.5q-43 -29 -78 -65l100 -103q-14 -12 -27 -35q-10 -18 -23 -49.5t-24 -79.5l-59 -276q-4 -16 -4 -27.5t16 -13.5h60l-17 -84h-73q-53 0 -77 28.5t-7 106.5z" />
<glyph unicode="&#xe0e;" horiz-adv-x="860" d="M-2 -330l12 84q70 0 126.5 15.5t96.5 33.5q47 23 82 50q23 -29 54 -52q27 -20 61.5 -35.5t77.5 -15.5q66 0 97.5 30t45.5 93l148 692q16 74 -2.5 120t-55 71.5t-87 35t-95.5 9.5q-59 0 -109.5 -21.5t-84.5 -46.5q-43 -29 -76 -65l100 -103q-14 -14 -29 -37 q-12 -20 -24 -49.5t-23 -77.5l-57 -266q-16 -72 -48 -103.5t-87 -31.5h-78l18 84h62q16 2 20 13.5t9 27.5l59 276q8 39 21.5 69t25.5 52q14 25 31 43l-51 51q-20 18 -37 34t-15 18q43 59 103 108q51 41 123.5 75t167.5 34q70 0 136 -14.5t115.5 -48.5t73 -87t6.5 -129 l-157 -743q-6 -25 -18.5 -57.5t-39 -62.5t-72.5 -51.5t-120 -21.5q-47 0 -86 15.5t-66 33.5q-33 23 -55 52q-37 -29 -82 -52q-39 -18 -94 -33.5t-123 -15.5z" />
<glyph unicode="&#xe0f;" horiz-adv-x="860" d="M-2 -328l12 82q35 0 74 15.5t74 33.5q39 23 82 52l55 -105l94 100q0 -4 8.5 -19t23.5 -32.5t37.5 -31t55.5 -13.5q37 0 61.5 12.5t40 30t22.5 37t11 35.5l150 696q16 76 -2.5 122t-56.5 71.5t-88 34t-95 8.5q-59 0 -108.5 -21.5t-83.5 -46.5q-41 -29 -76 -65l98 -103 q-14 -14 -27 -37q-10 -20 -23 -49.5t-24 -77.5l-57 -266q-16 -78 -50 -106.5t-89 -28.5h-74l18 84h62q16 2 20 14.5t9 28.5l59 274q8 39 21.5 69t25.5 52q14 25 31 43l-51 51q-20 18 -37 34t-15 18q43 59 103 108q51 41 122.5 75t163.5 34q68 0 134.5 -14.5t117 -48.5 t76 -87t8.5 -129l-153 -719q-4 -23 -15.5 -59.5t-37 -71.5t-70.5 -60.5t-119 -25.5q-33 0 -58.5 14.5t-45.5 32.5q-23 23 -43 50l-93 -107l-57 107q-37 -27 -74 -48q-33 -18 -72.5 -32.5t-74.5 -14.5z" />
<glyph unicode="&#xe10;" horiz-adv-x="829" d="M-23 -428l17 84q49 0 88 15.5t68 33.5q33 23 57 49l49 -102l92 102q0 -2 7 -17.5t22.5 -33.5t39 -32.5t54.5 -14.5q35 0 56.5 11t32.5 26.5t15.5 30t6.5 22.5l20 94h105l-19 -92q0 -4 -8 -31.5t-30.5 -59.5t-63.5 -58.5t-111 -26.5q-47 0 -73.5 14.5t-43.5 32.5 q-18 23 -26 49l-94 -106l-50 108q-23 -27 -53 -49q-27 -18 -65.5 -33.5t-92.5 -15.5zM195 711q31 49 81 86q43 33 109 60.5t164 27.5q88 0 156 -27q20 6 49.5 16.5t57.5 25.5t49.5 35.5t27.5 49.5h104q-10 -41 -32.5 -69.5t-52 -48t-63.5 -32t-65 -20.5q72 -59 96.5 -154.5 t2.5 -207.5q-18 -88 -59.5 -170t-101 -144.5t-137 -100.5t-169.5 -38h-103l-12 332q-4 16 -14.5 17t-26.5 1h-37l17 84h77q47 0 59.5 -13t16.5 -30l25 -307q76 0 136 33t105 86t75 118.5t44 131.5q18 88 4 153.5t-49 109.5t-88 65.5t-111 21.5q-76 0 -135 -29t-100 -63 q-49 -41 -84 -93z" />
<glyph unicode="&#xe11;" horiz-adv-x="880" d="M111 0l43 209q23 111 65.5 195.5t86.5 147t79 106.5t41 75q6 35 -12.5 51.5t-42.5 16.5q-12 0 -27.5 -9.5t-30.5 -19.5q-16 -12 -34 -29q-10 16 -19 31q-8 12 -19.5 22.5t-23.5 10.5l16 82q12 0 26.5 -8.5t25.5 -18.5l26 -26q14 14 35 26q16 10 36.5 18.5t43.5 8.5 q45 0 83 -31t26 -88q29 33 65 57q31 23 71 40.5t87 17.5q51 0 90 -27t61.5 -70t28.5 -96t-6 -106l-125 -586h-102l110 524q27 123 -3 189.5t-97 66.5q-53 0 -105.5 -30.5t-99.5 -78.5t-88 -107.5t-73 -118t-53.5 -108.5t-27.5 -79q0 -8 -2 -14q-4 -12 -6 -19l-47 -225h-102z " />
<glyph unicode="&#xe12;" horiz-adv-x="1392" d="M120 263q-3 83 17 179q27 121 66 206t86 138.5t100 77t107 23.5q14 0 29.5 -15.5t31.5 -33.5q16 -23 35 -47q29 25 55 47q23 18 45.5 33.5t36.5 15.5q53 0 93 -21.5t64.5 -57.5t33 -84t-4.5 -101l-90 -422q18 -35 49 -60q25 -23 65 -40t95 -17q68 0 110 17.5t68.5 49 t43 80t28.5 109.5l111 524h104l-125 -585q-12 -53 -35.5 -106.5t-61.5 -95.5t-90 -68.5t-122 -26.5q-78 0 -128 20.5t-79 44.5q-35 29 -51 68l-23 -115h-104l131 623q14 68 -9.5 123t-86.5 55q-16 0 -41 -18.5t-47 -41.5q-27 -27 -58 -59q-18 33 -34 59q-16 23 -32 41.5 t-32 18.5q-25 0 -56.5 -18.5t-62 -60.5t-60.5 -110.5t-50 -169.5q-18 -84 -19.5 -153.5t17 -119.5t56.5 -78t99 -28q23 0 36 2.5t24 6.5q10 4 16 8l-16 -82q-8 -4 -19 -8q-10 -4 -24.5 -6t-34.5 -2q-84 0 -139.5 35.5t-85 99t-32.5 146.5z" />
<glyph unicode="&#xe13;" horiz-adv-x="1392" d="M153.5 35q-14.5 35 0.5 100l57 266q8 39 21.5 69t25.5 52q14 25 31 43l-51 51q-20 18 -37 34t-15 18q43 59 103 108q51 41 123.5 75t167.5 34q70 0 136 -15.5t115.5 -49.5t73 -87t6.5 -127l-57 -266q-12 -61 -17.5 -109.5t7 -80t47.5 -49t100 -17.5q57 0 105.5 17.5 t83.5 39.5q41 25 73 60l142 663h104l-184 -864h-103l23 115q-35 -39 -84 -68q-41 -25 -100.5 -45t-137.5 -20q-68 0 -107.5 26.5t-59 68.5t-20.5 95t11 107l62 286q14 74 -2.5 119t-53 71.5t-85 36t-97.5 9.5q-59 0 -108.5 -21.5t-85.5 -46.5q-43 -29 -78 -65l100 -103 q-14 -12 -27 -35q-10 -18 -23 -49.5t-24 -79.5l-59 -276q-4 -16 -5 -27.5t15 -13.5h62l-17 -84h-82q-61 0 -75.5 35z" />
<glyph unicode="&#xe14;" horiz-adv-x="860" d="M122 249q-7 85 15 193q27 123 79 207t117.5 136.5t138.5 76t140 23.5q66 0 126.5 -14.5t104.5 -48.5t64.5 -87t3.5 -129l-127 -606h-104l129 612q8 45 -5 80t-44 59.5t-74 37t-92 12.5t-103.5 -22.5t-103.5 -66.5t-88 -112t-57 -158q-18 -82 -19.5 -151.5t17 -119.5 t56.5 -79t99 -29q23 0 36 2.5t24 6.5q10 4 16 8l-16 -84q-6 -4 -17 -8q-18 -6 -59 -6q-74 0 -129 31.5t-88 91t-40 144.5z" />
<glyph unicode="&#xe15;" horiz-adv-x="860" d="M121 260q-4 84 16 182q25 121 64 206t87 138.5t101 77t107 23.5q23 0 41 -15.5t30 -33.5q14 -23 25 -47l47 47q20 18 44 33.5t46 15.5q45 0 84 -21.5t65.5 -57.5t38 -84t-1.5 -101l-131 -623h-104l131 623q6 33 2 64.5t-17.5 57t-34 41t-44.5 15.5q-16 0 -42 -18.5 t-48 -41.5q-27 -27 -58 -59q-18 33 -34 59q-16 23 -32 41.5t-32 18.5q-25 0 -55.5 -18.5t-62 -60.5t-61.5 -109.5t-50 -168.5q-16 -78 -18.5 -146.5t14 -120.5t54.5 -83t103 -31q23 0 36 2.5t24 6.5q10 4 16 8l-16 -82q-8 -4 -19 -8q-10 -4 -23.5 -6t-31.5 -2 q-84 0 -140.5 35.5t-86 97t-33.5 145.5z" />
<glyph unicode="&#xe16;" horiz-adv-x="860" d="M154 135l57 266q8 39 21.5 69t25.5 52q14 25 31 43l-51 51q-20 18 -37 34t-15 18q43 59 103 108q51 41 122.5 75t166.5 34q68 0 134 -14.5t115.5 -48.5t75 -87t8.5 -129l-104 -491q-6 -29 -22.5 -48.5t-32.5 -35.5q-20 -18 -43 -31h-31l121 565q14 74 -3.5 120 t-55.5 71.5t-87 35t-94 9.5q-59 0 -108.5 -21.5t-85.5 -46.5q-43 -29 -80 -65l100 -103q-12 -12 -25 -35q-10 -18 -22 -49.5t-23 -79.5l-59 -276q-4 -16 -4 -27.5t16 -13.5h60l-17 -84h-69q-61 0 -83 30.5t-5 104.5z" />
<glyph unicode="&#xe17;" horiz-adv-x="849" d="M76 0l182 864h104l-24 -114q41 37 94 67q45 25 107.5 46.5t140.5 21.5q70 0 116 -28t72.5 -71t32.5 -96t-4 -104l-123 -586h-104l110 524q29 135 -14 195.5t-166 60.5q-57 0 -106.5 -17.5t-87.5 -39.5q-45 -25 -84 -57l-142 -666h-104z" />
<glyph unicode="&#xe18;" horiz-adv-x="849" d="M144.5 140q-9.5 48 7.5 118q8 35 14 63.5t10 49.5q6 23 8 43h103q-4 -20 -11 -45q-4 -23 -10 -50.5t-12 -60.5q-16 -72 2 -110.5t51 -57t72 -23t67 -4.5q55 0 103.5 15.5t83.5 42t58.5 59.5t29.5 68q14 70 -2.5 111.5t-53 64t-88 32t-105.5 14.5t-105.5 13.5t-89 27.5 t-56 56t-4.5 103q14 70 61.5 112.5t107.5 66t124.5 32t112.5 8.5q57 0 112.5 -12.5t95.5 -28.5q49 -18 93 -39l-17 -82q-45 20 -96 37q-43 14 -97.5 26.5t-109.5 12.5q-31 0 -75 -2t-87 -15.5t-76.5 -40t-43.5 -75.5q-10 -45 10 -68.5t60 -35t92.5 -15.5t106.5 -10 t104 -20.5t85 -46.5t49.5 -86t-4.5 -140q-10 -49 -37.5 -96.5t-75.5 -85t-119 -61t-167 -23.5q-20 0 -52 1t-68 8t-70.5 23.5t-58 47t-33 78.5z" />
<glyph unicode="&#xe19;" horiz-adv-x="849" d="M128 173q-7 52 5 106l127 589h102l-110 -524q-12 -61 -12 -109.5t19.5 -82t61 -51t113.5 -17.5q53 0 103.5 17.5t89.5 39.5q45 25 84 58l141 669h104l-182 -868h-104l22 115q-41 -39 -94 -68q-45 -25 -106.5 -45t-139.5 -20q-70 0 -117 26.5t-73.5 69.5t-33.5 95z" />
<glyph unicode="&#xe1a;" horiz-adv-x="829" d="M129 177q-4 56 8 116l121 571h104l-122 -579q-8 -35 -7.5 -74t16 -72t47.5 -54.5t85 -21.5h86q51 0 93 21.5t73 54.5t49 72t27 74l122 579h105l-121 -571q-12 -59 -42 -115.5t-73 -99.5t-100 -69.5t-125 -26.5h-143q-68 0 -111 26.5t-65.5 69.5t-26.5 99z" />
<glyph unicode="&#xe1b;" horiz-adv-x="829" d="M128 177q-3 56 9 116l121 571h104l-122 -579q-8 -35 -7.5 -74t16 -72t46.5 -54.5t84 -21.5h86q51 0 93 21.5t73 54.5t50 72t28 74l180 845h104l-178 -837q-12 -59 -42 -115.5t-74 -99.5t-100 -69.5t-122 -26.5h-143q-68 0 -112 26.5t-67.5 69.5t-26.5 99z" />
<glyph unicode="&#xe1c;" horiz-adv-x="1005" d="M186.5 424q1.5 119 28.5 242q6 27 16.5 61.5t29 65t48 51t72.5 20.5h78l-19 -82l-53 -2q-18 0 -30.5 -14t-21.5 -32.5t-14.5 -38t-7.5 -31.5q-20 -92 -22 -179.5t2 -156.5q6 -82 20 -154l285 453h47l88 -453q43 57 88 154q39 82 87 213t100 323h104 q-59 -209 -122.5 -368.5t-117.5 -270.5q-63 -129 -122 -225h-72l-94 461l-287 -461h-70q-23 100 -32 211q-10 94 -8.5 213z" />
<glyph unicode="&#xe1d;" horiz-adv-x="1005" d="M186.5 424q1.5 119 28.5 242q6 27 16.5 61.5t29 65t48 51t72.5 20.5h78l-19 -82l-53 -2q-18 0 -30.5 -14t-21.5 -32.5t-14.5 -38t-7.5 -31.5q-20 -92 -21 -179.5t3 -156.5q6 -82 20 -154l283 453h47l88 -453q55 96 115 240q49 123 109.5 305t113.5 436h105 q-59 -279 -133 -492.5t-140 -361.5q-76 -172 -153 -301h-70l-94 463l-287 -463h-72q-23 100 -32 211q-10 94 -8.5 213z" />
<glyph unicode="&#xe1e;" horiz-adv-x="1050" d="M197 864h98l47 -641l330 641h65l58 -641l321 641h96l-428 -864h-57l-59 690l-349 -690h-59z" />
<glyph unicode="&#xe1f;" horiz-adv-x="1132" d="M197 864h98l47 -641l330 641h65l58 -641l467 932h96l-574 -1155h-57l-59 692l-349 -692h-59z" />
<glyph unicode="&#xe20;" horiz-adv-x="860" d="M43 0l16 84h62q16 2 21 13.5t10 27.5l59 276q8 39 21.5 69t25.5 52q14 25 31 43l-51 51q-20 18 -37 34t-15 18q43 59 103 108q51 41 123.5 75t167.5 34q66 0 131 -14.5t115.5 -48.5t76 -87t8.5 -129l-104 -491q-6 -29 -22.5 -48.5t-32.5 -35.5q-20 -18 -43 -31h-31 l121 565q14 74 -3.5 120t-54 71.5t-86 35t-94.5 9.5q-61 0 -111.5 -21.5t-84.5 -46.5q-41 -29 -76 -65l100 -103q-14 -14 -29 -37q-12 -20 -24 -49.5t-23 -77.5l-57 -266q-16 -78 -49 -106.5t-94 -28.5h-70z" />
<glyph unicode="&#xe21;" horiz-adv-x="849" d="M76 0l182 864h104l-139 -657q25 -37 60 -66q29 -25 71.5 -44t98.5 -19q125 0 192.5 62.5t95.5 195.5l111 528h104l-125 -585q-12 -55 -41.5 -108.5t-74.5 -95.5t-103.5 -67.5t-126.5 -25.5q-78 0 -131 20.5t-88 44.5q-39 29 -63 68l-23 -115h-104z" />
<glyph unicode="&#xe22;" horiz-adv-x="798" d="M90 139.5q-6 49.5 6 108.5q16 72 57.5 120t84.5 76q51 33 110 50q-47 10 -82 34q-29 23 -49 61t-6 99q12 57 40 95t62.5 60.5t71.5 32t66 9.5q37 0 61.5 -2t38.5 -6q16 -4 27 -9l-17 -82q-8 2 -24 7q-14 4 -36 6t-55 2q-53 0 -87.5 -36t-43.5 -77q-14 -66 40.5 -108.5 t152.5 -42.5l-19 -84q-66 0 -116.5 -21.5t-86.5 -53.5t-57.5 -68t-27.5 -62q-8 -37 -5 -71t23.5 -59.5t62.5 -40t113 -14.5q68 0 118 21.5t84 54.5t53.5 72t27.5 74l123 579h104l-121 -571q-12 -59 -42.5 -115.5t-81 -99.5t-121 -69.5t-162.5 -26.5q-96 0 -155.5 19 t-92.5 54t-39 84.5z" />
<glyph unicode="&#xe23;" horiz-adv-x="706" d="M86 57l20 90q31 -25 68 -43q33 -16 78 -28.5t98 -12.5t93 15.5t68 42t44 59.5t23 68q14 61 -12.5 93t-73 50.5t-101.5 31.5t-100 38.5t-68.5 73t-5.5 133.5q12 53 45 94t78 68.5t97 41t102 13.5q59 0 101 -12.5t69 -26.5q31 -16 51 -37l-19 -86q-20 20 -51 39 q-27 14 -68.5 26.5t-101.5 12.5q-31 0 -63.5 -8.5t-60 -24.5t-48 -41t-26.5 -57q-14 -59 12 -91t72.5 -51.5t101.5 -34t100 -41t68.5 -73.5t5.5 -131q-10 -49 -31.5 -97.5t-62.5 -86t-104.5 -60t-157.5 -22.5q-59 0 -103.5 11t-75.5 25q-37 16 -61 39z" />
<glyph unicode="&#xe24;" horiz-adv-x="860" d="M154 135l57 266q8 39 21.5 69t25.5 52q14 25 31 43l-51 51q-20 18 -37 34t-15 18q43 59 103 108q49 41 121.5 75t167.5 34q68 0 134 -14.5t115.5 -48.5t75 -87t8.5 -129l-196 -919q-6 -29 -22.5 -48.5t-33.5 -35.5q-20 -18 -43 -31h-30l213 993q14 74 -3.5 119t-54 71.5 t-86 36t-94.5 9.5q-59 0 -109.5 -21.5t-86.5 -46.5q-43 -29 -80 -65l102 -103q-14 -12 -27 -35q-10 -18 -22 -49.5t-23 -79.5l-59 -276q-4 -16 -4 -27.5t16 -13.5h60l-17 -84h-71q-59 0 -81 30.5t-5 104.5z" />
<glyph unicode="&#xe25;" horiz-adv-x="778" d="M90 217q16 76 57 127t96.5 80t120 41t125.5 12q70 0 112 6t67 17q27 10 41 24l10 54q8 41 5 81.5t-21.5 72.5t-53.5 51.5t-92 19.5q-70 0 -129 -27.5t-102 -62.5q-53 -39 -95 -88l-14 86q39 49 92 86q47 33 112.5 60.5t153.5 27.5q160 0 218.5 -85t23.5 -255l-115 -545 h-104l92 436q-18 -14 -49 -22q-27 -10 -69 -16.5t-103 -6.5q-31 0 -74 -9t-84 -28.5t-73.5 -53.5t-42.5 -83q-10 -43 -1 -71.5t30.5 -47t50 -27t59.5 -8.5q47 0 72 7q14 4 24 8l-16 -80q-12 -4 -27 -8q-12 -4 -29.5 -6t-38.5 -2q-279 0 -229 235z" />
<glyph unicode="&#xe26;" horiz-adv-x="860" d="M43 0l16 84h62q16 2 21 13.5t10 27.5l59 276q8 39 21.5 69t25.5 52q14 25 31 43l-51 51q-20 18 -37 34t-15 18q43 59 103 108q51 41 123.5 75t165.5 34q70 0 136 -14.5t115.5 -48.5t74 -87t7.5 -129l-196 -919q-6 -29 -22.5 -48.5t-33.5 -35.5q-20 -18 -43 -31h-30 l213 993q16 76 -2.5 122t-56.5 71.5t-88 34t-95 8.5q-59 0 -108.5 -21.5t-86.5 -46.5q-43 -29 -77 -65l100 -103q-14 -14 -27 -37q-10 -20 -22 -49.5t-23 -77.5l-57 -266q-16 -78 -49 -106.5t-92 -28.5h-72z" />
<glyph unicode="&#xe27;" horiz-adv-x="765" d="M59 74l52 84q18 -27 49 -47q27 -18 68.5 -33t103.5 -15q68 0 128 28t110.5 77t86 116.5t52.5 147.5q33 162 -30 255t-196 93q-61 0 -108 -11t-80 -26q-37 -16 -66 -36l-18 84q23 25 63 47q35 16 91.5 31.5t142.5 15.5q82 0 148.5 -29t109.5 -86t57.5 -142t-10.5 -196 t-75 -195.5t-116.5 -141t-146.5 -85t-162 -28.5q-86 0 -135 14t-76 31q-31 20 -43 47z" />
<glyph unicode="&#xe28;" horiz-adv-x="870" d="M76 0l127 606q14 68 55 120t99.5 87t128 53.5t139.5 18.5q35 0 64.5 -3t58.5 -14q23 8 47 19.5t45.5 25t37 32t21.5 40.5h105q-16 -68 -65.5 -101.5t-102.5 -56.5q51 -35 76.5 -89t9.5 -132l-127 -606h-105l127 606q10 49 -4 86t-45 60.5t-74 36t-88 12.5 q-47 0 -95 -11.5t-90 -35t-73 -60.5t-41 -88l-55 -262q37 37 78 66q35 25 81 45t95 20l-23 -104q-47 0 -91 -17.5t-79 -38.5q-41 -23 -77 -53l-56 -262h-104z" />
<glyph unicode="&#xe29;" horiz-adv-x="829" d="M128 182.5q-3 55.5 9 110.5l121 571h104l-122 -581q-6 -35 -5 -73t15 -71t45 -54.5t84 -21.5h86q51 0 93 21.5t74 54.5t52.5 72t26.5 74l28 147h-184l20 92h185l71 338h105l-72 -338h62l-21 -92h-61l-29 -139q-12 -55 -39.5 -110.5t-72 -99.5t-101.5 -72.5t-127 -28.5 h-143q-70 0 -114 27.5t-65.5 72.5t-24.5 100.5z" />
<glyph unicode="&#xe2a;" horiz-adv-x="778" d="M90 217q16 76 58 127t98.5 80t121 41t126.5 12q70 0 111.5 6t64.5 17q27 10 37 24l12 54q8 41 6 81.5t-20.5 72.5t-55.5 51.5t-94 19.5q-70 0 -129 -27.5t-102 -62.5q-53 -39 -95 -88l-14 86q39 49 92 86q47 33 113.5 60.5t152.5 27.5q25 0 46.5 -2t44.5 -9q47 16 90 44 t51 67h102q-12 -59 -56 -94t-97 -55q55 -43 69.5 -117t-8.5 -174l-115 -545h-104l92 436q-16 -14 -45 -22q-25 -10 -65.5 -16.5t-102.5 -6.5q-31 0 -75 -8t-86 -27.5t-75.5 -53.5t-43.5 -85q-10 -43 -1 -71.5t29.5 -47t49 -27t59.5 -8.5q47 0 71 7q14 4 27 8l-16 -78 q-12 -6 -27 -10q-12 -4 -30.5 -6t-41.5 -2q-274 0 -225 235z" />
<glyph unicode="&#xe2b;" horiz-adv-x="808" d="M76 0l182 864h104l-86 -403l490 403h135l-348 -286q39 -8 87 -28t86 -57.5t56.5 -100t-0.5 -154.5l-49 -238h-104l45 209q18 90 -0.5 149.5t-52 95t-73.5 51t-61 19.5l-239 -200l-68 -324h-104z" />
<glyph unicode="&#xe2c;" horiz-adv-x="1132" d="M197 864h98l47 -645l330 645h65l58 -645l258 518q6 12 10 25.5t8 23.5q8 39 -6 67t-37 46q-25 23 -59 35q72 18 133 49q53 27 99 69t61 103h96q-16 -78 -62.5 -122t-95.5 -66q-57 -27 -125 -35q35 -18 58 -41q20 -20 32.5 -51t-2.5 -72q-2 -12 -12 -35l-367 -733h-61 l-55 688l-346 -688h-62z" />
<glyph unicode="&#xe2d;" horiz-adv-x="849" d="M107.5 167.5q-15.5 61.5 1.5 141.5q14 61 36.5 93t83.5 32h174l-18 -84h-133q-31 -2 -39 -31q-10 -43 -9 -88t23.5 -82.5t69.5 -61.5t129 -24q76 0 136.5 28t105.5 77t75.5 116.5t47.5 147.5q16 78 12 145.5t-29.5 116.5t-73 78t-116.5 29q-86 0 -142.5 -29t-93.5 -63 q-43 -41 -69 -93h-105q31 74 88 134q49 51 131 93t209 42q106 0 172 -41t98.5 -106.5t35.5 -146.5t-13 -159q-25 -119 -75 -204t-115.5 -140t-142.5 -80.5t-152 -25.5q-78 0 -141.5 20.5t-104.5 62t-56.5 103z" />
<glyph unicode="&#xe2e;" horiz-adv-x="849" d="M107.5 167.5q-15.5 61.5 1.5 141.5q14 68 38.5 96.5t81.5 28.5h174l-18 -84h-133q-31 0 -39 -31q-10 -43 -9 -89t23.5 -82.5t69.5 -60.5t129 -24q76 0 136.5 28t105.5 77t75.5 116.5t47.5 147.5q16 78 12 145.5t-29.5 116.5t-73 78t-116.5 29q-86 0 -142.5 -29t-93.5 -63 q-43 -41 -69 -93h-105q31 74 88 134q49 51 131 93t209 42q33 0 59.5 -4t49.5 -11q20 6 46.5 15.5t50 24t41 33t23.5 42.5h97q-16 -72 -67.5 -104.5t-104.5 -51.5q43 -33 67.5 -78.5t35.5 -98t9 -110t-14 -110.5q-25 -119 -75 -204t-115.5 -140t-142.5 -80.5t-152 -25.5 q-78 0 -141.5 20.5t-104.5 62t-56.5 103z" />
<glyph unicode="&#xe2f;" horiz-adv-x="778" d="M227 864h105q4 -86 34.5 -135t116.5 -49q90 0 172 47t123 137h105l-121 -571q-14 -68 -29.5 -121t-42 -92t-68.5 -59.5t-106 -20.5l16 84q20 0 37 4t31 24.5t28.5 64.5t30.5 122l97 455q-33 -43 -76 -78q-37 -29 -91 -54.5t-120 -25.5q-121 0 -184.5 66.5t-57.5 201.5z " />
<glyph unicode="&#xe30;" horiz-adv-x="501" d="M133 279l12 53h97l-17 -78q-6 -27 8.5 -38t67.5 -11h164l-53 -82h-150q-80 0 -115.5 30.5t-13.5 125.5zM223 652.5q-4 29.5 6 76.5l13 53h96l-16 -75q-6 -27 8 -38.5t67 -11.5h162l-49 -82h-150q-39 0 -68.5 6.5t-47 24t-21.5 47z" />
<glyph unicode="&#xe31;" d="M-240 1176l11 53h96l-17 -78q-6 -27 8.5 -38t67.5 -11h355l-52 -84h-340q-86 0 -115.5 34.5t-13.5 123.5z" />
<glyph unicode="&#xe32;" horiz-adv-x="675" d="M199 725l18 84q27 20 64 37q31 14 73.5 26.5t96.5 12.5q55 0 110 -17.5t96 -56.5t60.5 -99.5t1.5 -146.5l-119 -565h-104l114 545q14 68 4 116t-38.5 78.5t-72.5 46t-95 15.5q-39 0 -77 -12.5t-67 -26.5q-35 -16 -65 -37z" />
<glyph unicode="&#xe33;" horiz-adv-x="675" d="M-133 1176q6 31 24.5 59.5t44 49t55 32.5t60.5 12q63 0 100 -45t23 -108q-6 -33 -24.5 -62t-44 -50.5t-55.5 -33.5t-60 -12q-66 0 -101.5 46t-21.5 112zM-49 1174q-8 -29 7 -50.5t44 -21.5t55.5 21.5t32.5 50.5t-11.5 51t-45.5 22q-29 0 -52.5 -22t-29.5 -51zM199 725 l18 84q27 20 64 37q31 14 73.5 26.5t96.5 12.5q55 0 110 -17.5t96 -56.5t60.5 -99.5t1.5 -146.5l-119 -565h-104l114 545q14 68 4 116t-38.5 78.5t-72.5 46t-95 15.5q-39 0 -77 -12.5t-67 -26.5q-35 -16 -65 -37z" />
<glyph unicode="&#xe34;" d="M-451 1018l50 88h514l-19 -88h-545z" />
<glyph unicode="&#xe35;" d="M-451 1018l50 86h411l25 125h104l-45 -211h-545z" />
<glyph unicode="&#xe36;" d="M-451 1018l50 86h274q2 8 1 15t1 16q8 55 52 95t98 40q47 0 78.5 -35t19.5 -90q-10 -51 -52 -89t-96 -38h-426zM-41 1143q-4 -16 5 -28.5t26 -12.5q14 0 29.5 12t19.5 29q4 18 -7.5 31.5t-27.5 13.5q-12 0 -26.5 -13.5t-18.5 -31.5z" />
<glyph unicode="&#xe37;" d="M-451 1018l50 86h251l29 125h90l-28 -125h69l25 125h104l-45 -211h-545z" />
<glyph unicode="&#xe38;" d="M-330 -238l19 86h82q59 0 83.5 -37.5t12.5 -97.5l-31 -137h-104l30 137q4 18 -5 33.5t-29 15.5h-58z" />
<glyph unicode="&#xe39;" d="M-569 -238l18 86h78q66 0 89.5 -38.5t8.5 -104.5q-14 -63 53 -63q68 0 82 63l31 143h105l-31 -143q-6 -29 -18.5 -55.5t-35 -47t-58.5 -32.5t-89 -12q-59 0 -91 13t-45 34.5t-12 50t7 57.5q4 18 -5.5 33.5t-29.5 15.5h-57z" />
<glyph unicode="&#xe3a;" d="M-233 -260l24 108h105l-25 -108h-104z" />
<glyph unicode="&#xe3f;" horiz-adv-x="768" d="M76 0l209 987h196l37 174h98l-36 -174q123 -4 177 -67.5t34 -159.5q-16 -80 -79 -146.5t-149 -89.5q47 -8 86 -28.5t65.5 -51t36 -72.5t-0.5 -93q-12 -61 -48 -111.5t-86.5 -87.5t-114 -57.5t-132.5 -22.5l-35 -170h-98l36 170h-196zM197 84h165q51 0 98.5 14.5t85.5 40 t63.5 61.5t35.5 79q23 98 -37.5 151t-183.5 53h-143zM299 567h131q106 0 171 45t81 127q16 74 -20.5 119t-147.5 45h-143z" />
<glyph unicode="&#xe40;" horiz-adv-x="307" d="M102 135l156 729h104l-157 -739q-4 -16 -4 -27.5t16 -13.5h62l-17 -84h-74q-61 0 -81.5 31.5t-4.5 103.5z" />
<glyph unicode="&#xe41;" horiz-adv-x="655" d="M102 135l156 729h104l-157 -739q-4 -16 -4 -27.5t16 -13.5h62l-17 -84h-69q-61 0 -84 30.5t-7 104.5zM440 135l156 729h104l-157 -739q-4 -16 -4 -27.5t16 -13.5h61l-16 -84h-70q-61 0 -83.5 30.5t-6.5 104.5z" />
<glyph unicode="&#xe42;" horiz-adv-x="415" d="M211 135l147 688q14 63 17.5 111.5t3.5 85.5v66.5t6 58.5q20 92 92 132t223 40h168l-18 -86h-158q-53 0 -90 -4t-59.5 -15.5t-34.5 -28t-19 -40.5q-6 -29 -6 -57.5v-65.5t-3 -85t-17 -112l-150 -698q-4 -16 -4 -27.5t17 -13.5h61l-16 -84h-70q-61 0 -83.5 28.5 t-6.5 106.5z" />
<glyph unicode="&#xe43;" horiz-adv-x="538" d="M264 1247q18 23 47 43q25 16 65 30.5t99 14.5q125 0 177.5 -61.5t23.5 -194.5q-10 -47 -22.5 -74.5t-27 -57t-28.5 -68.5t-29 -107l-137 -649q-4 -16 -4 -27.5t16 -13.5h62l-17 -82h-71q-59 0 -82 28.5t-6 106.5l135 637q12 61 28.5 104.5t32 78t28.5 64.5t19 60 q10 51 5 85t-22 53.5t-45 26.5t-60 7q-41 0 -72 -14t-53 -31q-25 -20 -45 -45z" />
<glyph unicode="&#xe44;" horiz-adv-x="538" d="M260 1231l19 84q35 0 59 -9.5t41.5 -21.5t26 -24.5t12.5 -16.5q16 20 39 37q18 14 44.5 25.5t61.5 11.5q43 0 61.5 -22.5t20.5 -60.5t-7 -89t-22 -109l-194 -911q-4 -16 -4 -27.5t16 -13.5h62l-17 -84h-71q-59 0 -81 28.5t-5 106.5l192 901q4 20 13.5 57t12.5 71 t-5.5 55.5t-38.5 11.5q-18 -6 -35 -21.5t-29 -31.5q-14 -18 -26 -39q-16 25 -39 45q-18 16 -45 31.5t-62 15.5z" />
<glyph unicode="&#xe45;" horiz-adv-x="675" d="M199 725l18 84q27 20 64 37q31 14 71.5 26.5t93.5 12.5q55 0 112.5 -17.5t98.5 -56.5t60.5 -99.5t1.5 -146.5l-187 -878q-6 -29 -22 -48.5t-33 -35.5q-20 -18 -45 -31h-29l207 973q27 131 -34.5 193.5t-167.5 62.5q-39 0 -77 -12.5t-67 -26.5q-35 -16 -65 -37z" />
<glyph unicode="&#xe46;" horiz-adv-x="798" d="M176.5 528.5q-10.5 44.5 5.5 118.5q23 109 89.5 173.5t156.5 64.5q23 0 45.5 -15.5t38.5 -31.5q20 -23 39 -47q29 25 57 47q25 16 53.5 31.5t51.5 15.5q51 0 84.5 -19.5t51 -53.5t19.5 -77t-8 -88l-205 -960q-6 -29 -22.5 -48.5t-32.5 -35.5q-20 -18 -45 -31h-29 l219 1034q8 39 11.5 74t-2.5 61.5t-25.5 43t-54.5 16.5q-16 0 -41 -17.5t-47 -40.5q-27 -25 -58 -57q-16 33 -32 57q-14 23 -32 40.5t-34 17.5q-53 0 -92 -46t-51 -108q-10 -41 -7 -68.5t11 -43.5q8 -20 22 -33l-53 -88q-33 12 -55 43q-18 27 -28.5 71.5z" />
<glyph unicode="&#xe47;" d="M-408 1155q12 53 39 85t60 47.5t62.5 19.5t47.5 4h164q45 0 76 7t49 17q23 10 35 25l-19 -82q-12 -12 -34 -21q-18 -8 -48 -13t-75 -5h-144q-61 0 -87.5 -24.5t-34.5 -59.5q-4 -18 5 -41.5t44 -23.5q29 0 46 9t29 19q12 12 23 31h37q-2 -18 4 -31q4 -10 14.5 -19t30.5 -9 q39 0 56.5 23.5t21.5 35.5h86q-12 -59 -57.5 -95t-100.5 -36q-23 0 -40 5t-29 11q-14 8 -25 19q-14 -10 -35 -19q-16 -6 -40.5 -11t-55.5 -5q-18 0 -40 6t-39 22.5t-25.5 42t-0.5 66.5z" />
<glyph unicode="&#xe48;" d="M35 1018l45 211h104l-45 -211h-104z" />
<glyph unicode="&#xe49;" d="M-297 1143l16 86h129q31 0 51.5 -26.5t14.5 -57.5q-4 -16 5 -28.5t26 -12.5h274l-51 -86h-289q-47 0 -69.5 27.5t-16.5 56.5q6 27 -4 34t-22 7h-64z" />
<glyph unicode="&#xe4a;" d="M-334 1094q10 55 58.5 95t105.5 40q23 0 39 -6t27 -15q10 -8 18 -20q12 12 27 20q12 8 29.5 14.5t39.5 6.5q59 0 82 -33t14 -72q-4 -16 1.5 -18t15.5 -2h96l-51 -86h-84q-57 0 -70.5 22.5t-7.5 53.5q6 29 -2 45t-24 16q-27 0 -45.5 -19.5t-22.5 -41.5h-37q4 20 -2 40.5 t-37 20.5q-16 0 -37.5 -16.5t-27.5 -44.5q-4 -20 -1 -33.5t7 -24.5q6 -10 14 -18h-102q-10 6 -17 16q-14 20 -6 60z" />
<glyph unicode="&#xe4b;" d="M-49 1081l18 86h99l12 62h104l-12 -62h102l-18 -86h-102l-15 -63h-104l14 63h-98z" />
<glyph unicode="&#xe4c;" d="M-139 1018l6 37q12 78 66.5 126t138.5 48h92l-51 -86h-37q-43 0 -68.5 -25.5t-36.5 -64.5l-8 -35h-102z" />
<glyph unicode="&#xe4d;" d="M-133 1176q6 31 24.5 59.5t44 49t55 32.5t60.5 12q63 0 100 -45t23 -108q-6 -33 -24.5 -61t-44 -49.5t-55.5 -33.5t-60 -12q-66 0 -101.5 45t-21.5 111zM-49 1174q-8 -29 7 -50.5t44 -21.5t55.5 21.5t32.5 50.5t-11.5 51t-45.5 22q-29 0 -52.5 -22t-29.5 -51z" />
<glyph unicode="&#xe4e;" d="M-219 1090q12 61 65.5 102t124.5 41q14 66 60.5 97.5t154.5 31.5l-14 -64q-31 0 -56.5 -1t-46 -13t-37 -39.5t-26.5 -81.5q-41 0 -81 -15t-50 -63q-4 -16 -2 -29.5t6 -21.5q6 -10 12 -16h-108q-12 39 -2 72z" />
<glyph unicode="&#xe4f;" horiz-adv-x="911" d="M149.5 212q-14.5 69 2.5 148q16 80 61 150t107.5 122t138 81.5t155.5 29.5t143.5 -29.5t104.5 -81.5t56.5 -122t-3.5 -150q-16 -80 -61 -148.5t-108.5 -119.5t-139.5 -80.5t-155 -29.5q-80 0 -142.5 29.5t-103.5 80.5t-55.5 120zM258 255q12 -50 41 -88t75 -59.5 t101 -21.5q57 0 111.5 21.5t99.5 59.5t77 88t44 105q12 57 1 107.5t-40 87.5t-74 58.5t-102 21.5q-55 0 -110.5 -21.5t-100.5 -58.5t-78 -87t-45 -108q-12 -55 0 -105zM346 360q8 39 30.5 73t53.5 59.5t67.5 40t75.5 14.5q78 0 120 -54.5t26 -132.5q-8 -39 -29.5 -72.5 t-52.5 -59t-68 -40t-75 -14.5q-78 0 -121 54.5t-27 131.5z" />
<glyph unicode="&#xe50;" horiz-adv-x="851" d="M119 211.5q-14 68.5 2 148.5t61 150t107.5 121t137.5 80.5t155 29.5t142 -29.5t103 -80.5t56.5 -121t-0.5 -150t-61.5 -148.5t-108 -119.5t-138 -80.5t-155.5 -29.5t-142.5 29.5t-103.5 80.5t-55 119.5zM222 246q9 -53 39 -93t75 -63.5t102 -23.5t112.5 23.5t101.5 63.5 t80 93t46 114t2 115.5t-38.5 94.5t-74.5 63.5t-104 23.5q-57 0 -111.5 -23.5t-100.5 -63.5t-80 -94.5t-46 -115.5t-3 -114z" />
<glyph unicode="&#xe51;" horiz-adv-x="849" d="M131 320.5q-10 50.5 4 113.5q12 57 50 112.5t95.5 99.5t131 70.5t157.5 26.5q78 0 143.5 -25.5t108.5 -77.5t59.5 -129t-6.5 -181q-18 -84 -69 -159t-126 -130t-165 -88t-184 -33h-10.5t-12.5 2l43 80h8q61 0 127 24.5t124.5 68.5t101.5 104.5t59 130.5q18 84 8 145.5 t-40.5 102t-79 60t-107.5 19.5q-78 0 -134.5 -25.5t-94 -61t-57 -73.5t-25.5 -63q-6 -35 -2 -68.5t16 -59t32.5 -41t45.5 -15.5q51 0 75.5 22.5t32.5 57.5l9 39h104l-6 -37q-4 -27 -19.5 -56.5t-43 -54t-70.5 -41t-101 -16.5q-43 0 -81.5 18.5t-64.5 53t-36 85z" />
<glyph unicode="&#xe52;" horiz-adv-x="1064" d="M226.5 123q-13.5 51 2.5 127l131 616q6 33 8.5 68t-8 64.5t-39 49t-81.5 19.5l18 84h31q76 0 116.5 -28.5t57 -71.5t15.5 -94.5t-11 -96.5l-135 -629q-10 -51 2 -82.5t36.5 -49t55.5 -23.5t53 -6h269q27 0 60.5 6t64 24.5t56 51t38.5 88.5l47 231q6 33 6 64.5t-9.5 56 t-28.5 40t-50 15.5q-23 0 -42.5 -12t-35.5 -29q-18 -18 -35 -41q-6 23 -14 41q-8 16 -21.5 28.5t-35.5 12.5q-47 0 -82 -27.5t-45 -66.5q-10 -47 1 -74.5t33.5 -42t51 -19.5t51.5 -5l-17 -84q-35 0 -80 8t-82.5 32.5t-59 69.5t-5.5 119q6 27 24.5 59.5t47 60.5t66.5 46 t83 18q31 0 51.5 -7t34.5 -17q16 -10 27 -25q12 14 33 25q16 10 40.5 17t55.5 7q51 0 83 -23.5t49 -62.5t18 -87t-9 -97l-47 -221q-16 -76 -50 -127t-77 -83t-91 -45t-91 -13h-326q-45 0 -89 13t-75.5 45t-45 83z" />
<glyph unicode="&#xe53;" horiz-adv-x="1054" d="M112.5 211q-10.5 70 8.5 154q41 190 130 284t204 94q61 0 99 -27.5t58 -62.5q23 -39 33 -88q31 49 70 88q35 35 83 62.5t109 27.5q113 0 166 -92t12 -286q-18 -86 -46.5 -153t-57.5 -114q-33 -55 -70 -98h-106q35 41 69 96q29 47 59 115t48 154q12 57 12 110t-12 93 t-40 64.5t-71 24.5q-59 0 -126.5 -76.5t-100.5 -230.5h-84q29 141 -5 224t-93 83q-68 0 -136.5 -72.5t-99.5 -219.5q-12 -57 -10 -111.5t19.5 -96.5t52.5 -68t88 -26q33 0 57 11q12 4 21 10l-19 -86l-24 -8q-10 -4 -24.5 -6t-31.5 -2q-63 0 -114.5 28.5t-84 79.5t-43 121z " />
<glyph unicode="&#xe54;" horiz-adv-x="1024" d="M108.5 219.5q-4.5 63.5 10.5 130.5q14 70 48 136.5t82 118.5t107.5 84t124.5 32h348q33 0 64 6t58.5 22.5t48 48t30.5 83.5l57 270l105 2l-53 -250q-16 -76 -46 -127t-71 -82.5t-90 -45t-103 -13.5h-370q-43 0 -81 -26.5t-68.5 -67.5t-53.5 -91.5t-33 -99.5 q-10 -47 -10 -94t13.5 -84t39 -60.5t68.5 -23.5l375 -4q-49 31 -84 74q-29 37 -49.5 93t-4.5 132h109q-14 -66 0 -120t43 -94t66.5 -62.5t72.5 -22.5h103l-17 -84h-620q-72 0 -118 29.5t-71.5 78t-30 112z" />
<glyph unicode="&#xe55;" horiz-adv-x="1024" d="M107.5 217.5q-5.5 63.5 11.5 132.5q14 70 48 136.5t82 118.5t107.5 84t124.5 32h105q-6 30 0 67q14 66 69.5 112t120.5 46q66 0 102.5 -46t22.5 -112q-6 -33 -27 -67q47 6 92.5 36.5t61.5 112.5l59 281h105l-55 -250q-16 -76 -45 -127t-68 -81.5t-84 -44t-96 -13.5h-385 q-43 0 -82 -26.5t-70 -67.5t-53.5 -91.5t-32.5 -99.5t-10 -96t13.5 -85t41 -61.5t72.5 -23.5h371q-49 31 -84 74q-29 37 -49.5 93t-4.5 132h109q-14 -66 -1 -120t42 -94t67.5 -62.5t75.5 -22.5h99l-17 -84h-620q-70 0 -117 28.5t-71.5 77t-30 112zM682 791q-6 -27 8.5 -44.5 t40.5 -17.5h6q23 4 43.5 20.5t24.5 41.5q6 25 -8.5 43t-38.5 18q-27 0 -49.5 -18t-26.5 -43z" />
<glyph unicode="&#xe56;" horiz-adv-x="1167" d="M240 1067l18 86h43q98 0 148.5 -53t74 -138t30.5 -189.5t17 -207.5q33 49 80 88q41 33 101.5 60.5t144.5 27.5q88 0 153.5 -27.5t104.5 -75.5t51.5 -114.5t-4.5 -142.5q-18 -84 -59 -157.5t-101.5 -127t-138.5 -84t-168 -30.5q-113 0 -189.5 60t-94.5 165h102 q8 -35 28.5 -61.5t48 -45t60.5 -28t64 -9.5q59 0 114.5 24t101.5 66t79.5 100t48.5 128q12 53 4 103.5t-35 88t-74 61t-112 23.5q-55 0 -101.5 -18t-84.5 -49t-67.5 -72t-47.5 -86h-109q-10 168 -18.5 288t-31 196.5t-64.5 113.5t-117 37z" />
<glyph unicode="&#xe57;" horiz-adv-x="1372" d="M114.5 205.5q-12.5 70.5 6.5 159.5q20 94 55 161.5t78 110.5t90 63.5t88 20.5q59 0 96 -25.5t57.5 -56.5t28 -59.5t9.5 -34.5q2 4 20.5 31.5t52 60.5t81.5 58.5t108 25.5q43 0 81 -19.5t62.5 -62.5t30.5 -110.5t-15 -163.5q-18 -86 -50.5 -160t-63.5 -123q25 2 55.5 12 t60 31.5t54 57.5t37.5 89l131 617q8 39 27.5 85t53 86t86 66.5t128.5 26.5h28l-18 -86q-53 0 -89 -14.5t-58.5 -38t-35 -53t-18.5 -62.5l-131 -616q-16 -76 -51 -129.5t-79 -87t-93 -50t-94 -16.5h-158q35 41 68 96q29 47 58.5 115t47.5 154q12 57 15 107t-7 87t-34.5 57.5 t-67.5 20.5q-29 0 -62.5 -15.5t-65.5 -46t-58.5 -76.5t-38.5 -108h-64q12 53 5 98.5t-25.5 78t-45 51t-55.5 18.5q-68 0 -123 -62.5t-88 -209.5q-12 -57 -10 -111.5t19.5 -96.5t52.5 -68t90 -26q16 0 30.5 2.5t24.5 6.5t21 10l-19 -84q-8 -4 -20 -8q-10 -4 -25.5 -6 t-32.5 -2q-59 0 -110 26.5t-85 76.5t-46.5 120.5z" />
<glyph unicode="&#xe58;" horiz-adv-x="1024" d="M108.5 195.5q-8.5 72.5 12.5 169.5q14 66 49 130t89 114t125 81t157 31h288q33 0 64 6t56.5 22.5t46 48t32.5 83.5l59 270h105l-55 -256q-31 -141 -114 -199.5t-192 -58.5h-315q-53 0 -101 -23.5t-87 -62.5t-65.5 -89t-39.5 -104q-12 -57 -13 -110t12.5 -94t41 -66 t74.5 -25q37 0 67.5 19.5t53.5 44.5q25 27 47 63q12 -37 37 -63q23 -25 58.5 -44.5t92.5 -19.5q25 0 55.5 7.5t58.5 25t50.5 46t30.5 73.5l10 53h105l-13 -53q-16 -66 -47 -111t-74 -72.5t-93 -38.5t-101 -11q-57 0 -94 14t-60 31q-27 20 -41 47q-20 -27 -47 -47 q-23 -16 -56.5 -30.5t-80.5 -14.5q-43 0 -84 23.5t-68.5 70.5t-36 119.5z" />
<glyph unicode="&#xe59;" horiz-adv-x="1249" d="M113.5 205.5q-11.5 70.5 7.5 159.5q20 94 62 164.5t94.5 118.5t108.5 71.5t103 23.5q70 0 107 -27.5t63 -58.5q41 70 93.5 108t111.5 38q45 0 76 -22.5t56.5 -50.5t50 -50.5t59.5 -22.5q51 0 91 69t63 175l53 250h104l-53 -250q-14 -63 -36.5 -122.5t-55.5 -104.5 t-76 -72t-98 -27q-59 0 -94 23t-59.5 49.5t-45 49t-53.5 22.5q-31 0 -56.5 -11.5t-45 -28.5t-32 -37.5t-16.5 -39.5q-4 -14 -2 -20l8 -113q2 -27 4.5 -64.5t6.5 -94t9 -132.5t11 -178h-94l-35 506q-2 20 -8 48t-21.5 51.5t-42 40t-67.5 16.5q-29 0 -63.5 -18.5t-68.5 -56.5 t-63.5 -93.5t-44.5 -128.5q-12 -55 -12 -109.5t15.5 -97.5t48 -69t88.5 -26q31 0 51 9q8 4 16 10l-18 -84q4 2 -14.5 -7t-49.5 -9q-61 0 -111.5 26.5t-82 76.5t-43 120.5z" />
<glyph unicode="&#xe5a;" horiz-adv-x="1024" d="M227 864h105q4 -86 33.5 -135t117.5 -49q90 0 172 47t123 137h105l-121 -571q-16 -74 -33.5 -128t-45.5 -91t-68 -55.5t-99 -18.5l16 84q20 0 37 4t31 24.5t27.5 62.5t29.5 118l99 461q-33 -43 -76 -78q-37 -29 -90 -54.5t-119 -25.5q-123 0 -186.5 66.5t-57.5 201.5z M829 0l183 864h104l-184 -864h-103z" />
<glyph unicode="&#xe5b;" horiz-adv-x="1443" d="M145.5 205.5q-14.5 66.5 1.5 142.5q18 82 59.5 153.5t100 126t130 85t151.5 30.5q113 0 170 -40.5t80 -88.5q27 -57 24 -129h-100q-2 49 -23 86q-18 33 -57 59.5t-113 26.5q-55 0 -107 -25.5t-95 -68.5t-73 -98t-42 -117q-12 -57 -5 -108.5t32.5 -90t68.5 -62.5t103 -24 q53 0 97 15.5t77 34.5q37 23 65 49l84 -103l103 103l71 -103l105 101q14 -27 34 -49q16 -18 38 -33t51 -15q57 0 83.5 32t30.5 50q8 45 -2 74q-6 14 -12 23h106q6 -10 13 -23q4 -10 6 -27.5t-2 -41.5q-4 -14 -14.5 -43t-34 -56.5t-63.5 -48t-101 -20.5q-39 0 -67.5 14 t-47.5 31q-23 20 -37 47l-106 -101l-72 101l-102 -101l-84 101q-31 -27 -68 -47q-33 -16 -76 -30.5t-94 -14.5q-74 0 -134 28.5t-99 78.5t-53.5 116.5z" />
<glyph unicode="&#x2000;" horiz-adv-x="921" />
<glyph unicode="&#x2001;" horiz-adv-x="1843" />
<glyph unicode="&#x2002;" horiz-adv-x="921" />
<glyph unicode="&#x2003;" horiz-adv-x="1843" />
<glyph unicode="&#x2004;" horiz-adv-x="614" />
<glyph unicode="&#x2005;" horiz-adv-x="460" />
<glyph unicode="&#x2006;" horiz-adv-x="307" />
<glyph unicode="&#x2007;" horiz-adv-x="307" />
<glyph unicode="&#x2008;" horiz-adv-x="230" />
<glyph unicode="&#x2009;" horiz-adv-x="368" />
<glyph unicode="&#x200a;" horiz-adv-x="102" />
<glyph unicode="&#x2010;" horiz-adv-x="532" d="M158 389l18 88h381l-18 -88h-381z" />
<glyph unicode="&#x2011;" horiz-adv-x="532" d="M158 389l18 88h381l-18 -88h-381z" />
<glyph unicode="&#x2012;" horiz-adv-x="532" d="M158 389l18 88h381l-18 -88h-381z" />
<glyph unicode="&#x2013;" horiz-adv-x="747" d="M158 389l18 88h596l-18 -88h-596z" />
<glyph unicode="&#x2014;" horiz-adv-x="1136" d="M158 389l18 88h985l-18 -88h-985z" />
<glyph unicode="&#x2018;" horiz-adv-x="256" d="M231 737l25 115q10 43 39 83t61 71q37 37 82 65h78q-37 -39 -70 -76q-29 -33 -53 -70.5t-33 -72.5l-24 -115h-105z" />
<glyph unicode="&#x2019;" horiz-adv-x="256" d="M121 737q39 37 72 74q29 33 52 71t31 72l25 117h105l-25 -117q-10 -45 -39 -84t-61 -67q-37 -35 -82 -66h-78z" />
<glyph unicode="&#x201c;" horiz-adv-x="481" d="M231 737l25 115q10 43 39 83t61 71q37 37 82 65h82q-39 -39 -71 -76q-29 -33 -53.5 -70.5t-33.5 -72.5l-24 -115h-107zM440 737l25 115q10 43 37.5 83t60.5 71q37 37 82 65h82q-37 -39 -70 -76q-29 -33 -53 -70.5t-33 -72.5l-24 -115h-107z" />
<glyph unicode="&#x201d;" horiz-adv-x="481" d="M121 737q39 37 72 74q29 33 52 71t31 72l25 117h107l-25 -117q-10 -45 -40 -84t-60 -67q-37 -35 -80 -66h-82zM328 737q41 37 73 74q29 33 53.5 71t32.5 72l25 117h104l-24 -117q-10 -45 -39 -84t-61 -67q-37 -35 -82 -66h-82z" />
<glyph unicode="&#x2022;" horiz-adv-x="505" d="M167 366.5q-7 32.5 1 69.5t28.5 70t50 57.5t64.5 37.5t72 13q76 0 117 -51t24 -127q-16 -74 -78.5 -126t-138.5 -52q-37 0 -66.5 14.5t-48 38t-25.5 56z" />
<glyph unicode="&#x2026;" horiz-adv-x="1116" d="M76 0l22 109h103l-21 -109h-104zM506 0l22 109h103l-21 -109h-104zM936 0l22 109h103l-21 -109h-104z" />
<glyph unicode="&#x202f;" horiz-adv-x="368" />
<glyph unicode="&#x205f;" horiz-adv-x="460" />
<glyph unicode="&#x20ac;" horiz-adv-x="1013" d="M147 340l19 92h102l13 51q4 16 7 30.5t7 31.5h-105l21 94h119q35 84 91 152.5t129 116.5t158 75t177 27q66 0 138.5 -7.5t117.5 -29.5l-51 -86q-53 29 -104.5 33t-117.5 4q-141 0 -254.5 -76t-179.5 -209h414l-21 -94h-428q-4 -16 -7 -30.5t-7 -31.5q-4 -14 -6 -26.5 t-4 -24.5h387l-19 -92h-374q6 -129 87 -203t228 -74q39 0 68.5 3.5t57.5 10.5t55.5 17t60.5 27l16 -86q-66 -35 -139.5 -44t-149.5 -9q-184 0 -284.5 95t-106.5 263h-115z" />
<glyph unicode="&#x2122;" horiz-adv-x="792" d="M279 963l8 30h235l-6 -30h-96l-66 -314h-41l66 314h-100zM500 649l73 344h54l59 -284l193 284h45l-72 -344h-33l62 291l-195 -291h-20l-68 291l-59 -291h-39z" />
<glyph unicode="&#x25fc;" horiz-adv-x="716" d="M0 0v717h717v-717h-717z" />
<glyph horiz-adv-x="829" d="M195 711q31 49 81 86q43 33 109 60.5t164 27.5q88 0 156 -27q20 6 49.5 16.5t57.5 25.5t49.5 35.5t27.5 49.5h104q-10 -41 -32.5 -69.5t-52 -48t-63.5 -32t-65 -20.5q72 -59 96.5 -154.5t2.5 -207.5q-18 -88 -59.5 -170t-101 -144.5t-137 -100.5t-169.5 -38h-103l-12 332 q-4 16 -14.5 17t-26.5 1h-37l17 84h77q47 0 59.5 -13t16.5 -30l25 -307q76 0 136 33t105 86t75 118.5t44 131.5q18 88 4 153.5t-49 109.5t-88 65.5t-111 21.5q-76 0 -135 -29t-100 -63q-49 -41 -84 -93z" />
<glyph horiz-adv-x="1392" d="M154 135l57 266q8 39 21.5 69t25.5 52q14 25 31 43l-51 51q-20 18 -37 34t-15 18q43 59 103 108q51 41 123.5 75t169.5 34q66 0 131 -14.5t114.5 -48.5t75 -87t8.5 -129l-67 -321q-6 -35 -8 -74t9 -72t38.5 -54.5t79.5 -21.5h86q51 0 90 21.5t65.5 54.5t43 72t24.5 74 l123 579h104l-121 -571q-12 -59 -37.5 -115.5t-65.5 -99.5t-93.5 -69.5t-120.5 -26.5h-164q-70 0 -107.5 27.5t-52 71.5t-11.5 100.5t15 111.5l58 272q14 74 -3.5 120t-55.5 71.5t-87 35t-94 9.5q-59 0 -108.5 -21.5t-85.5 -46.5q-43 -29 -78 -65l100 -103q-14 -14 -27 -37 q-10 -20 -22 -49.5t-23 -77.5l-59 -276q-4 -16 -4 -27.5t16 -13.5h60l-17 -84h-73q-53 0 -77 28.5t-7 106.5z" />
<glyph d="M-462 1088.5q-7 25.5 1 66.5q12 53 40 85t59.5 47.5t62.5 19.5t47 4h123q47 0 76.5 7t48.5 17q23 10 35 27l-19 -84q-10 -12 -32 -21q-18 -8 -48 -13t-77 -5h-103q-61 0 -87.5 -24.5t-35.5 -59.5q-4 -18 -1 -41.5t32 -23.5q23 0 37 9t24 19q8 12 15 31h39q0 -18 6 -31 q4 -10 13 -19t30 -9q35 0 54.5 21.5t23.5 37.5h90q-12 -55 -59.5 -93t-102.5 -38q-23 0 -41 5t-31 11q-14 8 -24 19q-10 -10 -25 -19q-12 -6 -32.5 -11t-51.5 -5q-12 0 -30.5 6t-34 22.5t-22.5 42z" />
<glyph d="M-90 1446l18 84h125q31 0 51.5 -25.5t14.5 -56.5q-4 -16 5 -28.5t26 -12.5h174l-50 -86h-192q-47 0 -67.5 26.5t-14.5 57.5q4 27 -5 34t-22 7h-63z" />
<glyph d="M-181 1371q-3 13 1 34q12 55 58 95t106 40q20 0 31.5 -6t17.5 -14q8 -9 8 -19q8 10 18 19q10 8 23.5 14t34.5 6q59 0 83.5 -30.5t14.5 -71.5q-4 -16 1 -18.5t15 -2.5h95l-50 -86h-83q-57 0 -67.5 25.5t-4.5 56.5q4 25 -5.5 39t-23.5 14q-20 0 -33.5 -19.5t-17.5 -41.5 h-39q4 20 -1 40.5t-17 20.5q-16 0 -36 -16t-26 -45q-4 -20 0 -33.5t8 -23.5q6 -10 15 -17h-107q-6 6 -12 17q-4 10 -7 23z" />
<glyph horiz-adv-x="1433" d="M154 135l57 266q8 39 21.5 69t25.5 52q14 25 31 43l-51 51q-20 18 -37 34t-15 18q43 59 103 108q49 41 121.5 75t167.5 34q49 0 97 -7.5t91 -24.5t78 -43t53 -62q10 14 32.5 37.5t58.5 45t84 38t112 16.5q55 0 112.5 -17.5t98.5 -56.5t60.5 -99.5t0.5 -146.5l-186 -878 q-6 -29 -22.5 -48.5t-33.5 -35.5q-20 -18 -45 -31h-28l209 973q14 66 3.5 114t-39 79.5t-72.5 47t-97 15.5q-74 0 -119 -28t-70.5 -62.5t-35 -64.5t-9.5 -32l-196 -927q-6 -29 -22.5 -48.5t-33.5 -35.5q-20 -18 -43 -31h-30l213 993q14 74 -3.5 119t-54 71.5t-86 36 t-94.5 9.5q-59 0 -109.5 -21.5t-86.5 -46.5q-43 -29 -80 -65l102 -103q0 2 -25.5 -32.5t-46.5 -131.5l-59 -276q-4 -20 1 -29.5t16.5 -11.5t25.5 -1t29 1l-17 -84h-71q-59 0 -81 30.5t-5 104.5z" />
<glyph horiz-adv-x="1433" d="M43 0l16 84h62q12 2 21.5 17.5t14.5 38t9 46t8 41.5l37 174q8 39 21.5 69t25.5 52q14 25 31 43l-51 51q-20 18 -37 34t-15 18q43 59 103 108q51 41 123.5 75t165.5 34q49 0 98 -7.5t92 -24.5t77 -43t52 -62q12 14 34.5 37.5t57.5 46t83 38t112 15.5q55 0 112.5 -17.5 t98.5 -56.5t60.5 -99.5t0.5 -146.5l-186 -878q-6 -29 -22.5 -48.5t-33.5 -35.5q-20 -18 -45 -31h-28l209 973q14 66 3.5 114t-39 79.5t-72.5 47t-97 15.5q-92 0 -142.5 -39t-73 -87t-27.5 -90t-5 -46l-182 -852q-6 -29 -22.5 -48.5t-33.5 -35.5q-20 -18 -43 -31h-30l213 993 q16 76 -2.5 122t-56.5 71.5t-88 34t-95 8.5q-59 0 -108.5 -21.5t-86.5 -46.5q-43 -29 -77 -65l100 -103q-14 -14 -27 -37q-10 -20 -22 -49.5t-23 -77.5l-57 -266q-16 -78 -49 -106.5t-92 -28.5h-72z" />
</font>
</defs>
</svg>
