<?xml version="1.0" standalone="no"?>
<!DOCTYPE svg PUBLIC "-//W3C//DTD SVG 1.1//EN" "http://www.w3.org/Graphics/SVG/1.1/DTD/svg11.dtd" >
<svg xmlns="http://www.w3.org/2000/svg">
<metadata></metadata>
<defs>
<font id="thaisans_neueitalic" horiz-adv-x="0" >
<font-face units-per-em="2048" ascent="1540" descent="-508" />
<missing-glyph horiz-adv-x="659" />
<glyph unicode="&#x3b;&#x3b;arm&#x3b;&#x3b;" horiz-adv-x="2138" d="M76 1270v82h327v164q-23 0 -45 13t-39.5 35.5t-27.5 52.5t-10 62q0 37 14 67t36.5 51.5t52.5 33.5t60 12q78 0 121 -43t43 -121q0 -27 -8 -55.5t-23.5 -52t-38 -38.5t-53.5 -17v-164h328v-82h-328v-246l220 -492h-82l-179 410l-178 -410h-82l219 492v246h-327zM158 0 q0 23 8 48.5t25.5 47t44 34.5t65.5 13q61 0 102 -41t41 -102q0 -14 -7 -51t-48 -66l45 -209l113 226h41l112 -226l72 428h102l-32 -172l22 41l133 31q0 106 12.5 181t37 120t63.5 65.5t92 20.5q61 0 92 -41t31 -102h-41q0 31 -15.5 56.5t-45.5 25.5q-78 0 -111 -76t-33 -229 l150 36l18 -75l-168 -43v-82q0 -123 -6 -224.5t-29.5 -175t-68.5 -113.5t-121 -40q-61 0 -102 30.5t-41 92.5h41q0 -31 25.5 -46.5t56.5 -15.5q61 0 94 37t48 101.5t18 154.5t3 199v61l-163 -41l-70 -368h-53l-144 307l-143 -307h-53l-66 327l37 25q-4 -2 -12 -2 q-8 -2 -29 -2q-18 0 -44 7t-47.5 23.5t-36.5 43t-15 67.5zM240 0q0 -23 15 -41t46 -18q61 0 61 59q0 61 -61 61q-31 0 -46 -18t-15 -43zM362 1679q0 -31 17.5 -56.5t64.5 -25.5t64.5 26t17.5 56q0 47 -25.5 64.5t-56.5 17.5t-56.5 -17.5t-25.5 -64.5zM834 532l466 1270h353 l409 -1270h-327l-125 390h-551l-144 -390h-81zM1100 1024h475l-223 696zM1364 41l41 205h61l-61 -205h-41zM1421 1741l27 -80l47 80h-74zM1462 1624l17 -57l106 174h-51zM1466 41l41 205h62l-62 -205h-41zM1493 1528l23 -74l114 193l-22 69zM1536 1393l12 -41l115 190 l-12 41zM1565 1303l12 -41l115 190l-13 41zM1591 -203q0 76 18.5 146.5t51.5 124t78 86t98 32.5q109 0 167 -74.5t58 -211.5q0 -201 -71.5 -295t-194.5 -94q-39 0 -76 16t-65.5 50t-46 88t-17.5 132zM1595 1208l13 -41l114 189l-14 43zM1622 1126l14 -49l115 191l-14 49z M1651 1032l14 -41l113 191l-11 41zM1673 -162l287 123q-4 39 -16 70q-12 27 -36 49t-71 22q-53 0 -86 -42t-49 -91q-20 -57 -29 -131zM1673 -264q0 -23 7.5 -48.5t22.5 -47t38.5 -35t54.5 -13.5q61 0 94 41t49 93q18 57 21 133zM1679 940l13 -33l114 187l-10 39zM1706 860 l12 -33l115 189l-12 35zM1733 778l12 -39l117 187l-13 43zM1759 696l15 -47l114 193l-14 45zM1786 614l6 -20h27l96 162l-14 49zM1851 594h41l50 84l-15 41zM1925 594h41l-14 45z" />
<glyph unicode="&#xd;" horiz-adv-x="659" />
<glyph unicode=" "  horiz-adv-x="659" />
<glyph unicode="&#x09;" horiz-adv-x="659" />
<glyph unicode="&#xa0;" horiz-adv-x="659" />
<glyph unicode="!" horiz-adv-x="274" d="M76 0l24 123h123l-24 -123h-123zM127 246l174 819h123l-174 -819h-123z" />
<glyph unicode="&#x22;" horiz-adv-x="499" d="M231 737l70 328h123l-70 -328h-123zM457 737l69 328h123l-69 -328h-123z" />
<glyph unicode="#" horiz-adv-x="1118" d="M139 301l47 100h156l102 215h-155l47 101h158l139 287h119l-140 -287h287l139 287h119l-139 -287h176l-49 -101h-176l-103 -215h176l-49 -100h-174l-143 -301h-119l143 301h-286l-144 -301h-118l143 301h-156zM461 401h287l102 215h-287z" />
<glyph unicode="$" horiz-adv-x="806" d="M88 61l23 103q37 -23 82 -41q39 -16 89 -28.5t109 -12.5q113 0 184.5 54t92.5 151q14 70 -16.5 109.5t-85 65t-119 46t-116.5 51.5t-81 82t-10 137q12 53 43.5 96.5t78 74t99.5 48t108 23.5l35 156h117l-35 -156q53 -4 93 -13.5t65 -19.5q29 -10 49 -24l-21 -103 q-29 16 -67 31q-35 10 -85 20.5t-122 10.5q-35 0 -74 -10.5t-72.5 -29t-58 -45t-31.5 -59.5q-12 -57 21 -91t86 -57.5t117.5 -46t117 -57t79 -91t8.5 -148.5q-12 -53 -34 -102.5t-61 -90.5t-94 -68.5t-135 -37.5l-33 -158h-117l31 152q-70 2 -118 15t-80 28q-37 16 -62 36z " />
<glyph unicode="%" horiz-adv-x="1173" d="M215 0l948 1233h129l-948 -1233h-129zM256 854q31 145 103.5 221t160.5 76q84 0 122 -71.5t7 -213.5q-14 -70 -41.5 -124t-62.5 -91t-76 -55t-82 -18q-84 0 -122 70.5t-9 205.5zM363.5 765q-1.5 -36 5 -55.5t18.5 -25.5t29 -6q14 0 30.5 7t32 26.5t30 55.5t26.5 93t13 95 t-5 58.5t-19.5 29t-27.5 8.5q-16 0 -31.5 -8.5t-31 -30t-30 -58t-26.5 -96.5q-12 -57 -13.5 -93zM758 248q31 145 103.5 221t160.5 76q84 0 122 -72t7 -213q-14 -70 -41 -123t-61.5 -90t-75.5 -55.5t-82 -18.5q-82 0 -122 70t-11 205zM865.5 159q-1.5 -36 5 -55.5 t18.5 -25.5t29 -6q16 0 31.5 7t30.5 26.5t29.5 55.5t26.5 93t13.5 95t-5 58.5t-18.5 28.5t-29 8q-16 0 -31.5 -8t-30.5 -29.5t-29.5 -58.5t-26.5 -96q-12 -57 -13.5 -93z" />
<glyph unicode="&#x26;" horiz-adv-x="1134" d="M129 260q23 113 96.5 189.5t202.5 130.5q-39 29 -68.5 83t-13.5 132q12 55 42 98t74 71.5t97 44t113 15.5q49 0 92 -14.5t72.5 -42t43 -66.5t3.5 -86q-20 -94 -85 -149.5t-173 -96.5q96 -59 143 -130.5t78 -141.5q43 47 77.5 98t61.5 102.5t45.5 98.5t28.5 86l8 35h123 q-33 -121 -112 -257t-185 -251q29 -47 68.5 -77t117.5 -30l-20 -102q-104 0 -162.5 35t-95.5 88q-172 -141 -395 -141q-160 0 -234 66.5t-43 211.5zM250 176q8 -35 31.5 -55.5t61.5 -29.5t85 -9q90 0 171 30.5t153 90.5q-23 43 -43.5 87t-48 85t-65.5 75.5t-95 57.5 q-53 -20 -94 -41t-72 -48.5t-50.5 -65.5t-31.5 -93q-10 -49 -2 -84zM469 795q-10 -53 7.5 -99.5t66.5 -77.5q98 35 150.5 83t66.5 114q6 27 -4.5 46.5t-27.5 31.5t-38.5 18.5t-40.5 6.5q-76 0 -123 -37t-57 -86z" />
<glyph unicode="'" horiz-adv-x="274" d="M231 737l70 328h123l-70 -328h-123z" />
<glyph unicode="(" horiz-adv-x="417" d="M125 383q43 203 142.5 375t250.5 315h113q-307 -299 -391 -690q-41 -195 -15.5 -360.5t117.5 -309.5h-113q-186 274 -104 670z" />
<glyph unicode=")" horiz-adv-x="417" d="M-43 -287q147 143 243.5 309t137.5 361q41 197 16.5 370t-112.5 320h112q90 -143 116 -315t-17 -375q-41 -199 -140.5 -367t-246.5 -303h-109z" />
<glyph unicode="*" horiz-adv-x="591" d="M242 788l184 86l-147 87l88 92l92 -111l12 162h115l-60 -164l146 113l47 -92l-187 -87l150 -86l-86 -92l-98 113l-11 -164h-114l57 162l-139 -111z" />
<glyph unicode="+" horiz-adv-x="765" d="M154 369l20 102h256l57 270h103l-58 -270h256l-20 -102h-256l-53 -246h-103l54 246h-256z" />
<glyph unicode="," horiz-adv-x="274" d="M-92 -223q41 37 76 73q29 33 56.5 72t35.5 78l24 123h123l-24 -123q-10 -47 -41 -87t-66 -71q-39 -37 -86 -65h-98z" />
<glyph unicode="-" horiz-adv-x="550" d="M158 389l22 103h400l-23 -103h-399z" />
<glyph unicode="." horiz-adv-x="274" d="M76 0l24 123h123l-24 -123h-123z" />
<glyph unicode="/" horiz-adv-x="473" d="M14 0l590 1233h115l-590 -1233h-115z" />
<glyph unicode="0" horiz-adv-x="847" d="M126 262q-7 94 19 219q29 133 79 234.5t114.5 170t141.5 103.5t161 35q80 0 141.5 -31.5t99.5 -96.5t46 -163t-19 -229q-29 -129 -82 -226.5t-121.5 -164t-147.5 -99t-159 -32.5q-78 0 -137 30.5t-94 93t-42 156.5zM250.5 306q3.5 -77 26 -127t62.5 -73.5t93 -23.5 q55 0 108.5 24.5t100.5 75.5t83.5 129.5t59.5 182.5q23 109 19 188.5t-28.5 132.5t-66.5 80t-98 27q-104 0 -198.5 -106.5t-141.5 -328.5q-23 -104 -19.5 -181z" />
<glyph unicode="1" horiz-adv-x="468" d="M201 737l22 103q49 18 96.5 45.5t83.5 54.5q43 31 82 64h121l-213 -1004h-123l179 840q-18 -10 -47 -25.5t-63 -30t-70 -28t-68 -19.5z" />
<glyph unicode="2" horiz-adv-x="694" d="M45 0l18 94q12 59 58.5 114.5t110 108t136 103.5t136 103t111 106.5t59.5 115.5q20 96 -21 136.5t-116 40.5q-66 0 -142 -20.5t-133 -67.5l23 102q53 45 122.5 66.5t151.5 21.5q129 0 197.5 -68.5t42.5 -197.5q-16 -74 -62.5 -138.5t-109 -121t-132 -106.5t-132 -98 t-109.5 -95t-64 -97h510l-20 -102h-635z" />
<glyph unicode="3" horiz-adv-x="714" d="M84 41l22 109q41 -41 96.5 -54.5t123.5 -13.5q98 0 177 45t99 137q10 51 -1 89t-49 63.5t-105.5 38t-170.5 12.5l21 96q92 0 170 23q66 16 124 55t75 111q20 94 -19 132t-108 38q-53 0 -120 -13.5t-120 -48.5l20 103q55 31 112.5 46t129.5 15q57 0 105.5 -18.5t80 -51 t45 -75.5t3.5 -95q-23 -104 -88.5 -167.5t-171.5 -94.5q47 -6 87 -26.5t66.5 -53t37.5 -75t1 -93.5q-14 -70 -53 -124t-95.5 -92t-127 -57t-148.5 -19q-72 0 -127 17t-92 42z" />
<glyph unicode="4" horiz-adv-x="737" d="M66 244l22 104l600 656h123l-139 -656h125l-23 -104h-125l-51 -244h-123l51 244h-460zM221 348h328l100 473z" />
<glyph unicode="5" horiz-adv-x="673" d="M80 20l22 107q20 -14 50 -23q23 -10 57.5 -16t77.5 -6q115 0 186.5 53t93.5 156q23 102 -28.5 161.5t-157.5 59.5q-47 0 -84 -3t-64 -7q-31 -6 -53 -10l109 512h483l-22 -103h-361l-63 -297h73q172 0 247 -84t46 -221q-33 -154 -147.5 -235.5t-280.5 -81.5 q-72 0 -113.5 11t-70.5 27z" />
<glyph unicode="6" horiz-adv-x="743" d="M137 442q61 287 204.5 434.5t336.5 147.5q47 0 93 -2t81 -18l-23 -103q-20 4 -47 10q-23 4 -54.5 7.5t-72.5 3.5q-137 0 -236.5 -103.5t-139.5 -290.5q25 31 56.5 51.5t64 32t64.5 15.5t56 4q63 0 114.5 -23.5t85.5 -65.5t46 -101.5t-2 -129.5q-16 -72 -53 -132 t-89.5 -104t-118 -68.5t-136.5 -24.5q-147 0 -212 121.5t-18 338.5zM246 332q-25 -117 12 -183.5t131 -66.5q41 0 82 18.5t76 49t60.5 72.5t35.5 89q23 109 -19 164t-139 55q-51 0 -93 -21.5t-72.5 -52t-49 -64t-24.5 -60.5z" />
<glyph unicode="7" horiz-adv-x="684" d="M188 0l529 901h-512l22 103h656l-15 -62l-557 -942h-123z" />
<glyph unicode="8" horiz-adv-x="724" d="M100 266q18 88 78 161t158 116q-55 35 -79.5 93t-8.5 130q12 55 41.5 102t74 82t99.5 54.5t117 19.5q57 0 103 -21.5t75.5 -56.5t41 -82t1.5 -98q-16 -72 -62.5 -130t-117.5 -93q78 -41 105.5 -117t8.5 -160q-14 -70 -49 -123t-85 -89t-112.5 -54t-132.5 -18 q-147 0 -215.5 72.5t-40.5 211.5zM227 287q-20 -92 19 -148.5t133 -56.5q92 0 154.5 56.5t82.5 148.5q8 39 3 75.5t-23 65.5t-50 46.5t-79 17.5q-86 0 -153.5 -56.5t-86.5 -148.5zM369 754q-14 -66 14.5 -113t103.5 -47q33 0 64 12t57.5 34t45 51.5t24.5 62.5 q14 72 -21.5 120t-99.5 48q-78 0 -125 -48t-63 -120z" />
<glyph unicode="9" horiz-adv-x="743" d="M104 0l21 102q20 -6 47 -10q51 -10 127 -10q137 0 236.5 103.5t140.5 289.5q-25 -31 -56.5 -51.5t-64.5 -31.5t-64.5 -15t-56.5 -4q-63 0 -114.5 23.5t-85 65.5t-46 100.5t1.5 129.5q14 72 52.5 132.5t90.5 105.5t117.5 69.5t137.5 24.5q147 0 211.5 -123t17.5 -340 q-61 -287 -204.5 -433t-336.5 -146q-47 0 -93 2t-79 16zM311 692q-23 -109 20.5 -164t139.5 -55q51 0 93 21.5t72 52.5t48.5 64.5t24.5 60.5q25 117 -12.5 183.5t-131.5 66.5q-41 0 -82 -18.5t-75.5 -49.5t-60 -73t-36.5 -89z" />
<glyph unicode=":" horiz-adv-x="274" d="M76 0l24 123h123l-24 -123h-123zM201 594l26 123h123l-26 -123h-123z" />
<glyph unicode=";" horiz-adv-x="274" d="M-92 -223q41 37 76 73q29 33 56.5 72t35.5 78l24 123h123l-24 -123q-10 -47 -41 -87t-66 -71q-39 -37 -86 -65h-98zM201 594l26 123h123l-26 -123h-123z" />
<glyph unicode="&#x3c;" horiz-adv-x="739" d="M111 311l10 54l762 380l-25 -114l-577 -293l460 -252l-22 -113z" />
<glyph unicode="=" horiz-adv-x="765" d="M127 246l23 102h614l-23 -102h-614zM174 471l23 102h614l-23 -102h-614z" />
<glyph unicode="&#x3e;" horiz-adv-x="739" d="M8 -27l23 113l571 252l-455 293l25 114l598 -380l-10 -54z" />
<glyph unicode="?" horiz-adv-x="643" d="M199 0l24 123h123l-24 -123h-123zM250 246l41 196q12 59 59 98.5t100.5 74t100.5 73.5t59 98q16 72 -19.5 104t-92.5 32q-55 0 -99.5 -12.5t-76.5 -28.5q-37 -18 -68 -41l20 102q25 23 62 41q31 16 76 28.5t108 12.5q49 0 94 -14.5t76 -42t44.5 -70.5t0.5 -98 q-12 -53 -37.5 -92t-59.5 -69t-71 -53.5t-68.5 -45t-55 -45t-29.5 -52.5l-41 -196h-123z" />
<glyph unicode="@" horiz-adv-x="1339" d="M155.5 165q-24.5 99 0.5 218q25 121 97.5 226.5t173.5 184t222 124t244 45.5q119 0 215 -38t159.5 -105.5t90 -159t4.5 -197.5q-18 -82 -59 -148.5t-94.5 -113.5t-114 -73t-115.5 -26q-84 0 -111.5 37t-17.5 121q-53 -84 -108.5 -121t-131.5 -37q-47 0 -88 15.5 t-68.5 49.5t-37.5 86t6 124q14 68 54 126t94.5 101t119 67.5t125.5 24.5q57 0 90 -23.5t41 -58.5l35 82h115l-129 -336q-8 -43 -9 -77q0 -29 8.5 -53.5t34.5 -24.5q45 0 85 26.5t72 65.5t52.5 84t28.5 82q12 59 -2 129t-58 129t-120 99t-187 40t-211 -46t-180 -115.5 t-133 -154.5t-69 -161q-18 -82 -4 -161t60 -141.5t126 -101t192 -38.5q80 0 161 18t149 41l-25 -106q-74 -23 -151.5 -39.5t-155.5 -16.5q-123 0 -221.5 41t-164 114t-90 172zM539 297q4 -33 17 -53.5t33.5 -29.5t43.5 -9q86 0 146.5 64.5t92.5 217.5q10 53 -11 80t-68 27 q-82 0 -154 -54.5t-94 -162.5q-10 -47 -6 -80z" />
<glyph unicode="A" horiz-adv-x="888" d="M14 0l582 1004h123l155 -1004h-122l-43 266h-422l-156 -266h-117zM344 369h352l-67 501z" />
<glyph unicode="B" horiz-adv-x="786" d="M76 0l213 1004h286q135 0 197 -67q45 -49 46 -116q0 -25 -7 -53q-16 -80 -77.5 -146.5t-147.5 -89.5q47 -8 86 -28.5t64.5 -51t34.5 -72.5q4 -20 4 -42q0 -24 -5 -51q-12 -63 -49 -115.5t-91.5 -90.5t-122 -59.5t-140.5 -21.5h-291zM219 102h156q51 0 97 14.5t82 39 t60.5 58.5t32.5 73q5 24 5 45q0 59 -41 97q-56 52 -179 52h-133zM322 584h120q94 0 160 41t82 123q5 21 5 39q-1 45 -29 73q-40 40 -138 41h-133z" />
<glyph unicode="C" horiz-adv-x="837" d="M140 280q-5 35 -6 73q0 65 16 139q27 123 84 221t138 167.5t181 106.5t213 37q76 0 148.5 -9t117.5 -32l-63 -102q-53 29 -106.5 35t-119.5 6q-86 0 -162.5 -31t-138 -87t-105.5 -136t-65 -176q-13 -62 -13 -116q0 -29 4 -56q11 -76 49 -128.5t102.5 -81t150.5 -28.5 q78 0 129 15.5t117 45.5l20 -102q-66 -35 -142.5 -47t-160.5 -12q-111 0 -192.5 35.5t-131.5 102t-64 160.5z" />
<glyph unicode="D" horiz-adv-x="940" d="M76 0l213 1004h280q264 0 376 -122q76 -83 76 -224q0 -67 -17 -146q-25 -115 -84.5 -209t-146.5 -161.5t-196.5 -104.5t-232.5 -37h-268zM219 102h146q98 0 183 29t151.5 81t113.5 128t68 172q13 62 13 115q0 113 -60 178q-88 96 -293 96h-152z" />
<glyph unicode="E" horiz-adv-x="684" d="M76 0l213 1004h532l-22 -103h-410l-74 -348h369l-22 -102h-369l-74 -349h410l-21 -102h-532z" />
<glyph unicode="F" horiz-adv-x="622" d="M76 0l213 1004h532l-22 -103h-410l-74 -348h369l-22 -102h-369l-94 -451h-123z" />
<glyph unicode="G" horiz-adv-x="960" d="M138 272q-7 40 -7 83q0 59 14 126q27 119 88.5 219.5t149.5 172t194.5 111.5t221.5 40q76 0 126 -10t83 -21q37 -14 59 -30l-20 -103q-25 16 -62 31q-35 10 -88 20.5t-133 10.5q-88 0 -169 -33t-147.5 -91.5t-112.5 -139t-67 -177.5q-13 -64 -13 -118q0 -110 56 -179 q84 -102 260 -102q66 0 115 10t102 35l60 283h-225l22 102h348l-98 -459q-86 -43 -174 -57t-186 -14q-109 0 -192 34.5t-135 99t-70 156.5z" />
<glyph unicode="H" horiz-adv-x="909" d="M76 0l213 1004h123l-93 -431h512l93 431h123l-213 -1004h-123l98 471h-512l-98 -471h-123z" />
<glyph unicode="I" horiz-adv-x="274" d="M76 0l213 1004h123l-213 -1004h-123z" />
<glyph unicode="J" horiz-adv-x="520" d="M14 6l62 92q12 -4 26 -8q12 -4 31 -6t41 -2q162 0 221 270l140 652h122l-139 -652q-39 -180 -137 -275t-229 -95q-39 0 -65 4t-42 8q-20 6 -31 12z" />
<glyph unicode="K" horiz-adv-x="796" d="M76 0l213 1004h123l-109 -508l516 508h144l-349 -342l168 -662h-127l-141 561l-250 -248l-65 -313h-123z" />
<glyph unicode="L" horiz-adv-x="622" d="M76 0l213 1004h123l-193 -902h410l-21 -102h-532z" />
<glyph unicode="M" horiz-adv-x="1196" d="M76 0l213 1004h164l174 -820l542 820h164l-213 -1004h-123l177 829l-556 -829h-61l-184 825l-174 -825h-123z" />
<glyph unicode="N" horiz-adv-x="970" d="M76 0l213 1004h153l363 -844l180 844h123l-213 -1004h-154l-366 834l-176 -834h-123z" />
<glyph unicode="O" horiz-adv-x="1052" d="M136 278q-5 34 -4 70q0 65 15 139q27 125 82.5 224.5t133 169t176 106.5t213.5 37q106 0 185 -37t126 -104.5t61 -161.5q5 -35 6 -72q0 -65 -16 -139q-27 -125 -82 -223.5t-134 -166t-178 -103t-212 -35.5q-106 0 -185 34.5t-126 101t-61 160.5zM270 487 q-15 -68 -15 -125q-1 -100 45 -170q72 -110 230 -110q172 0 295 111.5t166 316.5q14 63 14 120q0 25 -3 49q-9 77 -43.5 130t-93 83t-136.5 30q-174 0 -295 -116t-164 -319z" />
<glyph unicode="P" horiz-adv-x="735" d="M76 0l213 1004h278q159 0 231 -79q49 -55 50 -143q0 -40 -10 -86q-16 -74 -53 -134t-93.5 -103t-129.5 -66.5t-159 -23.5h-127l-77 -369h-123zM297 471h127q121 0 195.5 62.5t95.5 160.5q7 37 7 67q0 53 -22 87q-34 54 -155 53h-156z" />
<glyph unicode="Q" horiz-adv-x="1052" d="M136 278q-4 33 -4 70q0 65 15 139q27 125 82.5 224.5t133 169t176 106.5t213.5 37q106 0 185 -37t126 -104.5t61 -161.5q6 -35 6 -72q0 -65 -16 -139q-37 -170 -124 -289t-210 -180q23 -10 45.5 -25.5t40 -37t24.5 -50.5q3 -14 3 -30q0 -18 -4 -39h-115q6 29 -6 51 t-32.5 39.5t-43 30t-41.5 18.5q-71 -16 -143 -16q-106 0 -185 34.5t-126 101t-61 160.5zM270 487q-15 -68 -15 -125q0 -101 45 -170q72 -110 230 -110q172 0 295 111.5t166 316.5q14 63 14 120q0 25 -3 49q-9 77 -43.5 130t-93 83t-136.5 30q-174 0 -295 -116t-164 -319z " />
<glyph unicode="R" horiz-adv-x="817" d="M76 0l213 1004h307q61 0 113.5 -17.5t86.5 -52.5t48 -86q7 -25 7 -54q0 -30 -7 -65q-23 -104 -100.5 -164.5t-184.5 -83.5q43 -16 68.5 -71.5t48.5 -110.5l127 -299h-139l-117 279q-29 72 -62.5 111.5t-99.5 39.5h-96l-90 -430h-123zM311 532h160q90 0 159.5 49.5 t90.5 147.5q4 20 4 39q0 52 -33 86q-45 47 -143 47h-160z" />
<glyph unicode="S" horiz-adv-x="806" d="M88 61l23 103q37 -23 82 -41q39 -16 89 -28.5t109 -12.5q113 0 184.5 54t92.5 151q4 22 4 41q0 40 -20 68q-30 40 -85 65.5t-119.5 46t-116.5 51.5t-81 82q-18 31 -18 74q0 29 8 63q12 59 51 105.5t92 77t115.5 47t122.5 16.5q72 0 124 -10t84 -21q37 -14 64 -30 l-21 -103q-29 16 -67 31q-35 10 -85 20.5t-122 10.5q-35 0 -74 -10.5t-72.5 -29t-58 -45t-31.5 -59.5q-3 -15 -4 -29q0 -37 25 -62q33 -34 86 -57.5t117.5 -46t117 -57t78.5 -90.5q16 -34 16 -80q0 -31 -7 -69q-12 -59 -40 -114.5t-77 -97.5t-124 -67.5t-181 -25.5 q-74 0 -127.5 11t-87.5 27q-39 18 -66 41z" />
<glyph unicode="T" horiz-adv-x="714" d="M205 901l22 103h686l-22 -103h-277l-190 -901h-123l191 901h-287z" />
<glyph unicode="U" horiz-adv-x="909" d="M156 381l133 623h123l-131 -615q-15 -70 -15 -123q0 -66 22 -108q40 -76 173 -76q129 0 213 71.5t117 223.5l133 627h123l-129 -609q-45 -213 -166 -313t-314 -100q-184 0 -254 97q-44 60 -44 162q0 62 16 140z" />
<glyph unicode="V" horiz-adv-x="888" d="M227 1004h123l123 -861l492 861h122l-581 -1004h-123z" />
<glyph unicode="W" horiz-adv-x="1318" d="M227 1004h123l51 -861l441 861h82l30 -861l441 861h123l-521 -1004h-143l-16 799l-394 -799h-143z" />
<glyph unicode="X" horiz-adv-x="827" d="M14 0l435 502l-201 502h143l150 -400l342 400h143l-434 -502l221 -502h-143l-172 399l-340 -399h-144z" />
<glyph unicode="Y" horiz-adv-x="786" d="M227 1004h123l135 -515l377 515h123l-463 -637l-78 -367h-122l75 360z" />
<glyph unicode="Z" horiz-adv-x="786" d="M14 0l6 31l758 870h-532l22 103h717l-8 -31l-758 -871h551l-18 -102h-738z" />
<glyph unicode="[" horiz-adv-x="401" d="M14 -287l289 1362h311l-20 -100h-201l-248 -1161h201l-20 -101h-312z" />
<glyph unicode="\" horiz-adv-x="473" d="M274 1233h115l70 -1233h-115z" />
<glyph unicode="]" horiz-adv-x="401" d="M-43 -287l20 101h197l248 1161h-201l21 100h311l-289 -1362h-307z" />
<glyph unicode="^" horiz-adv-x="925" d="M160 395l483 680h53l238 -680h-115l-184 516l-361 -516h-114z" />
<glyph unicode="_" horiz-adv-x="765" d="M53 -100l23 100h614l-22 -100h-615z" />
<glyph unicode="`" horiz-adv-x="434" d="M315 1128h123l111 -227h-103z" />
<glyph unicode="a" horiz-adv-x="724" d="M112 102q-4 15 -4 33q0 27 9 60q16 68 53 109.5t81 65t91 32t86 8.5q53 0 91 4t63 10q29 8 47 16q9 44 9 78q0 57 -26 88q-42 49 -127 49q-63 0 -111 -21.5t-81 -45.5q-37 -29 -66 -66l-22 92q29 37 71 66q37 25 93.5 46.5t134.5 21.5q53 0 104 -14.5t87 -47.5 q37 -33 53 -86q8 -27 7 -60q0 -32 -7 -69l-99 -471h-112l16 82q-35 -33 -97.5 -66.5t-140.5 -33.5q-53 0 -96 13t-70 40.5t-37 66.5zM229 195q-4 -17 -4 -31q1 -16 5 -28q8 -24 26 -38t43.5 -20t56.5 -6t63 9t60.5 24.5t53 34t40.5 34.5l37 174q-31 -8 -61 -16 q-27 -6 -58.5 -10.5t-62.5 -4.5t-63.5 -7t-60.5 -22.5t-48 -39t-27 -53.5z" />
<glyph unicode="b" horiz-adv-x="827" d="M76 0l225 1065h113l-92 -430q33 31 73 55q35 23 85 40.5t112 17.5q53 0 109.5 -21.5t99.5 -67t63 -115.5q9 -33 9 -72q0 -42 -11 -91q-23 -104 -70 -178t-107 -121t-126.5 -68.5t-128.5 -21.5q-61 0 -103 16.5t-69 38.5q-31 23 -49 55l-21 -102h-112zM229 195 q25 -33 58 -58q29 -23 69.5 -39t94.5 -16q39 0 84 16.5t87 52t76.5 92t51.5 138.5q8 35 8 66q0 27 -6 49q-12 52 -39 87t-64 53.5t-76 18.5q-53 0 -102 -17t-86 -40q-43 -25 -82 -55z" />
<glyph unicode="c" horiz-adv-x="622" d="M119 348q18 90 62 164t104.5 126t135.5 81t157 29q41 0 73.5 -8.5t55.5 -18.5q27 -10 49 -25l-62 -92q-14 14 -35 25q-16 10 -41.5 18t-58.5 8q-53 0 -105.5 -21.5t-96.5 -61.5t-77.5 -96t-48.5 -128q-8 -40 -8 -73q1 -25 5 -47q10 -50 39.5 -82.5t72.5 -48t96 -15.5 q33 0 60.5 7t50.5 17q25 10 47 27l22 -92q-27 -14 -61 -25q-29 -10 -67.5 -17t-81.5 -7q-160 0 -242 92q-57 63 -57 165q0 46 12 99z" />
<glyph unicode="d" horiz-adv-x="827" d="M118 202q-6 30 -7 65q0 51 14 114q20 94 68.5 163.5t110 115t128 67t119.5 21.5q61 0 103 -17.5t69 -40.5q31 -25 49 -55l92 430h113l-225 -1065h-113l20 102q-33 -33 -73 -55q-35 -23 -85 -39t-112 -16q-61 0 -118.5 21.5t-97 68t-55.5 120.5zM232 242 q10 -56 36.5 -91.5t64.5 -52t77 -16.5q53 0 102 16.5t86 38.5q43 25 82 58l74 348q-25 31 -58 55q-29 23 -69.5 40t-94.5 17q-39 0 -84 -18.5t-88 -54t-75.5 -87t-46.5 -114.5q-10 -50 -10 -91q0 -26 4 -48z" />
<glyph unicode="e" horiz-adv-x="722" d="M110 190q-4 25 -5 53q0 51 14 113q18 84 58 156t95.5 124t121 82t136.5 30q141 0 202 -92q40 -59 40 -153q0 -51 -12 -112l-10 -53h-521q-9 -42 -9 -77q0 -20 3 -37q8 -48 34 -79.5t65.5 -47t89.5 -15.5q55 0 94 10t63 25q29 16 49 37l23 -93q-33 -20 -70 -34 q-35 -14 -80 -24.5t-100 -10.5q-78 0 -137 20.5t-95.5 64t-48.5 113.5zM248 430h403q6 35 6 65q1 59 -23 99q-36 60 -122 61q-41 0 -81 -16t-74.5 -47t-62.5 -72t-46 -90z" />
<glyph unicode="f" horiz-adv-x="479" d="M145 625l21 92h133l23 110q25 121 88 189.5t168 68.5q35 0 58 -2t36 -4q14 -2 20 -4l-18 -92q-6 2 -17 4q-10 2 -23 4t-36 2q-66 0 -105.5 -39t-58.5 -127l-22 -110h204l-20 -92h-205l-131 -625h-113l132 625h-134z" />
<glyph unicode="g" horiz-adv-x="827" d="M55 -285l60 92q16 -20 43 -36q23 -14 58.5 -24.5t88.5 -10.5q137 0 221 62.5t113 203.5l20 100q-33 -33 -73 -55q-35 -23 -85 -39t-112 -16q-53 0 -109.5 21.5t-99.5 65.5t-62 113q-10 32 -10 72q0 42 11 92q23 104 70 178t107 122.5t126.5 70t128.5 21.5q61 0 103 -17.5 t69 -40.5q31 -25 49 -55l23 102h112l-151 -714q-43 -201 -157 -290t-314 -89q-61 0 -104.5 10t-71.5 24q-33 16 -54 37zM230 240q12 -50 38.5 -85.5t64.5 -54t77 -18.5q53 0 102 16.5t86 38.5q43 25 82 58l74 348q-25 31 -58 55q-29 23 -69.5 40t-94.5 17q-39 0 -84 -16 t-88 -52t-77.5 -92.5t-51.5 -138.5q-7 -35 -7 -65q0 -27 6 -51z" />
<glyph unicode="h" horiz-adv-x="765" d="M76 0l225 1065h113l-97 -451q29 37 66 66q33 25 80 46.5t108 21.5q74 0 122 -20.5t74 -57.5t31 -86q1 -14 1 -30q0 -36 -8 -77l-101 -477h-112l102 483q4 19 4 37q0 49 -33 81q-45 44 -123 44q-53 0 -96 -19.5t-72 -41.5q-35 -27 -61 -62l-111 -522h-112z" />
<glyph unicode="i" horiz-adv-x="264" d="M76 0l155 737h113l-156 -737h-112zM256 852l23 111h112l-22 -111h-113z" />
<glyph unicode="j" horiz-adv-x="264" d="M-279 -326l62 93q10 -8 22 -17q20 -14 50 -14q164 0 217 254l159 747h113l-154 -725q-37 -176 -131 -272t-225 -96q-33 0 -53.5 4t-34.5 10q-16 8 -25 16zM256 852l23 111h112l-22 -111h-113z" />
<glyph unicode="k" horiz-adv-x="673" d="M76 0l225 1065h113l-158 -739l397 391h125l-241 -238l122 -479h-106l-98 397l-232 -229l-35 -168h-112z" />
<glyph unicode="l" horiz-adv-x="264" d="M76 0l225 1065h113l-226 -1065h-112z" />
<glyph unicode="m" horiz-adv-x="1267" d="M76 0l155 737h113l-27 -123q2 2 19.5 23.5t50.5 46.5t79 44.5t105 19.5q104 0 155.5 -39t66.5 -103q10 12 35.5 36t62.5 47.5t83 41t99 17.5q74 0 122 -20.5t73.5 -57.5t31.5 -86q2 -15 1 -30q0 -36 -9 -77l-100 -477h-113l103 483q4 19 4 37q0 49 -33 81q-45 44 -123 44 q-53 0 -96 -19.5t-72 -41.5q-35 -27 -61 -62l-111 -522h-112l102 483q4 19 4 37q0 49 -33 81q-45 44 -123 44q-53 0 -96 -19.5t-72 -41.5q-35 -27 -61 -62l-111 -522h-112z" />
<glyph unicode="n" horiz-adv-x="765" d="M76 0l155 737h113l-27 -123q29 37 66 66q33 25 80 46.5t108 21.5q74 0 122 -20.5t74 -57.5t31 -86q1 -14 1 -30q0 -36 -8 -77l-101 -477h-112l102 483q4 19 4 37q0 49 -33 81q-45 44 -123 44q-53 0 -96 -19.5t-72 -41.5q-35 -27 -61 -62l-111 -522h-112z" />
<glyph unicode="o" horiz-adv-x="804" d="M121 358q39 186 157.5 288t288.5 102q159 0 233 -100q49 -67 50 -167q0 -49 -12 -106q-39 -186 -158 -284.5t-289 -98.5q-159 0 -233 96q-49 64 -49 162q0 50 12 108zM233 358q-11 -48 -10 -89q1 -69 31 -115q50 -72 158 -72q117 0 200.5 75.5t112.5 217.5q11 48 11 89 q0 68 -30 116q-48 76 -157 75q-117 0 -202 -77.5t-114 -219.5z" />
<glyph unicode="p" horiz-adv-x="827" d="M4 -326l227 1063h113l-22 -102q33 31 73 55q35 23 85 40.5t112 17.5q61 0 118.5 -21.5t97.5 -70t56 -122.5q6 -29 6 -64q0 -51 -14 -114q-20 -96 -69.5 -164.5t-111 -112.5t-127 -65.5t-118.5 -21.5q-61 0 -103 16.5t-69 38.5q-31 23 -49 55l-92 -428h-113zM229 195 q25 -33 58 -58q29 -23 69.5 -39t94.5 -16q39 0 84 18.5t87 54t74.5 86t46.5 115.5q10 50 10 91q0 26 -4 47q-10 57 -35.5 93t-63.5 52t-77 16q-53 0 -102 -17t-86 -40q-43 -25 -82 -55z" />
<glyph unicode="q" horiz-adv-x="827" d="M118 192q-10 32 -10 72q0 42 11 92q23 104 70 178t107 122.5t126.5 70t128.5 21.5q61 0 103 -17.5t69 -40.5q31 -25 49 -55l23 102h112l-227 -1063h-113l92 428q-33 -33 -73 -55q-35 -23 -85 -39t-112 -16q-53 0 -109.5 21.5t-99.5 65.5t-62 113zM230 240 q12 -50 38.5 -85.5t64.5 -54t77 -18.5q53 0 102 16.5t86 38.5q43 25 82 58l74 348q-25 31 -58 55q-29 23 -69.5 40t-94.5 17q-39 0 -84 -16t-88 -52t-77.5 -92.5t-51.5 -138.5q-7 -35 -7 -65q0 -27 6 -51z" />
<glyph unicode="r" horiz-adv-x="462" d="M76 0l155 737h113l-41 -194q31 57 68 102q31 39 71.5 71t87.5 32q16 0 28.5 -2.5t23.5 -4.5q10 -2 22 -4l-24 -112q-12 2 -23 4q-10 2 -22.5 4t-28.5 2q-31 0 -70 -32t-74 -68q-41 -45 -81 -101l-93 -434h-112z" />
<glyph unicode="s" horiz-adv-x="643" d="M82 31l18 92q23 -16 52 -27q25 -10 60.5 -17t82.5 -7q84 0 136 32.5t67 100.5q4 18 4 33q0 28 -14 46q-22 28 -61.5 46t-85.5 30.5t-84 33.5q-39 22 -59 58q-12 21 -11 52q0 22 6 49q8 43 38.5 80t71.5 64.5t88 44t90 16.5q53 0 91 -8.5t61 -18.5q27 -10 43 -24l-21 -93 q-18 14 -45 25q-23 10 -59.5 18.5t-87.5 8.5t-99.5 -33t-58.5 -80q-2 -11 -2 -21q1 -26 17 -42q22 -20 62 -35t86 -27t83 -36.5t57 -68.5q10 -24 10 -56q0 -28 -8 -62q-10 -43 -33.5 -83t-64.5 -71t-100.5 -50t-137.5 -19q-47 0 -82.5 7t-60.5 17q-29 10 -49 25z" />
<glyph unicode="t" horiz-adv-x="479" d="M145 625l21 92h133l74 348h112l-73 -348h204l-20 -92h-205l-80 -377q-8 -39 -8 -69q1 -37 13 -58q22 -39 87 -39q23 0 37.5 1t24.5 3t18 6l-18 -92q-8 -2 -25 -4q-14 -2 -37.5 -3t-58.5 -1q-104 0 -138 68q-19 38 -19 91q0 43 12 97l80 377h-134z" />
<glyph unicode="u" horiz-adv-x="765" d="M122 154q-1 15 -1 29q0 36 8 77l102 477h113l-102 -483q-4 -20 -4 -38q0 -48 32 -80q44 -44 121 -44q53 0 96 19.5t74 42.5q35 27 62 61l110 522h113l-156 -737h-112l24 123q-29 -37 -65 -66q-33 -25 -81 -45t-108 -20q-74 0 -122 20.5t-73.5 56t-30.5 85.5z" />
<glyph unicode="v" horiz-adv-x="704" d="M170 737h133l86 -604l344 604h113l-412 -737h-143z" />
<glyph unicode="w" horiz-adv-x="1062" d="M170 737h133l25 -604l323 604h82l45 -604l303 604h123l-381 -737h-123l-41 584l-307 -584h-133z" />
<glyph unicode="x" horiz-adv-x="643" d="M14 0l324 369l-168 368h123l125 -276l244 276h122l-325 -379l170 -358h-123l-129 266l-240 -266h-123z" />
<glyph unicode="y" horiz-adv-x="753" d="M-53 -326l57 93q10 -8 23 -17q25 -14 53 -14q45 0 82 19.5t71 76.5l107 168l-162 737h123l131 -583l340 583h123l-533 -880q-35 -55 -64.5 -96.5t-63 -67t-75.5 -37.5t-100 -12q-31 0 -51 4t-35 10q-16 8 -26 16z" />
<glyph unicode="z" horiz-adv-x="679" d="M76 0l6 33l549 612h-381l20 92h551l-8 -39l-545 -606h410l-19 -92h-583z" />
<glyph unicode="{" horiz-adv-x="428" d="M111 315l18 88q63 6 104 47.5t60 124.5l51 240q29 129 101.5 191.5t195.5 68.5l-20 -100q-127 -10 -162 -164l-53 -246q-16 -82 -59.5 -136t-119.5 -75q66 -16 85.5 -70.5t2.5 -140.5l-49 -235q-18 -88 1.5 -126t90.5 -38l-22 -100q-244 0 -189 250l54 243 q18 84 -6.5 127t-83.5 51z" />
<glyph unicode="|" horiz-adv-x="266" d="M20 -256l306 1432h114l-305 -1432h-115z" />
<glyph unicode="}" horiz-adv-x="428" d="M-59 -356l22 100q68 0 103.5 38t54.5 126l49 235q16 86 61 140.5t117 70.5q-66 20 -85 74.5t-3 136.5l53 246q16 78 -8 119t-84 45l21 100q121 -6 168 -68.5t18 -191.5l-51 -240q-18 -84 6.5 -124.5t83.5 -47.5l-18 -88q-127 -16 -164 -178l-54 -243q-55 -250 -290 -250z " />
<glyph unicode="~" horiz-adv-x="763" d="M147 338q16 84 74 138t139 54q39 0 69 -17t56.5 -36.5t56 -37t68.5 -17.5q33 0 60.5 27.5t44.5 80.5h86q-25 -98 -80 -145t-135 -47q-41 0 -72 16.5t-58.5 37t-54 36.5t-59.5 16q-90 0 -111 -106h-84z" />
<glyph unicode="&#xa9;" horiz-adv-x="1345" d="M76 496q0 125 47 233.5t128 189t189.5 127t233.5 46.5t233.5 -46.5t189.5 -127t127 -189t46 -233.5t-46 -233.5t-127 -188.5t-189.5 -126t-233.5 -46t-233.5 46t-189.5 126t-128 188.5t-47 233.5zM137 496q0 -111 42 -208.5t115 -170t171 -113.5t209 -41t209 41 t169.5 113.5t113.5 170t42 208.5t-42 209t-113.5 169.5t-170 113.5t-208.5 42q-111 0 -209 -42t-171 -113.5t-115 -169.5t-42 -209zM344 485q0 88 26.5 158t75 119t116 75.5t149.5 26.5q47 0 98 -6t88 -20l-25 -54q-37 16 -78.5 21.5t-82.5 5.5q-68 0 -123.5 -23.5 t-93 -66.5t-59 -103.5t-21.5 -132.5q0 -150 80.5 -233.5t216.5 -83.5q53 0 86.5 9t74.5 32l25 -57q-41 -23 -91 -31t-106 -8q-162 0 -259 99t-97 273z" />
<glyph unicode="&#xad;" horiz-adv-x="550" d="M158 389l22 103h400l-23 -103h-399z" />
<glyph unicode="&#xae;" horiz-adv-x="1345" d="M76 496q0 125 47 233.5t128 189t189.5 127t233.5 46.5t233.5 -46.5t189.5 -127t127 -189t46 -233.5t-46 -233.5t-127 -188.5t-189.5 -126t-233.5 -46t-233.5 46t-189.5 126t-128 188.5t-47 233.5zM137 496q0 -111 42 -208.5t115 -170t171 -113.5t209 -41t209 41 t169.5 113.5t113.5 170t42 208.5t-42 209t-113.5 169.5t-170 113.5t-208.5 42q-111 0 -209 -42t-171 -113.5t-115 -169.5t-42 -209zM465 143v731h219q90 0 153.5 -49t63.5 -145q0 -49 -14.5 -84t-39 -58.5t-57 -37t-67.5 -19.5q37 -20 67.5 -53t47.5 -61l143 -224h-84 l-123 203q-33 53 -80 86t-76 33h-83v-322h-70zM535 520h108q37 0 71 10.5t59.5 30t41.5 49t16 70.5q0 61 -44 99t-121 38h-131v-297z" />
<glyph unicode="&#xbc;" horiz-adv-x="1415" d="M315 1061l13 57q27 10 52.5 25.5t45.5 30.5q23 16 45 34h66l-117 -553h-68l99 463q-23 -12 -61 -30.5t-75 -26.5zM322 0l999 1233h115l-1000 -1233h-114zM1016 176l12 57l330 361h65l-75 -361h69l-12 -57h-70l-28 -135h-68l29 135h-252zM1100 233h180l55 261z" />
<glyph unicode="&#xbd;" horiz-adv-x="1441" d="M315 1061l13 57q27 10 52.5 25.5t45.5 30.5q23 16 45 34h66l-117 -553h-68l99 463q-23 -12 -61 -30.5t-75 -26.5zM322 0l999 1233h115l-1000 -1233h-114zM1032 41l10 53q10 51 60.5 95t110 87t110.5 87.5t61 95.5q10 53 -12 75.5t-65 22.5q-35 0 -78 -11t-76 -38l14 57 q57 49 152 49q72 0 111.5 -38.5t23.5 -110.5q-14 -63 -63.5 -112.5t-106.5 -92.5t-106.5 -82t-63.5 -80h285l-13 -57h-354z" />
<glyph unicode="&#xbe;" horiz-adv-x="1413" d="M221 688l15 60q23 -23 52 -30t66 -7q53 0 97.5 24.5t54.5 75.5q12 55 -27 83t-151 28l10 53q51 2 92 12q35 10 67.5 30.5t43.5 59.5q10 53 -10.5 73.5t-59.5 20.5q-29 0 -65.5 -7t-65.5 -25l12 55q59 35 131 35q66 0 103 -38t26 -95q-23 -109 -143 -144q53 -8 85.5 -44 t20.5 -91q-16 -78 -81.5 -120t-151.5 -42q-41 0 -69.5 9.5t-51.5 23.5zM319 0l1000 1233h115l-1000 -1233h-115zM1014 176l12 57l330 361h65l-75 -361h69l-12 -57h-70l-28 -135h-68l29 135h-252zM1098 233h180l55 261z" />
<glyph unicode="&#xe01;" horiz-adv-x="878" d="M127 0l86 410q8 39 21.5 68.5t25.5 51.5q14 25 29 43l-51 52q-18 18 -35 33.5t-15 17.5q45 61 107 112q53 41 127 77t172 36q70 0 137.5 -16.5t117.5 -50t74.5 -89t8.5 -131.5l-105 -491q-6 -29 -23.5 -50.5t-35.5 -37.5q-23 -20 -47 -35h-41l121 573q14 70 -2.5 114 t-52 68.5t-83 34t-92.5 9.5q-59 0 -106 -19.5t-82 -42.5q-39 -27 -72 -61l101 -103q-14 -14 -29 -36q-12 -20 -24.5 -50t-22.5 -77l-86 -410h-123z" />
<glyph unicode="&#xe02;" horiz-adv-x="735" d="M153 170q-1 55 13 117l18 82q12 53 30.5 91t39 65.5t43 49t41.5 39.5q16 16 35.5 41t23.5 41q6 31 -6 56.5t-59 25.5h-123l22 103h123q92 0 139.5 -46.5t26.5 -138.5q-10 -51 -45 -92t-72 -72q-18 -16 -49.5 -57t-46.5 -106l-18 -82q-8 -39 -10.5 -76t8 -65.5t37 -46 t75.5 -17.5q45 0 80 19.5t58.5 49t38 65.5t20.5 71l127 594h123l-127 -594q-12 -61 -38 -116.5t-66 -97.5t-99 -66.5t-139 -24.5t-128 24.5t-71.5 66.5t-24.5 97z" />
<glyph unicode="&#xe03;" horiz-adv-x="735" d="M153 170q-1 55 13 117l22 102q14 61 54.5 119.5t95.5 105.5q18 16 46 36t38 67q6 31 -10.5 46t-38.5 15q-12 0 -27.5 -10t-32.5 -20q-18 -14 -34 -31q-10 16 -21 31q-10 12 -22.5 22t-26.5 10l22 101q16 0 30.5 -10.5t25.5 -20.5q12 -14 24 -31q16 16 39 31 q16 10 40 20.5t46 10.5q61 0 93 -43t16 -121q-14 -61 -47 -97t-70 -67q-10 -8 -26.5 -22.5t-34 -36t-34 -48t-22.5 -57.5l-22 -102q-8 -39 -10.5 -76t8 -65.5t37 -46t75.5 -17.5q45 0 80 20.5t58.5 51t39 67.5t21.5 72l125 588h123l-123 -580q-14 -68 -40 -126t-67 -101 t-100 -67.5t-139 -24.5t-128 24.5t-71.5 66.5t-24.5 97z" />
<glyph unicode="&#xe04;" horiz-adv-x="888" d="M76 0l129 614q14 70 57 123.5t103.5 90t130 55t139.5 18.5t131 -18.5t105 -55t64.5 -90t6.5 -123.5l-129 -614h-123l129 614q10 45 -4 80t-44 58.5t-72 35t-87 11.5q-47 0 -93 -11.5t-85 -35t-67.5 -58.5t-38.5 -80l-52 -245q37 35 78 61q35 23 80 42.5t94 19.5l-26 -123 q-49 0 -93 -16.5t-79 -35.5q-39 -23 -76 -51l-55 -266h-123z" />
<glyph unicode="&#xe05;" horiz-adv-x="888" d="M76 0l129 614q12 53 40.5 105.5t70.5 92.5t92.5 64.5t103.5 24.5q23 0 41 -16.5t33 -34.5q14 -23 26 -51q25 29 50 51q23 18 48 34.5t48 16.5q53 0 93 -24.5t64.5 -64.5t31.5 -92t-5 -106l-129 -614h-123l129 614q6 31 5 64t-10 59.5t-28.5 44t-50.5 17.5 q-16 0 -41.5 -19.5t-48.5 -42.5q-29 -27 -57 -61q-18 35 -35 61q-16 23 -31.5 42.5t-32.5 19.5q-31 0 -57 -17.5t-48 -44t-36 -59.5t-20 -64l-52 -245q37 35 78 61q35 23 80 42.5t94 19.5l-26 -123q-49 0 -93 -16.5t-79 -35.5q-39 -23 -76 -51l-55 -266h-123z" />
<glyph unicode="&#xe06;" horiz-adv-x="899" d="M106 0l84 401q14 72 48 110t71 65.5t69 57.5t44 83q6 31 -10.5 46t-38.5 15q-12 0 -27.5 -10t-32.5 -20q-18 -14 -34 -31q-10 16 -21 31q-10 12 -21.5 22t-27.5 10l22 101q14 0 29.5 -10.5t26.5 -20.5q12 -14 24 -31q16 16 39 31q16 10 40 20.5t46 10.5q61 0 93 -43 t16 -121q-14 -70 -48 -110t-72 -70.5t-69.5 -62.5t-44.5 -85l-35 -164q23 -35 56 -61q29 -23 69.5 -42.5t94.5 -19.5q123 0 187.5 61.5t90.5 184.5l113 533h123l-127 -594q-12 -53 -42 -107.5t-76 -98.5t-105.5 -71.5t-129.5 -27.5q-78 0 -130 21.5t-85 47.5q-37 31 -61 72 l-25 -123h-123z" />
<glyph unicode="&#xe07;" horiz-adv-x="745" d="M170 594h123l18 -492q55 0 112.5 24t107 69t86 106t53.5 139q16 76 4 138.5t-45 107.5t-83 68.5t-112 23.5l23 103q92 0 163.5 -32t117.5 -89.5t60.5 -138t-5.5 -181.5q-20 -100 -73.5 -181t-123.5 -138.5t-149.5 -89t-155.5 -31.5h-103z" />
<glyph unicode="&#xe08;" horiz-adv-x="847" d="M197 717q31 51 84 92q43 35 112.5 63.5t169.5 28.5t172 -36t115 -96t55.5 -140t-6.5 -168q-20 -96 -64 -180t-106.5 -146.5t-142.5 -98.5t-172 -36h-103l-12 328q-4 16 -12 18t-25 2h-41l21 103h82q47 0 65.5 -15.5t24.5 -46.5l20 -287q68 0 125 32t100 82t73 114.5 t44 130.5q18 88 4 151.5t-49 105.5t-86 61.5t-104 19.5q-78 0 -138.5 -29t-101.5 -63q-49 -41 -86 -93z" />
<glyph unicode="&#xe09;" horiz-adv-x="878" d="M127 389l23 103h81q61 0 83 -41t8 -107l-13 -57q-10 -47 -12 -81t10 -57.5t43 -35t84 -11.5t106.5 19.5t94.5 42.5q49 27 92 61l66 307q27 123 -19.5 195t-171.5 72q-61 0 -117.5 -19.5t-99.5 -42.5q-51 -27 -94 -61l-21 102q45 35 101 62q47 23 111.5 42t142.5 19 q188 0 257.5 -97t37.5 -251l-117 -553h-123l25 123q-47 -41 -101 -72q-47 -27 -107.5 -48t-129.5 -21q-123 0 -169 84t-12 221l11 41q4 16 5 38.5t-18 22.5h-57z" />
<glyph unicode="&#xe0a;" horiz-adv-x="786" d="M153 161q-1 52 11 111l20 97q12 53 29.5 91t39 65.5t44 49t41.5 39.5q16 16 35.5 41t23.5 41q6 31 -6 56.5t-59 25.5h-123l22 103h123q92 0 139.5 -46.5t26.5 -138.5q-10 -51 -45 -92t-72 -72q-18 -16 -49.5 -57t-46.5 -106l-22 -105q-8 -35 -9.5 -67.5t12 -58t45.5 -41 t91 -15.5q49 0 90 24.5t71.5 60.5t51 76t27.5 72q12 53 11 102.5t-16.5 86.5t-46 58.5t-75.5 21.5l22 102q45 0 90 31t83 82t66.5 119.5t45.5 146.5h123q-29 -131 -75 -214t-93 -130t-84 -65.5t-45 -20.5q4 -2 29.5 -16.5t52 -50.5t41 -97t-6.5 -156q-12 -59 -39.5 -118.5 t-73.5 -107.5t-112.5 -77.5t-159.5 -29.5q-92 0 -145 23.5t-77.5 63.5t-25.5 92z" />
<glyph unicode="&#xe0b;" horiz-adv-x="786" d="M153 161q-1 52 11 111l24 117q12 61 53.5 119.5t96.5 105.5q18 16 46 36t38 67q6 31 -10.5 46t-38.5 15q-12 0 -27.5 -10t-32.5 -20q-18 -14 -34 -31q-10 16 -21 31q-10 12 -22.5 22t-26.5 10l22 101q16 0 30.5 -10.5t25.5 -20.5q12 -14 24 -31q16 16 39 31 q16 10 40 20.5t46 10.5q61 0 93 -43t16 -121q-14 -61 -47 -97t-70 -67q-10 -8 -26.5 -22.5t-34 -36t-34 -48t-22.5 -57.5l-26 -125q-8 -35 -9.5 -67.5t12 -58t45.5 -41t91 -15.5q49 0 90 24.5t71.5 60.5t51 76t27.5 72q12 53 11 102.5t-16.5 86.5t-46 58.5t-75.5 21.5 l22 102q45 0 90 31t83 82t66.5 119.5t45.5 146.5h123q-29 -131 -75 -214t-93 -130t-84 -65.5t-45 -20.5q4 -2 29.5 -16.5t52 -50.5t41 -97t-6.5 -156q-12 -59 -39.5 -118.5t-73.5 -107.5t-113 -77.5t-159 -29.5t-145 23.5t-77.5 63.5t-25.5 92z" />
<glyph unicode="&#xe0c;" horiz-adv-x="1411" d="M156 143l57 267q8 39 21.5 68.5t25.5 51.5q14 25 29 43l-51 52q-18 18 -35 33.5t-15 17.5q45 61 107 112q53 41 127 77t172 36q70 0 137.5 -16.5t117.5 -50t74.5 -89t8.5 -131.5l-82 -389q16 -35 45 -61q23 -23 61.5 -42.5t92.5 -19.5q61 0 101 15.5t65.5 46.5t42 77 t28.5 107l113 533h123l-127 -594q-12 -53 -36 -107.5t-63 -98.5t-91 -71.5t-122 -27.5q-78 0 -127 21.5t-77 47.5q-35 31 -52 72l-24 -123h-123l121 573q14 70 -2.5 114t-52 68.5t-83 34t-92.5 9.5q-59 0 -106 -19.5t-82 -42.5q-39 -27 -72 -61l101 -103q-14 -14 -29 -36 q-12 -20 -24.5 -50t-22.5 -77l-57 -267q-4 -16 -4.5 -27.5t16.5 -13.5h61l-20 -102h-82q-61 0 -86 33t-8 110z" />
<glyph unicode="&#xe0d;" horiz-adv-x="1411" d="M156 143l57 267q8 39 21.5 68.5t25.5 51.5q14 25 29 43l-51 52q-18 18 -35 33.5t-15 17.5q45 61 107 112q53 41 127 77t172 36q70 0 137.5 -16.5t117.5 -50t74.5 -89t8.5 -131.5l-68 -321q-18 -92 10.5 -141.5t126.5 -49.5q55 0 102.5 19.5t82.5 42.5q39 27 74 61 l139 656h123l-170 -797q-16 -78 -63.5 -141.5t-109 -109.5t-129 -71.5t-126.5 -25.5t-105.5 15.5t-75.5 35.5q-37 23 -59 51l64 103q16 -29 45 -52q23 -20 60.5 -35.5t90.5 -15.5q98 0 181 73t110 202l2 10q-37 -41 -84 -72q-41 -27 -94 -48t-119 -21q-78 0 -123 23.5 t-66.5 66.5t-21.5 101t14 128l58 272q14 70 -2.5 114t-52 68.5t-83 34t-92.5 9.5q-59 0 -106 -19.5t-82 -42.5q-39 -27 -72 -61l101 -103q-14 -14 -29 -36q-12 -20 -24.5 -50t-22.5 -77l-57 -267q-4 -16 -4.5 -27.5t16.5 -13.5h61l-20 -102h-82q-61 0 -86 33t-8 110z" />
<glyph unicode="&#xe0e;" horiz-adv-x="878" d="M-4 -344l16 102q70 0 128.5 15.5t99.5 36.5q49 23 88 51q25 -29 55 -51q27 -20 59.5 -36t71.5 -16q66 0 95.5 30t43.5 93l148 692q14 70 -2.5 114t-52 68.5t-83 34t-92.5 9.5q-59 0 -106 -19.5t-82 -42.5q-39 -27 -72 -61l101 -103q-14 -14 -29 -36q-12 -20 -24.5 -50 t-22.5 -77l-57 -267q-16 -78 -53.5 -110.5t-98.5 -32.5h-82l21 102h61q16 2 20.5 13.5t8.5 27.5l57 267q8 39 21.5 68.5t25.5 51.5q14 25 29 43l-51 52q-18 18 -35 33.5t-15 17.5q45 61 107 112q53 41 127 77t172 36q70 0 137.5 -16.5t117.5 -50t74.5 -89t8.5 -131.5 l-160 -753q-6 -25 -18.5 -59.5t-41 -66.5t-76.5 -55.5t-124 -23.5q-47 0 -86 15.5t-66 35.5q-33 23 -55 51q-37 -29 -86 -51q-41 -20 -98.5 -35.5t-124.5 -15.5z" />
<glyph unicode="&#xe0f;" horiz-adv-x="878" d="M-4 -342l16 100q37 0 80 15.5t78 36.5q41 23 82 51l55 -103l94 103q0 -4 8.5 -20.5t24 -35t38 -33t52.5 -14.5q63 0 91 36t34 69l152 710q14 70 -2.5 114t-52 68.5t-83 34t-92.5 9.5q-59 0 -106 -19.5t-82 -42.5q-39 -27 -72 -61l101 -103q-14 -14 -29 -36 q-12 -20 -24.5 -50t-22.5 -77l-57 -267q-16 -78 -53.5 -110.5t-98.5 -32.5h-82l21 102h61q16 2 20.5 13.5t8.5 27.5l57 267q8 39 21.5 68.5t25.5 51.5q14 25 29 43l-51 52q-18 18 -35 33.5t-15 17.5q45 61 107 112q53 41 127 77t172 36q70 0 137.5 -16.5t117.5 -50t74.5 -89 t8.5 -131.5l-156 -733q-4 -23 -15 -60.5t-39 -74.5t-75 -63.5t-123 -26.5q-33 0 -58.5 15.5t-45.5 35.5q-23 23 -41 51l-92 -102l-58 102q-39 -29 -79 -51q-35 -18 -77 -33.5t-77 -15.5z" />
<glyph unicode="&#xe10;" horiz-adv-x="847" d="M-23 -428l21 102q53 0 94 15.5t70 36.5q35 23 59 51l49 -103l95 103q0 -2 7 -18.5t22.5 -35t38 -34t52.5 -15.5q31 0 49.5 10.5t29.5 23.5t15.5 26.5t6.5 21.5l22 103h123l-22 -103q-2 -8 -11.5 -37.5t-33 -62.5t-66.5 -58.5t-113 -25.5q-47 0 -73.5 15.5t-42.5 35.5 q-18 23 -27 51l-92 -102l-51 102q-27 -29 -60 -51q-29 -20 -68.5 -35.5t-93.5 -15.5zM197 717q31 51 84 92q43 35 112.5 63.5t169.5 28.5q88 0 158 -29q23 6 50.5 17.5t52 28t44 37t25.5 49.5h123q-10 -41 -32.5 -72t-51.5 -53.5t-61.5 -37t-63.5 -22.5q68 -61 91.5 -155.5 t0.5 -202.5q-20 -96 -64 -180t-106.5 -146.5t-142.5 -98.5t-172 -36h-103l-12 328q-4 16 -12 18t-25 2h-41l21 103h82q47 0 65.5 -15.5t24.5 -46.5l20 -287q68 0 125 32t100 82t73 114.5t44 130.5q18 88 4 151.5t-49 105.5t-86 61.5t-104 19.5q-78 0 -138.5 -29t-101.5 -63 q-49 -41 -86 -93z" />
<glyph unicode="&#xe11;" horiz-adv-x="899" d="M106 0l46 217q23 111 66.5 195t87.5 146.5t79 105.5t41 73q6 31 -10.5 46.5t-38.5 15.5q-12 0 -27.5 -10.5t-32.5 -20.5q-18 -14 -34 -31q-8 16 -19 31q-10 12 -21.5 22.5t-27.5 10.5l21 100q14 0 29.5 -10t25.5 -21q12 -14 24 -30q16 16 39 30q16 10 40 20.5t46 10.5 q23 0 44.5 -8t37 -23.5t22.5 -38t1 -53.5q29 35 65 62q31 23 71 42t87 19q53 0 93 -27.5t62.5 -71.5t30 -99.5t-5.5 -108.5l-125 -594h-123l113 532q27 123 -2 184.5t-90 61.5q-53 0 -104.5 -29.5t-97.5 -76.5t-87 -105.5t-71.5 -115t-50 -106.5t-25.5 -79q0 -8 -2 -14 q-4 -16 -4 -19l-50 -233h-123z" />
<glyph unicode="&#xe12;" horiz-adv-x="1411" d="M122 264q-5 86 17 187q25 121 65 206.5t88 140t102.5 79t107.5 24.5q16 0 32.5 -16.5t32.5 -34.5q18 -23 35 -51q31 29 57 51q23 18 47.5 34.5t41.5 16.5q53 0 94 -22.5t65.5 -59.5t32.5 -86t-4 -102l-86 -406q16 -35 45 -61q23 -23 61.5 -42.5t92.5 -19.5q61 0 101 15.5 t65.5 46.5t42 77t28.5 107l113 533h123l-127 -594q-12 -53 -36 -107.5t-63 -98.5t-91 -71.5t-122 -27.5q-78 0 -127 21.5t-77 47.5q-35 31 -52 72l-24 -123h-123l133 631q14 66 -8.5 117t-79.5 51q-16 0 -42 -19.5t-48 -42.5q-29 -27 -57 -61q-18 35 -35 61 q-16 23 -31.5 42.5t-32.5 19.5q-23 0 -51.5 -17.5t-58 -57.5t-58 -106.5t-49.5 -166.5q-16 -78 -18 -144.5t14 -117t53 -79t99 -28.5q39 0 63 10q12 4 23 10l-21 -102q-10 -6 -22 -10q-10 -4 -26.5 -6t-39.5 -2q-84 0 -141.5 35.5t-88 98t-35.5 148.5z" />
<glyph unicode="&#xe13;" horiz-adv-x="1411" d="M156 143l57 267q8 39 21.5 68.5t25.5 51.5q14 25 29 43l-51 52q-18 18 -35 33.5t-15 17.5q45 61 107 112q53 41 127 77t172 36q70 0 137.5 -16.5t117.5 -50t74.5 -89t8.5 -131.5l-55 -266q-12 -61 -16.5 -107t8 -77t45 -46.5t94.5 -15.5q53 0 99 19.5t81 42.5 q39 27 72 61l139 656h123l-187 -881h-123l25 123q-35 -41 -82 -72q-41 -27 -99.5 -48t-135.5 -21q-70 0 -111 27.5t-60.5 71.5t-20.5 98t11 108l62 286q14 70 -2.5 114t-52 68.5t-83 34t-92.5 9.5q-59 0 -106 -19.5t-82 -42.5q-39 -27 -72 -61l101 -103q-14 -14 -29 -36 q-12 -20 -24.5 -50t-22.5 -77l-57 -267q-4 -16 -4.5 -27.5t16.5 -13.5h61l-20 -102h-82q-61 0 -86 33t-8 110z" />
<glyph unicode="&#xe14;" horiz-adv-x="878" d="M124 256q-7 86 15 195q27 123 80 208.5t120 139t141.5 78t144.5 24.5t132 -16.5t106 -50t64.5 -89t4.5 -131.5l-129 -614h-123l129 614q10 45 -4 80t-44 58.5t-72 35t-87 11.5q-47 0 -98 -20.5t-98.5 -63.5t-86 -108.5t-57.5 -155.5q-16 -78 -18 -144.5t14 -117t53 -79 t99 -28.5q41 0 65 10q12 4 21 10l-21 -102q-8 -6 -20 -10q-10 -4 -27.5 -6t-40.5 -2q-78 0 -134 32.5t-89 94t-40 147.5z" />
<glyph unicode="&#xe15;" horiz-adv-x="878" d="M122 264q-5 86 17 187q25 121 65 206.5t88 140t102.5 79t107.5 24.5q23 0 41 -16.5t32 -34.5q14 -23 27 -51q25 29 49 51q23 18 48.5 34.5t48.5 16.5q45 0 84.5 -22.5t66.5 -59.5t38 -86t-1 -102l-133 -631h-123l133 631q14 66 -13.5 117t-74.5 51q-16 0 -42 -19.5 t-48 -42.5q-29 -27 -57 -61q-18 35 -35 61q-16 23 -31.5 42.5t-32.5 19.5q-23 0 -51.5 -17.5t-58 -57.5t-58 -106.5t-49.5 -166.5q-16 -78 -18 -144.5t14 -117t53 -79t99 -28.5q39 0 63 10q12 4 23 10l-21 -102q-10 -6 -22 -10q-10 -4 -26.5 -6t-39.5 -2q-84 0 -141.5 35.5 t-88 98t-35.5 148.5z" />
<glyph unicode="&#xe16;" horiz-adv-x="878" d="M156 143l57 267q8 39 21.5 68.5t25.5 51.5q14 25 29 43l-51 52q-18 18 -35 33.5t-15 17.5q45 61 107 112q53 41 127 77t172 36q70 0 137.5 -16.5t117.5 -50t74.5 -89t8.5 -131.5l-105 -491q-6 -29 -23.5 -50.5t-35.5 -37.5q-23 -20 -47 -35h-41l121 573q14 70 -2.5 114 t-52 68.5t-83 34t-92.5 9.5q-59 0 -106 -19.5t-82 -42.5q-39 -27 -72 -61l101 -103q-14 -14 -29 -36q-12 -20 -24.5 -50t-22.5 -77l-57 -267q-4 -16 -4.5 -27.5t16.5 -13.5h61l-20 -102h-82q-61 0 -86 33t-8 110z" />
<glyph unicode="&#xe17;" horiz-adv-x="868" d="M76 0l186 881h123l-27 -123q39 39 93 71q45 27 106 49.5t139 22.5q70 0 117 -27.5t74.5 -71.5t35 -99.5t-4.5 -108.5l-125 -594h-123l112 532q27 123 -12 184.5t-162 61.5q-53 0 -102 -19.5t-86 -41.5q-43 -27 -82 -62l-139 -655h-123z" />
<glyph unicode="&#xe18;" horiz-adv-x="868" d="M152 266q8 35 13 61.5t9 45.5q4 23 8 37h123q-2 -16 -8 -39l-10 -45t-13 -60q-14 -68 2.5 -104.5t48 -55t69.5 -21.5t67 -3q104 0 176 52t86 122q18 90 -16.5 132t-97 59.5t-138.5 22.5t-137.5 21.5t-97 56.5t-17.5 128q14 70 61.5 114t108 69.5t127 34.5t119.5 9 q61 0 117.5 -12t99.5 -29q51 -18 94 -41l-22 -102q-43 23 -95 41q-43 16 -98 28.5t-117 12.5q-31 0 -73.5 -2t-83.5 -14.5t-73 -38t-42 -70.5q-8 -43 12.5 -64.5t60.5 -32t92 -14.5t106.5 -11t104.5 -22.5t85 -47t48 -87t-5 -141.5q-10 -49 -39 -98t-79 -88t-121.5 -63.5 t-168.5 -24.5q-35 0 -92 5t-108.5 31.5t-80 85t-5.5 162.5z" />
<glyph unicode="&#xe19;" horiz-adv-x="868" d="M130 179q-7 54 5 108l127 594h123l-113 -533q-27 -123 11.5 -184.5t160.5 -61.5q53 0 102.5 19.5t88.5 42.5q43 27 82 61l139 656h123l-186 -881h-123l24 123q-39 -41 -92 -72q-45 -27 -106.5 -48t-139.5 -21q-70 0 -116.5 27.5t-74.5 71.5t-35 98z" />
<glyph unicode="&#xe1a;" horiz-adv-x="847" d="M131 184.5q-4 57.5 8 116.5l123 580h123l-125 -588q-8 -35 -6 -72t16.5 -67.5t44 -51t78.5 -20.5h86q49 0 88 20.5t69 51t48 67.5t27 72l125 588h122l-122 -580q-12 -59 -42 -116.5t-75 -102.5t-104.5 -72.5t-129.5 -27.5h-143q-70 0 -115 27.5t-68.5 72.5t-27.5 102.5z " />
<glyph unicode="&#xe1b;" horiz-adv-x="847" d="M131 184.5q-4 57.5 8 116.5l123 580h123l-125 -588q-8 -35 -6 -72t16.5 -67.5t44 -51t78.5 -20.5h86q49 0 88 20.5t69 51t48 67.5t27 72l182 854h123l-180 -846q-12 -59 -42 -116.5t-75 -102.5t-104.5 -72.5t-129.5 -27.5h-143q-70 0 -115 27.5t-68.5 72.5t-27.5 102.5z " />
<glyph unicode="&#xe1c;" horiz-adv-x="1024" d="M189.5 427q0.5 120 27.5 247q6 33 19.5 68.5t34 66.5t51 51.5t73.5 20.5h86l-22 -103h-58q-16 0 -27.5 -12t-19.5 -29.5t-13 -35t-7 -29.5q-20 -92 -21.5 -175t2.5 -149q6 -76 21 -143l264 430h62l83 -430q41 53 84 147q37 78 84.5 207t98.5 322h123q-59 -211 -124 -375 t-120 -277q-66 -131 -127 -229h-82l-92 440l-277 -440h-82q-23 98 -32 211q-10 96 -9.5 216z" />
<glyph unicode="&#xe1d;" horiz-adv-x="1024" d="M189.5 427q0.5 120 27.5 247q6 33 19.5 68.5t34 66.5t51 51.5t73.5 20.5h86l-22 -103h-58q-16 0 -27.5 -12t-19.5 -29.5t-13 -35t-7 -29.5q-20 -92 -21.5 -175t2.5 -149q6 -76 21 -143l264 430h62l83 -430q53 90 109 227q47 117 105.5 298t113.5 437h123 q-61 -287 -136 -504t-140 -364q-78 -172 -156 -299h-82l-92 440l-277 -440h-82q-23 98 -32 211q-10 96 -9.5 216z" />
<glyph unicode="&#xe1e;" horiz-adv-x="1069" d="M201 881h116l45 -629l322 629h74l53 -629l313 629h117l-436 -881h-76l-55 664l-332 -664h-76z" />
<glyph unicode="&#xe1f;" horiz-adv-x="1150" d="M201 881h116l45 -629l322 629h74l53 -629l457 915h116l-579 -1167h-76l-55 664l-332 -664h-76z" />
<glyph unicode="&#xe20;" horiz-adv-x="878" d="M45 0l21 102h61q16 2 20.5 13.5t8.5 27.5l57 267q8 39 21.5 68.5t25.5 51.5q14 25 29 43l-51 52q-18 18 -35 33.5t-15 17.5q45 61 107 112q53 41 127 77t172 36q70 0 137.5 -16.5t117.5 -50t74.5 -89t8.5 -131.5l-105 -491q-6 -29 -23.5 -50.5t-35.5 -37.5 q-23 -20 -47 -35h-41l121 573q14 70 -2.5 114t-52 68.5t-83 34t-92.5 9.5q-59 0 -106 -19.5t-82 -42.5q-39 -27 -72 -61l101 -103q-14 -14 -29 -36q-12 -20 -24.5 -50t-22.5 -77l-57 -267q-16 -78 -53.5 -110.5t-98.5 -32.5h-82z" />
<glyph unicode="&#xe21;" horiz-adv-x="868" d="M76 0l186 881h123l-139 -656q23 -35 55 -61q29 -23 70 -42.5t94 -19.5q123 0 187.5 61.5t90.5 184.5l113 533h123l-127 -594q-12 -53 -42 -107.5t-76 -98.5t-105.5 -71.5t-128.5 -27.5q-78 0 -130.5 21.5t-84.5 47.5q-37 31 -62 72l-24 -123h-123z" />
<glyph unicode="&#xe22;" horiz-adv-x="817" d="M92 146.5q-6 50.5 6 109.5q16 72 57.5 120t86.5 77q53 33 114 49q-47 10 -84 35q-31 23 -52 60.5t-7 98.5q12 57 41 96t64.5 64t73.5 35t69 10q39 0 65.5 -3t42.5 -7q20 -6 31 -10l-22 -103q-12 4 -29 10q-16 4 -38 7.5t-52 3.5q-47 0 -81 -31t-42 -72q-14 -66 41 -104.5 t153 -38.5l-22 -102q-66 0 -116 -20.5t-86 -50.5t-57.5 -63.5t-27.5 -60.5q-8 -37 -4 -69.5t24.5 -55t59.5 -36t105 -13.5q63 0 111 20.5t82 51t53.5 67.5t27.5 72l125 588h123l-123 -580q-12 -59 -43 -116.5t-83 -102.5t-126 -72.5t-170 -27.5t-157.5 20.5t-94.5 57t-39 87 z" />
<glyph unicode="&#xe23;" horiz-adv-x="724" d="M88 61l23 103q31 -23 69 -41q33 -16 79 -28.5t99 -12.5q102 0 153.5 52t68.5 122q12 59 -14.5 89t-74 47.5t-101.5 31.5t-99 41t-67.5 75t-4.5 136q12 53 45 95t79 70.5t101.5 44t108.5 15.5q61 0 104 -12t72 -29q33 -18 53 -41l-22 -102q-20 23 -53 41q-29 16 -72 28.5 t-105 12.5q-61 0 -117.5 -31t-70.5 -92q-12 -57 15.5 -86t73.5 -47.5t100.5 -33.5t98.5 -44t67.5 -77t4.5 -132q-10 -49 -32.5 -98t-64.5 -88t-107.5 -63.5t-161.5 -24.5q-61 0 -108.5 11t-77.5 27q-37 18 -62 41z" />
<glyph unicode="&#xe24;" horiz-adv-x="878" d="M156 143l57 267q8 39 21.5 68.5t25.5 51.5q14 25 29 43l-51 52q-18 18 -35 33.5t-15 17.5q45 61 107 112q53 41 127 77t172 36q70 0 137.5 -16.5t117.5 -50t74.5 -89t8.5 -131.5l-195 -919q-6 -29 -23.5 -50.5t-35.5 -37.5q-23 -20 -49 -35h-41l213 1001q14 70 -2.5 114 t-52 68.5t-83 34t-92.5 9.5q-59 0 -106 -19.5t-82 -42.5q-39 -27 -72 -61l101 -103q-14 -14 -29 -36q-12 -20 -24.5 -50t-22.5 -77l-57 -267q-4 -16 -4.5 -27.5t16.5 -13.5h61l-20 -102h-82q-61 0 -86 33t-8 110z" />
<glyph unicode="&#xe25;" horiz-adv-x="796" d="M92 225q16 76 58.5 127t99.5 82t121.5 44.5t126.5 13.5q70 0 111.5 6t64.5 14q27 8 37 20l10 54q8 41 4 80t-22.5 68.5t-52.5 47t-89 17.5q-70 0 -129 -29t-102 -63q-53 -41 -94 -93l-19 103q37 51 90 92q47 35 116 63.5t161 28.5q170 0 229 -89t25 -259l-117 -553h-123 l90 430q-16 -12 -45 -20q-25 -8 -65.5 -14.5t-102.5 -6.5q-31 0 -72 -8t-78.5 -27.5t-68.5 -51.5t-41 -77q-8 -39 0 -65.5t27.5 -44t47 -25.5t58.5 -8q45 0 76 10q16 4 31 10l-21 -102q-14 -6 -31 -10q-16 -4 -35.5 -6t-41.5 -2q-139 0 -199.5 60t-34.5 183z" />
<glyph unicode="&#xe26;" horiz-adv-x="878" d="M45 0l21 102h61q16 2 20.5 13.5t8.5 27.5l57 267q8 39 21.5 68.5t25.5 51.5q14 25 29 43l-51 52q-18 18 -35 33.5t-15 17.5q45 61 107 112q53 41 127 77t172 36q70 0 137.5 -16.5t117.5 -50t74.5 -89t8.5 -131.5l-195 -919q-6 -29 -23.5 -50.5t-35.5 -37.5 q-23 -20 -49 -35h-41l213 1001q14 70 -2.5 114t-52 68.5t-83 34t-92.5 9.5q-59 0 -106 -19.5t-82 -42.5q-39 -27 -72 -61l101 -103q-14 -14 -29 -36q-12 -20 -24.5 -50t-22.5 -77l-57 -267q-16 -78 -53.5 -110.5t-98.5 -32.5h-82z" />
<glyph unicode="&#xe27;" horiz-adv-x="786" d="M61 82l64 102q18 -29 49 -51q27 -20 70 -35.5t104 -15.5t119.5 25.5t107 72.5t84 113.5t52.5 146.5q35 162 -29 250t-186 88q-61 0 -109.5 -12t-83.5 -29q-39 -18 -70 -41l-20 103q27 29 70 51q37 18 95 34.5t144 16.5q84 0 152.5 -30.5t111.5 -89t57.5 -144.5t-9.5 -197 q-25 -111 -75 -196.5t-119 -144t-149.5 -88t-164.5 -29.5q-86 0 -137.5 15t-79.5 34q-35 23 -48 51z" />
<glyph unicode="&#xe28;" horiz-adv-x="888" d="M76 0l129 614q14 70 57 123.5t103.5 90t130 55t139.5 18.5q68 0 127 -18q43 16 87 44.5t54 76.5h123q-16 -68 -63.5 -108t-100.5 -62q49 -35 72.5 -91.5t7.5 -128.5l-129 -614h-123l129 614q10 45 -4 80t-44 58.5t-72 35t-87 11.5q-47 0 -93 -11.5t-85 -35t-67.5 -58.5 t-38.5 -80l-52 -245q37 35 78 61q35 23 80 42.5t94 19.5l-26 -123q-49 0 -93 -16.5t-79 -35.5q-39 -23 -76 -51l-55 -266h-123z" />
<glyph unicode="&#xe29;" horiz-adv-x="847" d="M131 184.5q-4 57.5 8 116.5l123 580h123l-125 -588q-8 -35 -6 -72t16.5 -67.5t44 -51t78.5 -20.5h86q49 0 88 20.5t69 51t49.5 67.5t25.5 72l28 137h-184l23 102h184l74 347h122l-73 -347h61l-22 -102h-62l-26 -129q-12 -59 -42 -116.5t-75 -102.5t-104.5 -72.5 t-129.5 -27.5h-143q-70 0 -115 27.5t-68.5 72.5t-27.5 102.5z" />
<glyph unicode="&#xe2a;" horiz-adv-x="796" d="M92 225q16 76 58.5 127t99.5 82t121.5 44.5t126.5 13.5q70 0 111.5 6t64.5 14q27 8 37 20l10 54q8 41 4 80t-22.5 68.5t-52.5 47t-89 17.5q-70 0 -129 -29t-102 -63q-53 -41 -94 -93l-19 103q37 51 90 92q47 35 116 63.5t161 28.5q57 0 104 -12q41 16 77 45t46 70h123 q-14 -61 -56 -100.5t-92 -61.5q94 -86 52 -289l-117 -553h-123l90 430q-16 -12 -45 -20q-25 -8 -65.5 -14.5t-102.5 -6.5q-31 0 -72 -8t-78.5 -27.5t-68.5 -51.5t-41 -77q-8 -39 0 -65.5t27.5 -44t47 -25.5t58.5 -8q45 0 76 10q16 4 31 10l-21 -102q-14 -6 -31 -10 q-16 -4 -35.5 -6t-41.5 -2q-139 0 -199.5 60t-34.5 183z" />
<glyph unicode="&#xe2b;" horiz-adv-x="827" d="M76 0l186 881h123l-82 -389l471 389h162l-358 -295q39 -8 86 -27.5t84.5 -57.5t55 -100.5t-0.5 -154.5l-51 -246h-123l45 217q18 86 0.5 143.5t-49 92t-68.5 50t-57 19.5l-232 -194l-69 -328h-123z" />
<glyph unicode="&#xe2c;" horiz-adv-x="1150" d="M201 881h116l45 -629l322 629h74l53 -629l246 491q6 12 10 25.5t8 24.5q8 39 -6 67.5t-35 46.5q-23 23 -57 35q74 18 133 51q51 27 97 70t61 104h116q-16 -78 -62 -122t-95 -66q-57 -27 -127 -37q31 -16 53 -39q18 -20 31.5 -49t5.5 -68q-2 -10 -6 -20t-8 -21l-371 -745 h-76l-55 664l-332 -664h-76z" />
<glyph unicode="&#xe2d;" horiz-adv-x="868" d="M108.5 175.5q-16.5 62.5 2.5 141.5q14 68 41.5 101t89.5 33h184l-20 -103h-134q-31 0 -39 -31q-8 -43 -4 -85t27 -75.5t67 -54t117 -20.5q147 0 232.5 98.5t120.5 259.5q16 78 12 143.5t-29.5 113.5t-72 75t-111.5 27q-82 0 -138.5 -29t-91.5 -63q-41 -41 -67 -93h-121 q33 80 92 144q51 53 135 98t213 45q111 0 178.5 -43t100.5 -109.5t36 -148.5t-14 -160q-25 -119 -76 -206t-117.5 -143t-145 -82.5t-158.5 -26.5t-145.5 22.5t-106.5 65.5t-57.5 105.5z" />
<glyph unicode="&#xe2e;" horiz-adv-x="868" d="M108.5 175.5q-16.5 62.5 2.5 141.5q14 68 41.5 101t89.5 33h184l-20 -103h-134q-31 0 -39 -31q-8 -43 -4 -85t27 -75.5t67 -54t117 -20.5q147 0 232.5 98.5t120.5 259.5q16 78 12 143.5t-29.5 113.5t-72 75t-111.5 27q-82 0 -138.5 -29t-91.5 -63q-41 -41 -67 -93h-121 q33 80 92 144q51 53 135 98t213 45q61 0 115 -16q20 6 45 16t46.5 24.5t37.5 34t23 44.5h114q-16 -72 -67 -111t-105 -57q41 -33 64.5 -79t34 -98.5t8.5 -108.5t-15 -110q-25 -119 -76 -206t-117.5 -143t-145 -82.5t-158.5 -26.5t-145.5 22.5t-106.5 65.5t-57.5 105.5z" />
<glyph unicode="&#xe2f;" horiz-adv-x="796" d="M231 881h123q2 -86 31 -135.5t115 -49.5t164.5 47.5t119.5 137.5h123l-123 -580q-16 -74 -34.5 -129t-49 -94t-74.5 -58.5t-108 -19.5l21 102q20 0 36.5 4.5t29.5 24t26.5 60t30.5 116.5l92 430q-33 -41 -74 -71q-35 -27 -86 -49.5t-117 -22.5q-129 0 -191.5 75.5 t-54.5 211.5z" />
<glyph unicode="&#xe30;" horiz-adv-x="520" d="M135 287l15 61h114l-16 -76q-6 -27 8 -38t68 -11h168l-64 -100h-156q-86 0 -122.5 35t-14.5 129zM231 737l13 62h114l-14 -76q-4 -27 8.5 -38t65.5 -11h168l-62 -101h-155q-86 0 -121 35t-17 129z" />
<glyph unicode="&#xe31;" d="M-244 1198l13 62h114l-16 -76q-6 -27 8 -38t68 -11h358l-61 -101h-346q-86 0 -121 35t-17 129z" />
<glyph unicode="&#xe32;" horiz-adv-x="694" d="M197 717l22 102q31 23 68 41q33 16 77 28.5t97 12.5q59 0 116.5 -19.5t99.5 -59.5t61.5 -101.5t0.5 -147.5l-121 -573h-122l116 553q14 63 3 110.5t-38.5 77t-68.5 44t-90 14.5q-47 0 -88 -12.5t-70 -28.5q-37 -18 -63 -41z" />
<glyph unicode="&#xe33;" horiz-adv-x="694" d="M-146 1133.5q-7 29.5 1 64.5q14 68 71.5 116t122.5 48q68 0 106 -48t23 -116q-16 -68 -72.5 -116t-121.5 -48q-35 0 -61.5 13.5t-44 35t-24.5 51zM-43 1198q-6 -27 7 -44t36 -17q25 0 47.5 17t28.5 44q4 25 -10.5 43.5t-38.5 18.5q-23 0 -44.5 -18.5t-25.5 -43.5z M197 717l22 102q31 23 68 41q33 16 77 28.5t97 12.5q59 0 116.5 -19.5t99.5 -59.5t61.5 -101.5t0.5 -147.5l-121 -573h-122l116 553q14 63 3 110.5t-38.5 77t-68.5 44t-90 14.5q-47 0 -88 -12.5t-70 -28.5q-37 -18 -63 -41z" />
<glyph unicode="&#xe34;" d="M-471 1034l61 103h529l-21 -103h-569z" />
<glyph unicode="&#xe35;" d="M-471 1034l61 103h410l23 123h122l-47 -226h-569z" />
<glyph unicode="&#xe36;" d="M-471 1034l61 103h271q2 8 2 15t2 15q10 55 56 94t99 39q55 0 86 -38.5t21 -94.5q-12 -55 -58 -94t-100 -39h-440zM-33 1167q-4 -12 3 -21t20 -9q10 0 20 9t15 21q2 12 -5.5 21.5t-19.5 9.5q-10 0 -20.5 -9.5t-12.5 -21.5z" />
<glyph unicode="&#xe37;" d="M-471 1034l61 103h246l27 123h102l-26 -123h61l23 123h122l-47 -226h-569z" />
<glyph unicode="&#xe38;" d="M-352 -254l22 102h86q66 0 94.5 -38.5t14.5 -104.5l-31 -143h-123l29 135q4 18 -5 33.5t-30 15.5h-57z" />
<glyph unicode="&#xe39;" d="M-598 -254l23 102h86q66 0 94 -38.5t14 -104.5q-14 -61 47 -61t76 61l31 143h123l-33 -151q-6 -29 -18.5 -57.5t-37 -50t-63.5 -35t-98 -13.5t-92 13.5t-48.5 35t-16.5 50t5 57.5q4 18 -5 33.5t-30 15.5h-57z" />
<glyph unicode="&#xe3a;" d="M-254 -274l27 122h123l-27 -122h-123z" />
<glyph unicode="&#xe3f;" horiz-adv-x="786" d="M76 0l213 1004h196l37 172h117l-39 -175q123 -6 177 -71.5t34 -161.5q-16 -80 -77.5 -146.5t-147.5 -89.5q47 -8 86 -28.5t64.5 -51t34.5 -72.5t-1 -93q-12 -61 -48 -112.5t-86 -89.5t-113.5 -60.5t-133.5 -24.5l-37 -170h-116l36 170h-196zM219 102h156q51 0 97 14.5 t82 39t60.5 58.5t32.5 73q20 90 -36 142t-179 52h-133zM322 584h120q94 0 160 41t82 123q16 72 -23.5 112.5t-138.5 40.5h-133z" />
<glyph unicode="&#xe40;" horiz-adv-x="325" d="M104 143l158 738h123l-158 -738q-4 -16 -4 -27.5t17 -13.5h61l-20 -102h-82q-61 0 -86 33t-9 110z" />
<glyph unicode="&#xe41;" horiz-adv-x="673" d="M104 143l158 738h123l-158 -738q-4 -16 -4 -27.5t17 -13.5h61l-20 -102h-82q-61 0 -86 33t-9 110zM453 143l157 738h123l-158 -738q-4 -16 -4 -27.5t17 -13.5h61l-20 -102h-82q-61 0 -86 33t-8 110z" />
<glyph unicode="&#xe42;" horiz-adv-x="434" d="M213 143l147 688q14 63 17.5 111.5t3.5 85.5v66.5t6 58.5q20 92 96 135t228 43h186l-23 -102h-157q-109 0 -153 -17.5t-54 -64.5q-6 -27 -6 -55.5v-64.5t-3 -84t-18 -112l-147 -688q-4 -16 -4 -27.5t16 -13.5h62l-21 -102h-82q-61 0 -85.5 33t-8.5 110z" />
<glyph unicode="&#xe43;" horiz-adv-x="557" d="M264 1249q20 29 53 51q29 18 71 35t101 17q125 0 182.5 -63.5t28.5 -201.5q-10 -47 -22 -74.5t-26.5 -57t-29 -68.5t-28.5 -107l-135 -637q-4 -16 -4 -27.5t16 -13.5h61l-20 -102h-82q-61 0 -86 33t-8 110l135 637q12 61 28.5 104.5t31 78t27.5 64.5t20 60q18 92 -16 127 t-101 35q-41 0 -74 -16t-55 -35q-27 -23 -47 -51z" />
<glyph unicode="&#xe44;" horiz-adv-x="557" d="M260 1229l23 102q35 0 60.5 -11t42.5 -24.5t27.5 -27t12.5 -17.5q20 20 45 39q23 16 52.5 28.5t66.5 12.5q47 0 66.5 -23.5t22.5 -62.5t-6 -91t-22 -110l-192 -901q-4 -16 -4 -27.5t16 -13.5h61l-20 -102h-82q-61 0 -86 33t-8 110l192 901q4 20 13.5 55.5t11.5 67t-6 51 t-37 11.5q-18 -6 -35.5 -22.5t-32.5 -35.5q-16 -23 -30 -45q-14 29 -37 52q-18 18 -47 34.5t-68 16.5z" />
<glyph unicode="&#xe45;" horiz-adv-x="694" d="M197 717l22 102q31 23 68 41q33 16 77 28.5t97 12.5q59 0 116.5 -19.5t99.5 -59.5t61.5 -101.5t0.5 -147.5l-186 -878q-6 -29 -23.5 -50.5t-35.5 -37.5q-23 -20 -50 -35h-41l209 981q14 63 3 110.5t-38.5 77t-68.5 44t-90 14.5q-47 0 -88 -12.5t-70 -28.5 q-37 -18 -63 -41z" />
<glyph unicode="&#xe46;" horiz-adv-x="817" d="M179 530q-11 48 5 125q23 109 93.5 177.5t162.5 68.5q23 0 45.5 -16.5t38.5 -34.5q20 -23 37 -51q29 29 60 51q25 18 54.5 34.5t51.5 16.5q53 0 88 -21.5t52.5 -55t20.5 -79t-7 -90.5l-205 -960q-6 -29 -23.5 -50.5t-36.5 -37.5q-23 -20 -49 -35h-41l222 1042 q16 78 6.5 131.5t-70.5 53.5q-16 0 -42 -19.5t-48 -42.5q-29 -27 -57 -61q-18 35 -35 61q-16 23 -31.5 42.5t-32.5 19.5q-47 0 -83 -41t-48 -103q-10 -39 -6 -66.5t12 -43.5q8 -20 25 -33l-64 -102q-37 12 -61 45q-23 27 -34 75z" />
<glyph unicode="&#xe47;" d="M-423 1107q-9 28 1 71q12 53 39 85.5t59.5 50t65.5 22.5t55 5h164q45 0 77 9.5t54 21.5q25 12 41 31l-22 -103q-16 -12 -39 -20q-20 -8 -52 -14t-77 -6h-144q-61 0 -86.5 -27t-31.5 -55q-4 -18 6 -40t41 -22q27 0 45 9.5t30 21.5q14 12 23 31h39q-2 -18 4 -31 q4 -12 13 -21.5t30 -9.5q31 0 51.5 22.5t24.5 39.5h98q-14 -61 -61.5 -102.5t-108.5 -41.5q-23 0 -40 6.5t-30 14.5q-14 8 -24 20q-14 -12 -35 -20q-16 -8 -41 -14.5t-55 -6.5q-23 0 -46.5 6.5t-41 22.5t-26.5 44z" />
<glyph unicode="&#xe48;" d="M20 1034l48 226h122l-47 -226h-123z" />
<glyph unicode="&#xe49;" d="M-303 1157l20 103h144q31 0 51 -26t14 -56q-4 -16 5.5 -28.5t25.5 -12.5h283l-62 -103h-303q-47 0 -69.5 25.5t-16.5 56.5q6 27 -4 34t-23 7h-65z" />
<glyph unicode="&#xe4a;" d="M-355 1078.5q-3 15.5 1 37.5q14 61 63 102.5t111 41.5q23 0 39 -6.5t26 -14.5q11 -8 19 -20q12 12 26 20q12 8 29.5 14.5t40.5 6.5q61 0 86 -32t16 -71q-4 -16 1.5 -18t15.5 -2h121l-62 -103h-108q-53 0 -68.5 25.5t-7.5 56.5q4 23 -1 42.5t-26 19.5q-27 0 -44 -19.5 t-21 -42.5h-41q4 20 -1 41t-36 21q-16 0 -33.5 -19.5t-21.5 -42.5q-6 -23 -3 -38t9 -25q8 -10 18 -19h-123q-8 8 -16 19q-6 10 -9 25.5z" />
<glyph unicode="&#xe4b;" d="M-66 1096l23 102h98l13 62h122l-12 -62h103l-23 -102h-102l-13 -62h-123l13 62h-99z" />
<glyph unicode="&#xe4c;" d="M-166 1034l8 43q14 76 72.5 129.5t142.5 53.5h107l-62 -103h-36q-43 0 -70 -24.5t-33 -63.5l-6 -35h-123z" />
<glyph unicode="&#xe4d;" d="M-146 1133.5q-7 29.5 1 64.5q14 68 71.5 116t122.5 48q68 0 106 -48t23 -116q-16 -68 -72.5 -116t-121.5 -48q-35 0 -61.5 13.5t-44 35t-24.5 51zM-43 1198q-6 -27 7 -44t36 -17q25 0 47.5 17t28.5 44q4 25 -10.5 43.5t-38.5 18.5q-23 0 -44.5 -18.5t-25.5 -43.5z" />
<glyph unicode="&#xe4e;" d="M-233 1112q14 70 72.5 111t129.5 41q14 66 66.5 97.5t157.5 31.5l-15 -72q-31 0 -56.5 -2t-47 -15.5t-38 -43t-28.5 -82.5q-41 0 -80 -15.5t-49 -62.5q-4 -16 -2 -28.5t6 -20.5q6 -8 13 -17h-123q-16 37 -6 78z" />
<glyph unicode="&#xe4f;" horiz-adv-x="929" d="M152.5 218q-15.5 71 1.5 151q18 82 63 152.5t108.5 122.5t141.5 83t158 31q82 0 146.5 -31t106.5 -83t57 -122.5t-3 -152.5q-16 -80 -62.5 -151t-110 -123t-141 -82.5t-159.5 -30.5q-80 0 -144.5 30.5t-105.5 82.5t-56.5 123zM267.5 263.5q11.5 -50.5 41 -88.5 t74.5 -59.5t100 -21.5q57 0 111.5 21.5t100.5 59.5t78 88t44 106q12 57 1 107t-40.5 87t-75 58.5t-102.5 21.5q-55 0 -109.5 -21.5t-99.5 -58.5t-77.5 -87t-45.5 -107q-12 -55 -0.5 -105.5zM356 369q8 39 30 72.5t52.5 59t67.5 40t76 14.5q78 0 120.5 -54.5t26.5 -131.5 q-8 -39 -30.5 -73t-53.5 -59.5t-67.5 -40t-75.5 -14.5q-78 0 -120 54.5t-26 132.5z" />
<glyph unicode="&#xe50;" horiz-adv-x="870" d="M120 218q-15 71 3 151q16 80 62 151.5t109.5 123.5t141.5 83t158 31t145.5 -31t107.5 -83t57.5 -123.5t-1.5 -151.5q-18 -80 -64 -151t-110.5 -123t-142.5 -82.5t-158 -30.5t-144.5 30.5t-106.5 82.5t-57 123zM243 257.5q9 -52.5 36.5 -91.5t71.5 -61.5t100 -22.5 q55 0 108 22.5t98 61.5t78 91t45 112q12 59 2 111t-37.5 91t-71.5 61.5t-100 22.5q-55 0 -108 -22.5t-98 -61.5t-77 -91t-44 -111t-3 -111.5z" />
<glyph unicode="&#xe51;" horiz-adv-x="868" d="M134 323.5q-11 51.5 3 118.5q12 59 51 115.5t98.5 102t135.5 72t160 26.5q80 0 147.5 -26.5t111.5 -80t60.5 -131.5t-6.5 -182q-18 -92 -73.5 -169t-132.5 -132t-168 -86t-179 -31h-17.5t-19.5 2l51 98h9q57 0 122.5 24t124 66t101.5 100t59 128q16 80 7 140.5t-38.5 99 t-76 58t-103.5 19.5q-74 0 -128 -24.5t-91 -58t-56.5 -69.5t-25.5 -61q-14 -72 12.5 -124t71.5 -52q47 0 69.5 22.5t30.5 57.5l9 39h122l-8 -43q-6 -27 -21.5 -58.5t-44 -58t-72.5 -44t-105 -17.5q-43 0 -83 18.5t-68 54t-39 87z" />
<glyph unicode="&#xe52;" horiz-adv-x="1083" d="M229.5 130q-14.5 52 1.5 128l131 616q6 33 8.5 67t-9 61.5t-40 45t-81.5 17.5l20 100h31q76 0 119 -29.5t63.5 -73.5t21.5 -96.5t-10 -97.5l-131 -616q-10 -51 1.5 -84t34 -52.5t51 -26.5t51.5 -7h268q27 0 58.5 7t61 26.5t54 52.5t35.5 84l47 227q6 27 6 57.5t-7 57.5 t-24.5 44t-48.5 17q-20 0 -39.5 -12t-36.5 -29q-20 -18 -37 -41q-6 23 -16 41q-10 16 -23.5 28.5t-31.5 12.5q-43 0 -74 -27.5t-39 -62.5q-10 -47 1 -73.5t33.5 -41t50.5 -17.5t50 -3l-20 -102q-41 0 -89 8t-87 32.5t-58.5 71.5t-3.5 125q6 27 23.5 60.5t46.5 62.5 t67.5 49.5t88.5 20.5q31 0 51 -9.5t35 -19.5q14 -12 24 -29q14 16 37 29q16 10 42 19.5t56 9.5q55 0 89 -25.5t50.5 -65.5t16.5 -89.5t-10 -98.5l-47 -221q-16 -76 -51 -128t-80.5 -85t-95.5 -48t-99 -15h-326q-45 0 -89 15t-75.5 48t-46 85z" />
<glyph unicode="&#xe53;" horiz-adv-x="1073" d="M116.5 213q-12.5 72 6.5 160q41 190 132 287.5t214 97.5q61 0 98 -29t58 -63q23 -41 32 -93q31 51 70 93q35 35 84 63.5t111 28.5q117 0 171 -95.5t13 -289.5q-18 -86 -49 -156t-60 -117q-35 -57 -71 -100h-123q37 43 71 100q29 47 60 117t49 156q12 57 12 108t-12 90 t-37.5 61.5t-64.5 22.5q-59 0 -123 -76.5t-96 -230.5h-103q29 141 0 224t-88 83q-61 0 -126.5 -67.5t-98.5 -214.5q-12 -57 -10 -109.5t19 -92.5t51 -64.5t85 -24.5q35 0 60 10q12 4 24 10l-20 -102q-12 -6 -27 -10q-12 -4 -28.5 -6t-32.5 -2q-63 0 -116.5 28.5t-87.5 79.5 t-46.5 123z" />
<glyph unicode="&#xe54;" horiz-adv-x="1042" d="M110.5 224.5q-6.5 64.5 10.5 133.5q14 70 48 137.5t81 122t108.5 87t130.5 32.5h345q33 0 63.5 6.5t58 22.5t48 48t30.5 83l58 270h122l-57 -264q-16 -76 -48 -127t-74 -82.5t-92 -45t-103 -13.5h-373q-43 0 -80 -24.5t-65.5 -64.5t-48 -89t-29.5 -99q-10 -49 -10.5 -95 t12 -82t39 -57.5t69.5 -21.5h365q-51 31 -88 74q-31 37 -51.5 93.5t-4.5 131.5h127q-14 -66 -0.5 -120t41 -94t66.5 -62.5t76 -22.5h102l-20 -102h-633q-70 0 -118 29.5t-73.5 80t-32 115z" />
<glyph unicode="&#xe55;" horiz-adv-x="1042" d="M110.5 224.5q-6.5 64.5 10.5 133.5q14 70 48 137.5t81 122t108.5 87t130.5 32.5h93q-6 27 0 62q8 33 27.5 63.5t46 52t58 35t66.5 13.5q68 0 106 -48.5t23 -115.5q-6 -29 -22 -60q51 10 91 43t56 115l58 270h122l-57 -264q-16 -76 -48 -127t-74 -82.5t-92 -45t-103 -13.5 h-373q-43 0 -80 -24.5t-65.5 -64.5t-48 -89t-29.5 -99q-10 -49 -10.5 -95t12 -82t39 -57.5t69.5 -21.5h365q-51 31 -88 74q-31 37 -51.5 93.5t-4.5 131.5h127q-14 -66 -0.5 -120t41 -94t66.5 -62.5t76 -22.5h102l-20 -102h-633q-70 0 -118 29.5t-73.5 80t-32 115zM684 799 q-6 -27 8.5 -44.5t40.5 -17.5h6q23 4 43.5 20.5t24.5 41.5q6 25 -8.5 43t-38.5 18q-27 0 -49.5 -18t-26.5 -43z" />
<glyph unicode="&#xe56;" horiz-adv-x="1185" d="M240 1065l22 102h43q102 0 156.5 -51t80 -133t33 -184.5t15.5 -204.5q29 45 76 82q39 31 99 56.5t146 25.5q92 0 159 -29t105.5 -79t51 -117.5t-3.5 -143.5q-18 -84 -60.5 -158.5t-104 -130t-141 -87t-172.5 -31.5q-123 0 -200.5 66.5t-93.5 176.5h122q6 -35 27 -61.5 t47.5 -45t58 -27.5t62.5 -9q53 0 106.5 22.5t98.5 62.5t78.5 96t48.5 126q12 53 4 101.5t-35 85t-72 58t-106 21.5q-53 0 -99.5 -18.5t-83 -49t-65.5 -71.5t-47 -86h-123q-8 166 -17.5 287t-32 197.5t-65.5 113.5t-118 37z" />
<glyph unicode="&#xe57;" horiz-adv-x="1390" d="M116.5 213q-12.5 72 6.5 160q20 94 56 162.5t80 113.5t92 66.5t93 21.5q59 0 96.5 -26.5t56.5 -59.5t27.5 -62.5t8.5 -35.5q2 4 20.5 32.5t53 62.5t83 61.5t107.5 27.5q45 0 85 -20.5t65.5 -64.5t31.5 -113.5t-14 -165.5q-18 -86 -48 -153.5t-61 -117.5q25 2 53.5 13.5 t56.5 32t49.5 52t31.5 79.5l133 618q10 45 32.5 93t60.5 87t92.5 64.5t129.5 25.5h29l-22 -102q-53 0 -89 -13.5t-57.5 -36t-34 -51t-18.5 -61.5l-131 -616q-16 -76 -52 -130.5t-82 -89t-96.5 -51t-95.5 -16.5h-184q37 43 72 100q29 47 59.5 117t48.5 156q25 117 8.5 189.5 t-96.5 72.5q-59 0 -123.5 -61.5t-91.5 -184.5h-82q12 53 7 98t-22.5 78t-43 51.5t-54.5 18.5q-61 0 -113 -57.5t-85 -204.5q-12 -57 -10 -109.5t19 -92.5t51 -64.5t85 -24.5q35 0 60 10q12 4 24 10l-20 -102q-12 -6 -27 -10q-12 -4 -28.5 -6t-32.5 -2q-63 0 -116.5 28.5 t-87.5 79.5t-46.5 123z" />
<glyph unicode="&#xe58;" horiz-adv-x="1042" d="M111.5 202.5q-9.5 73.5 11.5 170.5q14 68 50 133t90 116.5t126 83t158 31.5h287q33 0 63.5 6.5t58 22.5t48 48t30.5 83l58 270h122l-57 -264q-16 -76 -48 -127t-74 -82.5t-92 -45t-103 -13.5h-316q-53 0 -100 -24.5t-83 -62.5t-60.5 -86t-34.5 -95q-12 -57 -13.5 -108.5 t11 -90.5t39 -62.5t67.5 -23.5q37 0 69 21.5t54 50.5q27 31 49 71q12 -41 37 -71q20 -29 56 -50.5t92 -21.5q25 0 54.5 7t56 24.5t47 46t28.5 73.5l10 54h123l-10 -54q-27 -133 -119 -192t-213 -59q-57 0 -94 15t-60 34q-25 23 -38 51q-20 -29 -48 -51q-23 -18 -57.5 -33.5 t-81.5 -15.5q-45 0 -87 24.5t-69.5 73.5t-37 122.5z" />
<glyph unicode="&#xe59;" horiz-adv-x="1267" d="M115.5 213q-11.5 72 7.5 160q20 94 63 165.5t95.5 121t108.5 74t104 24.5q72 0 108.5 -29t65.5 -63q37 72 91 112.5t115 40.5q45 0 77 -22.5t58.5 -50t51 -50t57.5 -22.5q47 0 85 68.5t61 175.5l53 249h123l-54 -249q-14 -63 -36.5 -125t-56 -111t-80 -79t-105.5 -30 t-95 22.5t-61.5 49.5t-47 49.5t-52.5 22.5q-53 0 -90 -36t-45 -73q-4 -14 -2 -20l8 -113q2 -27 4 -65.5t6 -96t10.5 -134.5t12.5 -179h-115l-35 512q-2 20 -8 47t-21.5 48.5t-41 36.5t-62.5 15q-27 0 -59.5 -17t-65.5 -52t-60.5 -89.5t-41.5 -127.5q-12 -55 -12.5 -108.5 t15 -93.5t47.5 -64.5t83 -24.5q35 0 55 10q10 4 21 10l-21 -102q-8 -6 -20 -10q-10 -4 -25.5 -6t-32.5 -2q-61 0 -112 28.5t-84 79.5t-44.5 123z" />
<glyph unicode="&#xe5a;" horiz-adv-x="1042" d="M231 881h123q2 -86 31 -135.5t115 -49.5t164.5 47.5t119.5 137.5h123l-123 -580q-16 -74 -34.5 -129t-49 -94t-74.5 -58.5t-108 -19.5l21 102q20 0 36.5 4.5t29.5 24t26.5 60t30.5 116.5l92 430q-33 -41 -74 -71q-35 -27 -86 -49.5t-117 -22.5q-129 0 -191.5 75.5 t-54.5 211.5zM844 0l186 881h123l-186 -881h-123z" />
<glyph unicode="&#xe5b;" horiz-adv-x="1462" d="M147.5 212q-14.5 69 2.5 144q18 82 59 155t100.5 128t134 87t158.5 32q115 0 174.5 -43t81.5 -94q27 -61 25 -138h-119q0 49 -21 86q-16 33 -54 59.5t-107 26.5q-53 0 -103.5 -23.5t-92.5 -64.5t-71.5 -95t-42.5 -116q-25 -117 28.5 -194.5t166.5 -79.5q51 0 94 15.5 t76 35.5q37 23 68 51l83 -102l103 102l72 -102l106 102q14 -29 33 -51q16 -20 37.5 -35.5t50.5 -15.5q53 0 77.5 28.5t28.5 47.5q4 25 2 44t-6 31q-6 14 -16 25h123q10 -8 16 -22q4 -12 6 -32t-2 -46q-4 -16 -16 -46t-38 -58.5t-67 -50t-102 -21.5q-39 0 -66.5 15t-46.5 34 q-23 23 -36 51l-107 -100l-72 100l-102 -100l-84 100q-31 -29 -68 -51q-33 -18 -76 -33.5t-94 -15.5q-80 0 -141 29.5t-101 80.5t-54.5 120z" />
<glyph unicode="&#x2000;" horiz-adv-x="921" />
<glyph unicode="&#x2001;" horiz-adv-x="1843" />
<glyph unicode="&#x2002;" horiz-adv-x="921" />
<glyph unicode="&#x2003;" horiz-adv-x="1843" />
<glyph unicode="&#x2004;" horiz-adv-x="614" />
<glyph unicode="&#x2005;" horiz-adv-x="460" />
<glyph unicode="&#x2006;" horiz-adv-x="307" />
<glyph unicode="&#x2007;" horiz-adv-x="307" />
<glyph unicode="&#x2008;" horiz-adv-x="230" />
<glyph unicode="&#x2009;" horiz-adv-x="368" />
<glyph unicode="&#x200a;" horiz-adv-x="102" />
<glyph unicode="&#x2010;" horiz-adv-x="550" d="M158 389l22 103h400l-23 -103h-399z" />
<glyph unicode="&#x2011;" horiz-adv-x="550" d="M158 389l22 103h400l-23 -103h-399z" />
<glyph unicode="&#x2012;" horiz-adv-x="550" d="M158 389l22 103h400l-23 -103h-399z" />
<glyph unicode="&#x2013;" horiz-adv-x="765" d="M158 389l22 103h615l-23 -103h-614z" />
<glyph unicode="&#x2014;" horiz-adv-x="1155" d="M158 389l22 103h1004l-23 -103h-1003z" />
<glyph unicode="&#x2018;" horiz-adv-x="274" d="M231 737l27 123q10 47 40 87t64 71q39 37 87 67h102q-41 -37 -76 -73q-29 -33 -57.5 -73t-36.5 -79l-27 -123h-123z" />
<glyph unicode="&#x2019;" horiz-adv-x="274" d="M109 737q41 37 75 74q29 33 56.5 73t38.5 79l26 122h123l-27 -122q-10 -47 -39.5 -88t-64.5 -72q-39 -37 -86 -66h-102z" />
<glyph unicode="&#x201c;" horiz-adv-x="499" d="M231 737l27 123q10 47 40 87t64 71q39 37 87 67h102q-41 -37 -76 -73q-29 -33 -57.5 -73t-36.5 -79l-27 -123h-123zM457 737l26 123q10 47 40 87t65 71q39 37 86 67h102q-41 -37 -76 -73q-29 -33 -57.5 -73t-36.5 -79l-26 -123h-123z" />
<glyph unicode="&#x201d;" horiz-adv-x="499" d="M109 737q41 37 75 74q29 33 56.5 73t38.5 79l26 122h123l-27 -122q-10 -47 -39.5 -88t-64.5 -72q-39 -37 -86 -66h-102zM334 737q41 37 76 74q29 33 56.5 73t37.5 79l26 122h123l-26 -122q-10 -47 -40 -88t-65 -72q-39 -37 -86 -66h-102z" />
<glyph unicode="&#x2022;" horiz-adv-x="524" d="M170 444q8 39 29.5 73t52.5 59.5t67.5 40t75.5 14.5q78 0 121 -54.5t27 -132.5q-8 -39 -29.5 -72.5t-52.5 -59t-69 -40t-77 -14.5q-78 0 -119.5 54.5t-25.5 131.5z" />
<glyph unicode="&#x2026;" horiz-adv-x="1134" d="M76 0l24 123h123l-24 -123h-123zM506 0l24 123h123l-24 -123h-123zM936 0l25 123h122l-24 -123h-123z" />
<glyph unicode="&#x202f;" horiz-adv-x="368" />
<glyph unicode="&#x205f;" horiz-adv-x="460" />
<glyph unicode="&#x20ac;" horiz-adv-x="1032" d="M147 338l21 102h102l13 52q4 16 7 30.5t7 30.5h-104l22 102h121q39 86 97.5 155t131 116t157.5 72.5t177 25.5q76 0 148.5 -9t117.5 -32l-63 -102q-53 29 -106.5 35t-118.5 6q-133 0 -241 -72t-173 -195h407l-22 -102h-428q-4 -16 -7 -30.5t-7 -30.5q-4 -14 -6.5 -26.5 t-4.5 -25.5h387l-20 -102h-369q10 -123 90 -189.5t215 -66.5q78 0 129.5 15.5t116.5 45.5l21 -102q-66 -35 -143 -47t-160 -12q-182 0 -287 94t-109 262h-119z" />
<glyph unicode="&#x2122;" horiz-adv-x="792" d="M281 969l8 35h239l-8 -35h-96l-66 -314h-43l66 314h-100zM502 655l73 349h56l59 -283l191 283h49l-74 -349h-35l60 287l-193 -287h-20l-66 287l-59 -287h-41z" />
<glyph unicode="&#x25fc;" horiz-adv-x="737" d="M0 0v737h737v-737h-737z" />
<glyph horiz-adv-x="847" d="M197 717q31 51 84 92q43 35 112.5 63.5t169.5 28.5q88 0 158 -29q23 6 50.5 17.5t52 28t44 37t25.5 49.5h123q-10 -41 -32.5 -72t-51.5 -53.5t-61.5 -37t-63.5 -22.5q68 -61 91.5 -155.5t0.5 -202.5q-20 -96 -64 -180t-106.5 -146.5t-142.5 -98.5t-172 -36h-103l-12 328 q-4 16 -12 18t-25 2h-41l21 103h82q47 0 65.5 -15.5t24.5 -46.5l20 -287q68 0 125 32t100 82t73 114.5t44 130.5q18 88 4 151.5t-49 105.5t-86 61.5t-104 19.5q-78 0 -138.5 -29t-101.5 -63q-49 -41 -86 -93z" />
<glyph horiz-adv-x="1411" d="M156 143l57 267q8 39 21.5 68.5t25.5 51.5q14 25 29 43l-51 52q-18 18 -35 33.5t-15 17.5q45 61 107 112q53 41 127 77t172 36q70 0 137.5 -16.5t117.5 -50t74.5 -89t8.5 -131.5l-68 -321q-6 -35 -8 -72t9.5 -67.5t37 -51t74.5 -20.5h86q49 0 85 20.5t61.5 51t41 67.5 t23.5 72l125 588h123l-123 -580q-12 -59 -39 -116.5t-69 -102.5t-97 -72.5t-125 -27.5h-164q-70 0 -108.5 27.5t-54 72.5t-13.5 102.5t14 116.5l58 272q14 70 -2.5 114t-52 68.5t-83 34t-92.5 9.5q-59 0 -106 -19.5t-82 -42.5q-39 -27 -72 -61l101 -103q-14 -14 -29 -36 q-12 -20 -24.5 -50t-22.5 -77l-57 -267q-4 -16 -4.5 -27.5t16.5 -13.5h61l-20 -102h-82q-61 0 -86 33t-8 110z" />
<glyph d="M-485.5 1107q-8.5 28 2.5 71q12 53 38.5 85.5t59.5 50t65.5 22.5t55.5 5h123q47 0 77.5 9.5t53.5 21.5t41 31l-23 -103q-16 -12 -39 -20q-20 -8 -51 -14t-78 -6h-102q-61 0 -87 -27t-32 -55q-4 -18 0 -40t27 -22t37 9.5t24 21.5t17 31h38q-2 -18 5 -31q4 -12 13 -21.5 t30 -9.5q31 0 51 22.5t24 39.5h103q-14 -61 -63.5 -102.5t-110.5 -41.5q-23 0 -40.5 6.5t-29.5 14.5q-14 8 -25 20q-10 -12 -24 -20t-34.5 -14.5t-51.5 -6.5q-16 0 -35.5 6.5t-35 22.5t-24 44z" />
<glyph d="M-92 1475l20 102h140q31 0 51 -25.5t14 -56.5q-4 -16 5 -28.5t26 -12.5h184l-61 -102h-205q-47 0 -67.5 25.5t-14.5 56.5q4 27 -5 34t-22 7h-65z" />
<glyph d="M-185 1395.5q-3 15.5 1 38.5q14 61 63 102t111 41q23 0 34 -6t17 -15q8 -8 8 -20q6 12 17 20q10 8 25 14.5t38 6.5q61 0 86 -32t16 -70q-4 -16 1.5 -18.5t15.5 -2.5h100l-61 -102h-88q-57 0 -71.5 25.5t-8.5 56.5q4 23 -1 42t-26 19q-16 0 -28.5 -19.5t-16.5 -41.5h-41 q4 20 2 40.5t-14 20.5q-16 0 -33.5 -19.5t-21.5 -41.5q-4 -23 -1 -38.5t9 -25.5q8 -10 16 -18h-123q-8 8 -16 18q-6 10 -9 25.5z" />
<glyph horiz-adv-x="1452" d="M156 143l57 267q8 39 21.5 68.5t25.5 51.5q14 25 29 43l-51 52q-18 18 -35 33.5t-15 17.5q45 61 107 112q53 41 127 77t172 36q100 0 192.5 -33.5t131.5 -109.5q12 16 36.5 40.5t61.5 47t87 39t116 16.5q59 0 116.5 -19.5t99.5 -59.5t61.5 -101.5t0.5 -147.5l-186 -878 q-6 -29 -23.5 -50.5t-36.5 -37.5q-23 -20 -49 -35h-41l209 981q14 63 3 110.5t-38.5 77t-68.5 44t-90 14.5q-76 0 -123 -28t-74 -61.5t-37 -63.5t-10 -32l-195 -919q-6 -29 -23.5 -50.5t-35.5 -37.5q-23 -20 -49 -35h-41l213 1001q14 70 -2.5 114t-52 68.5t-83 34t-92.5 9.5 q-59 0 -106 -19.5t-82 -42.5q-39 -27 -72 -61l101 -103q-14 -14 -29 -36q-12 -20 -24.5 -50t-22.5 -77l-57 -267q-4 -20 1 -29.5t17 -11.5t26.5 -1t28.5 1l-20 -102h-82q-61 0 -86 33t-8 110z" />
<glyph horiz-adv-x="1452" d="M45 0l21 102h61q12 2 20.5 16.5t13.5 34t8 41t7 37.5l37 179q8 39 20.5 68.5t24.5 51.5q14 25 31 43l-51 52q-18 18 -35 33.5t-15 17.5q45 61 107 112q53 41 127 77t172 36q100 0 192.5 -33.5t131.5 -109.5q12 16 36.5 40.5t61.5 47t87 39t116 16.5q59 0 116.5 -19.5 t99.5 -59.5t61.5 -101.5t0.5 -147.5l-186 -878q-6 -29 -23.5 -50.5t-36.5 -37.5q-23 -20 -49 -35h-41l209 981q14 63 3 110.5t-38.5 77t-68.5 44t-90 14.5q-104 0 -159.5 -45t-78.5 -99q-27 -63 -27 -143l-174 -817q-6 -29 -23.5 -50.5t-35.5 -37.5q-23 -20 -49 -35h-41 l213 1001q14 70 -2.5 114t-52 68.5t-83 34t-92.5 9.5q-59 0 -106 -19.5t-82 -42.5q-39 -27 -72 -61l101 -103q-14 -14 -29 -36q-12 -20 -24.5 -50t-22.5 -77l-57 -267q-16 -78 -53.5 -110.5t-98.5 -32.5h-82z" />
</font>
</defs>
</svg>
